<svg width="1187" height="953" viewBox="0 0 1187 953" fill="none" xmlns="http://www.w3.org/2000/svg">
<g opacity="0.4">
<path opacity="0.01" d="M211.137 320.881C220.113 248.613 219.845 84.6621 146.963 7.01114C55.8604 -90.0525 -5.07077 -205.091 4.02771 -318.906C13.1262 -432.721 122.758 -581.759 41.8601 -718.375" stroke="white" stroke-width="1.0914"/>
<path opacity="0.0204082" d="M206.606 329.724C218.703 258.033 225.535 94.4875 156.088 13.8372C69.2802 -86.9757 13.3916 -204.394 27.4097 -317.521C41.4278 -430.647 157.404 -574.498 82.5031 -714.315" stroke="white" stroke-width="1.13594"/>
<path opacity="0.0408163" d="M201.47 338.448C216.654 267.468 230.55 104.634 164.662 21.1362C82.3023 -83.2363 31.5481 -202.814 50.4432 -315.04C69.3382 -427.266 191.415 -565.66 122.636 -708.416" stroke="white" stroke-width="1.18049"/>
<path opacity="0.0612245" d="M195.734 347.024C213.966 276.889 234.878 115.072 172.665 28.883C94.8983 -78.8532 49.3605 -200.367 73.0807 -311.482C96.8009 -422.598 224.723 -555.277 162.181 -700.703" stroke="white" stroke-width="1.22504"/>
<path opacity="0.0816327" d="M189.404 355.429C210.64 286.269 238.505 125.769 180.076 37.0509C107.04 -73.8473 66.7905 -197.069 95.275 -306.867C123.76 -416.666 257.262 -543.384 201.057 -691.209" stroke="white" stroke-width="1.26958"/>
<path opacity="0.102041" d="M182.489 363.636C206.679 295.579 241.422 136.696 186.88 45.6133C118.702 -68.2395 83.8038 -192.94 116.983 -301.217C150.162 -409.494 288.967 -530.018 239.192 -679.966" stroke="white" stroke-width="1.31413"/>
<path opacity="0.122449" d="M174.999 371.619C202.086 304.792 243.62 147.818 193.059 54.5422C129.857 -62.0528 100.363 -188 138.159 -294.556C175.954 -401.111 319.777 -515.22 276.508 -667.012" stroke="white" stroke-width="1.35868"/>
<path opacity="0.142857" d="M166.942 379.354C196.866 313.879 245.09 159.105 198.598 63.8089C140.483 -55.3109 116.435 -182.271 158.761 -286.909C201.086 -391.547 349.63 -499.033 312.934 -652.387" stroke="white" stroke-width="1.40322"/>
<path opacity="0.163265" d="M158.332 386.816C191.026 322.813 245.828 170.523 203.485 73.3848C150.557 -48.0384 131.988 -175.776 178.747 -278.305C225.506 -380.833 378.468 -481.501 348.401 -636.133" stroke="white" stroke-width="1.44777"/>
<path opacity="0.183673" d="M149.181 393.982C184.573 331.568 245.828 182.041 207.707 83.2402C160.056 -40.2608 146.987 -168.54 198.078 -268.772C249.168 -369.004 406.236 -462.674 382.838 -618.298" stroke="white" stroke-width="1.49232"/>
<path opacity="0.204082" d="M139.5 400.828C177.515 340.117 245.086 193.625 211.251 93.345C168.958 -32.0049 161.402 -160.59 216.712 -258.342C272.022 -356.094 432.878 -442.6 416.178 -598.93" stroke="white" stroke-width="1.53686"/>
<path opacity="0.22449" d="M129.307 407.331C169.863 348.433 243.603 205.242 214.111 103.668C177.246 -23.2982 175.205 -151.952 234.616 -247.048C294.027 -342.144 458.344 -421.334 448.36 -578.08" stroke="white" stroke-width="1.58141"/>
<path opacity="0.244898" d="M118.614 413.47C161.626 356.489 241.376 216.859 216.275 114.18C184.898 -14.1689 188.364 -142.656 251.75 -234.924C315.136 -327.192 482.582 -398.93 479.319 -555.805" stroke="white" stroke-width="1.62596"/>
<path opacity="0.265306" d="M107.439 419.222C152.817 364.262 238.406 228.443 217.737 124.848C191.9 -4.64578 200.854 -132.73 268.081 -222.005C335.308 -311.28 505.548 -375.443 508.998 -532.16" stroke="white" stroke-width="1.6705"/>
<path opacity="0.285714" d="M95.7996 424.568C143.45 371.726 234.698 239.961 218.493 135.641C198.236 5.24124 212.65 -122.207 283.578 -208.329C354.506 -294.452 527.197 -350.934 537.341 -507.205" stroke="white" stroke-width="1.71505"/>
<path opacity="0.306122" d="M83.7142 429.487C133.538 378.856 230.255 251.381 218.538 146.528C203.891 15.4621 223.727 -111.117 298.209 -193.935C372.692 -276.752 547.488 -325.462 564.293 -481.003" stroke="white" stroke-width="1.7596"/>
<path opacity="0.326531" d="M71.2003 433.96C123.095 385.63 225.081 262.67 217.868 157.477C208.851 25.9857 234.06 -99.4947 311.944 -178.861C389.828 -258.228 566.38 -299.089 589.802 -453.616" stroke="white" stroke-width="1.80414"/>
<path opacity="0.346939" d="M58.2796 437.969C112.14 392.023 219.186 273.796 216.483 168.456C213.105 36.7808 243.631 -87.3732 324.757 -163.15C405.883 -238.926 583.84 -271.88 613.823 -425.111" stroke="white" stroke-width="1.84869"/>
<path opacity="0.367347" d="M44.9712 441.497C100.688 398.015 212.575 284.727 214.383 179.433C216.643 47.8156 252.417 -74.7872 336.621 -146.842C420.824 -218.898 599.833 -243.898 636.309 -395.557" stroke="white" stroke-width="1.89324"/>
<path opacity="0.387755" d="M31.2971 444.527C88.7587 403.583 205.259 295.431 211.569 190.376C219.456 59.0576 260.401 -61.7727 347.513 -129.983C434.624 -198.192 614.329 -215.211 657.219 -365.022" stroke="white" stroke-width="1.93779"/>
<path opacity="0.408163" d="M17.2799 447.044C76.3708 408.708 197.251 305.878 208.045 201.255C221.538 70.4752 267.568 -48.3651 357.412 -112.613C447.256 -176.861 627.303 -185.885 676.515 -333.579" stroke="white" stroke-width="1.98233"/>
<path opacity="0.428571" d="M2.94209 449.033C63.5443 413.368 188.562 316.037 203.815 212.036C222.881 82.0347 273.901 -34.6021 366.298 -94.7802C458.696 -154.958 638.729 -155.991 694.16 -301.3" stroke="white" stroke-width="2.02688"/>
<path opacity="0.44898" d="M-11.6945 450.482C50.2987 417.547 179.205 325.879 198.883 222.69C223.481 93.704 279.386 -20.5204 374.153 -76.5281C468.92 -132.536 648.586 -125.595 710.122 -268.259" stroke="white" stroke-width="2.07143"/>
<path opacity="0.469388" d="M-26.6034 451.376C36.6583 421.224 169.197 335.374 193.259 233.185C223.336 105.449 284.014 -6.15876 380.963 -57.9041C477.912 -109.649 656.858 -94.77 724.374 -234.533" stroke="white" stroke-width="2.11597"/>
<path opacity="0.489796" d="M-41.7626 451.705C22.6428 424.385 158.553 344.495 186.949 243.492C222.444 117.238 287.772 8.44522 386.712 -38.9542C485.651 -86.3536 663.528 -63.5851 736.888 -200.196" stroke="white" stroke-width="2.16052"/>
<path opacity="0.510204" d="M-57.1463 451.459C8.27639 427.013 147.29 353.212 179.963 253.579C220.803 129.037 290.653 23.2526 391.389 -19.7258C492.125 -62.7042 668.585 -32.1119 747.644 -165.328" stroke="white" stroke-width="2.20507"/>
<path opacity="0.530612" d="M-72.7283 450.628C-6.41612 429.093 135.429 361.501 172.313 263.418C218.418 140.814 292.651 38.2247 394.987 -0.266274C497.323 -38.7573 672.022 -0.421527 756.623 -130.006" stroke="white" stroke-width="2.24961"/>
<path opacity="0.55102" d="M-88.4835 449.204C-21.411 430.61 122.99 369.333 164.012 272.978C215.29 152.534 293.761 53.3216 397.497 19.3757C501.233 -14.5703 673.833 31.4134 763.81 -94.3097" stroke="white" stroke-width="2.29416"/>
<path opacity="0.571429" d="M-104.387 447.181C-36.6847 431.554 109.991 376.686 155.072 282.233C211.422 164.167 293.978 68.5052 398.913 39.153C503.847 9.80086 674.014 63.3222 769.192 -58.317" stroke="white" stroke-width="2.33871"/>
<path opacity="0.591837" d="M-120.411 444.552C-52.2089 431.911 96.4577 383.534 145.509 291.154C206.823 175.678 293.303 83.735 399.234 59.0166C505.165 34.2982 672.569 95.2322 772.763 -22.1087" stroke="white" stroke-width="2.38325"/>
<path opacity="0.612245" d="M-136.53 441.312C-67.9601 431.672 82.4111 389.854 135.338 299.713C201.497 187.037 291.735 98.9728 398.457 78.919C505.18 58.8652 669.499 127.073 774.516 14.2361" stroke="white" stroke-width="2.4278"/>
<path opacity="0.632653" d="M-152.717 437.459C-83.9108 430.826 67.8761 395.626 124.577 307.886C195.453 198.212 289.276 114.179 396.585 98.8118C503.894 83.4447 664.814 158.773 774.452 50.6376" stroke="white" stroke-width="2.47235"/>
<path opacity="0.653061" d="M-168.944 432.99C-100.034 429.367 52.8787 400.827 113.245 315.647C188.703 209.172 285.93 129.315 393.621 118.647C501.312 107.98 658.524 190.261 772.573 87.0161" stroke="white" stroke-width="2.51689"/>
<path opacity="0.673469" d="M-185.185 427.903C-116.302 427.287 37.4444 405.438 101.361 322.97C181.257 219.885 281.703 144.341 389.57 138.377C497.437 132.414 650.642 221.469 768.884 123.292" stroke="white" stroke-width="2.56144"/>
<path opacity="0.693878" d="M-201.414 422.198C-132.689 424.58 21.5988 409.441 88.9441 329.833C173.126 230.322 276.601 159.221 384.439 157.956C492.277 156.691 641.183 252.327 763.394 159.388" stroke="white" stroke-width="2.60599"/>
<path opacity="0.714286" d="M-217.602 415.877C-149.165 421.242 5.37201 412.819 76.0186 336.212C164.327 240.453 270.634 173.915 378.239 177.335C485.844 180.754 630.17 282.765 756.118 195.224" stroke="white" stroke-width="2.65053"/>
<path opacity="0.734694" d="M-233.725 408.943C-165.705 417.269 -11.2101 415.555 62.6042 342.086C154.872 250.25 263.811 188.386 370.98 196.468C478.148 204.55 617.622 312.719 747.07 230.724" stroke="white" stroke-width="2.69508"/>
<path opacity="0.755102" d="M-249.754 401.397C-182.279 412.66 -28.1171 417.634 48.7258 347.434C144.779 259.684 256.146 202.598 362.676 215.31C469.207 228.023 603.566 342.12 736.269 265.811" stroke="white" stroke-width="2.73963"/>
<path opacity="0.77551" d="M-265.663 393.246C-198.859 407.413 -45.3191 419.044 34.4081 352.237C134.067 268.728 247.651 216.513 353.344 233.816C459.037 251.119 588.03 370.905 723.74 300.41" stroke="white" stroke-width="2.78417"/>
<path opacity="0.795918" d="M-281.425 384.495C-215.417 401.528 -62.786 419.772 19.6757 356.476C122.753 277.356 238.342 230.098 343 251.943C447.659 273.787 571.046 399.011 709.508 334.446" stroke="white" stroke-width="2.82872"/>
<path opacity="0.816327" d="M-297.016 375.15C-231.927 395.009 -80.4888 419.807 4.55334 360.134C110.856 285.543 228.234 243.316 331.663 269.645C435.092 295.975 552.645 426.375 693.601 367.846" stroke="white" stroke-width="2.87327"/>
<path opacity="0.836735" d="M-312.407 365.221C-248.358 387.856 -98.3934 419.141 -10.9299 363.195C98.3996 293.263 217.348 256.134 319.356 286.882C421.364 317.631 532.866 452.937 676.054 400.54" stroke="white" stroke-width="2.91781"/>
<path opacity="0.857143" d="M-327.577 354.715C-264.685 380.075 -116.471 417.765 -26.7493 365.644C85.4031 300.493 205.7 268.519 306.099 303.612C406.498 338.706 511.746 478.639 656.898 432.457" stroke="white" stroke-width="2.96236"/>
<path opacity="0.877551" d="M-342.498 343.644C-280.879 371.671 -134.689 415.672 -42.8758 367.467C71.8908 307.21 193.315 280.439 291.92 319.796C390.525 359.153 489.327 503.425 636.175 463.529" stroke="white" stroke-width="3.00691"/>
<path opacity="0.897959" d="M-357.146 332.019C-296.913 362.649 -153.014 412.858 -59.2804 368.652C57.8871 313.394 180.213 291.862 276.843 335.393C373.474 378.924 465.654 527.239 613.926 493.69" stroke="white" stroke-width="3.05146"/>
<path opacity="0.918367" d="M-371.497 319.853C-312.76 353.019 -171.415 409.319 -75.9345 369.187C43.4164 319.023 166.418 302.759 260.898 350.366C355.379 397.974 440.771 550.03 590.193 522.876" stroke="white" stroke-width="3.096"/>
<path opacity="0.938776" d="M-385.53 307.157C-328.394 342.788 -189.861 405.052 -92.8104 369.064C28.503 324.079 151.955 313.1 244.113 364.68C336.271 416.26 414.726 571.747 565.023 551.024" stroke="white" stroke-width="3.14055"/>
<path opacity="0.959184" d="M-399.218 293.948C-343.788 331.967 -208.317 400.058 -109.875 368.273C13.1759 328.543 136.851 322.858 226.521 378.299C316.19 433.739 387.572 592.341 538.466 578.075" stroke="white" stroke-width="3.1851"/>
<path opacity="0.979592" d="M-412.543 280.241C-358.917 320.566 -226.752 394.335 -127.102 366.808C-2.54012 332.399 121.131 332.007 208.152 391.189C295.172 450.371 359.357 611.768 510.574 603.972" stroke="white" stroke-width="3.22964"/>
<path d="M-425.481 266.051C-373.755 308.599 -245.134 387.888 -144.459 364.662C-18.6163 335.63 104.825 340.52 189.041 403.319C273.257 466.117 330.139 629.983 481.399 628.658" stroke="white" stroke-width="3.27419"/>
</g>
</svg>
