<svg width="663" height="1570" viewBox="0 0 663 1570" fill="none" xmlns="http://www.w3.org/2000/svg">
<g opacity="0.4">
<path opacity="0.204082" d="M762.037 401.679C754.727 472.936 758.765 634.21 833.392 709.254C926.677 803.059 990.22 915.101 983.743 1027.23C977.266 1139.36 871.12 1287.99 955.115 1420.89" stroke="white" stroke-width="1.53686"/>
<path opacity="0.22449" d="M768.312 391.344C757.922 462.096 754.966 623.132 826.268 701.253C915.396 798.905 974.021 913.444 962.691 1025C951.362 1136.55 838.881 1280.15 917.033 1416.39" stroke="white" stroke-width="1.58141"/>
<path opacity="0.244898" d="M775.197 381.115C761.756 451.231 751.837 611.725 819.686 692.777C904.499 794.092 958.109 910.911 941.965 1021.68C925.821 1132.46 807.241 1270.74 879.421 1410.07" stroke="white" stroke-width="1.62596"/>
<path opacity="0.265306" d="M782.684 371.021C766.229 440.368 749.387 600.02 813.665 683.85C894.012 788.638 942.52 907.519 921.608 1017.3C900.696 1127.08 776.266 1259.81 842.352 1401.95" stroke="white" stroke-width="1.6705"/>
<path opacity="0.285714" d="M790.769 361.086C771.34 429.536 747.63 588.048 808.223 674.499C883.963 782.563 927.291 903.284 901.666 1011.87C876.041 1120.46 746.022 1247.37 805.905 1392.07" stroke="white" stroke-width="1.71505"/>
<path opacity="0.306122" d="M799.442 351.337C777.087 418.762 746.576 575.839 803.377 664.75C874.378 775.888 912.457 898.223 882.184 1005.41C851.911 1112.6 716.571 1233.47 770.155 1380.46" stroke="white" stroke-width="1.7596"/>
<path opacity="0.326531" d="M808.696 341.799C783.466 408.074 746.235 563.426 799.145 654.63C865.282 768.635 898.054 892.356 863.206 997.952C828.357 1103.55 687.977 1218.15 735.175 1367.15" stroke="white" stroke-width="1.80414"/>
<path opacity="0.346939" d="M818.518 332.498C790.473 397.502 746.613 550.84 795.539 644.168C856.697 760.827 884.115 885.704 844.772 989.51C805.43 1093.32 660.298 1201.44 701.037 1352.17" stroke="white" stroke-width="1.84869"/>
<path opacity="0.367347" d="M828.902 323.458C798.103 387.07 747.719 538.114 792.578 633.391C848.651 752.488 870.675 878.29 826.928 980.115C783.182 1081.94 633.595 1183.4 667.814 1335.58" stroke="white" stroke-width="1.89324"/>
<path opacity="0.387755" d="M839.834 314.702C806.349 376.807 749.558 525.28 790.272 622.329C841.164 743.642 857.765 870.136 809.712 969.795C761.659 1069.45 607.924 1164.05 635.573 1317.41" stroke="white" stroke-width="1.93779"/>
<path opacity="0.408163" d="M851.301 306.256C815.203 366.741 752.132 512.37 788.632 611.013C834.257 734.316 845.416 861.27 793.162 958.58C740.908 1055.89 583.338 1143.47 604.379 1297.72" stroke="white" stroke-width="1.98233"/>
<path opacity="0.428571" d="M863.289 298.142C824.655 356.896 755.445 499.419 787.669 599.471C827.95 724.536 833.659 851.716 777.317 946.501C720.975 1041.29 559.889 1121.69 574.297 1276.54" stroke="white" stroke-width="2.02688"/>
<path opacity="0.44898" d="M875.783 290.381C834.696 347.3 759.496 486.457 787.391 587.734C822.26 714.331 822.521 841.502 762.212 933.591C701.903 1025.68 537.626 1098.77 545.389 1253.94" stroke="white" stroke-width="2.07143"/>
<path opacity="0.469388" d="M888.766 282.998C845.313 337.978 764.285 473.519 787.805 575.834C817.206 703.728 812.029 830.658 747.881 919.886C683.732 1009.11 516.597 1074.76 517.713 1229.97" stroke="white" stroke-width="2.11597"/>
<path opacity="0.489796" d="M902.223 276.01C856.493 328.955 769.81 460.637 788.918 563.801C812.802 692.756 802.21 819.213 734.357 905.421C666.503 991.628 496.846 1049.72 491.327 1204.68" stroke="white" stroke-width="2.16052"/>
<path opacity="0.510204" d="M916.135 269.44C868.224 320.256 776.067 447.843 790.733 551.666C809.065 681.445 793.088 807.199 721.671 890.232C650.254 973.265 478.414 1023.71 466.283 1178.15" stroke="white" stroke-width="2.20507"/>
<path opacity="0.530612" d="M930.482 263.307C880.488 311.904 783.05 435.17 793.252 539.461C806.006 669.825 784.685 794.647 709.852 874.36C635.018 954.073 461.339 996.795 442.633 1150.42" stroke="white" stroke-width="2.24961"/>
<path opacity="0.55102" d="M945.248 257.629C893.273 303.922 790.755 422.65 796.481 527.218C803.639 657.927 777.025 781.59 698.929 857.843C620.833 934.096 445.662 969.028 420.426 1121.56" stroke="white" stroke-width="2.29416"/>
<path opacity="0.571429" d="M960.412 252.424C906.561 296.333 799.172 410.315 800.417 514.967C801.974 645.782 770.127 768.062 688.928 840.722C607.728 913.382 431.413 940.477 399.708 1091.64" stroke="white" stroke-width="2.33871"/>
<path opacity="0.591837" d="M975.951 247.71C920.334 289.16 808.293 398.196 805.061 502.741C801.02 633.423 764.01 754.098 679.872 823.04C595.733 891.982 418.624 911.207 380.521 1060.73" stroke="white" stroke-width="2.38325"/>
<path opacity="0.612245" d="M991.844 243.501C934.573 282.421 818.107 386.324 810.408 490.57C800.785 620.879 758.691 739.733 671.783 804.839C584.875 869.945 407.323 881.282 362.903 1028.89" stroke="white" stroke-width="2.4278"/>
<path opacity="0.632653" d="M1008.07 239.813C949.259 276.138 828.601 374.729 816.456 478.487C801.275 608.184 754.185 725.003 664.681 786.163C575.178 847.323 397.533 850.769 346.892 996.197" stroke="white" stroke-width="2.47235"/>
<path opacity="0.653061" d="M1024.6 236.66C964.368 270.331 839.761 363.442 823.197 466.521C802.492 595.37 750.504 709.946 658.583 767.057C566.663 824.168 389.275 819.738 332.517 962.725" stroke="white" stroke-width="2.51689"/>
<path opacity="0.673469" d="M1041.42 234.055C979.884 265.015 851.575 352.49 830.628 454.703C804.445 582.47 747.664 694.596 653.509 747.564C559.354 800.533 382.572 788.256 319.814 928.546" stroke="white" stroke-width="2.56144"/>
<path opacity="0.693878" d="M1058.5 232.009C995.783 260.21 864.025 341.903 838.74 443.065C807.133 569.516 745.673 678.993 649.47 727.732C553.267 776.472 377.437 756.393 308.805 893.735" stroke="white" stroke-width="2.60599"/>
<path opacity="0.714286" d="M1075.82 230.534C1012.04 255.932 877.095 331.71 847.523 431.635C810.557 556.541 744.541 663.174 646.479 707.607C548.417 752.04 373.883 724.219 299.515 858.367" stroke="white" stroke-width="2.65053"/>
<path opacity="0.734694" d="M1093.35 229.64C1028.64 252.196 890.767 321.935 856.966 420.442C814.716 543.577 744.275 647.178 644.546 687.235C544.818 727.292 371.919 691.803 291.963 822.52" stroke="white" stroke-width="2.69508"/>
<path opacity="0.755102" d="M1111.06 229.334C1045.54 249.015 905.019 312.605 867.058 409.517C819.607 530.656 744.88 631.041 643.679 666.662C542.479 702.282 371.553 659.216 286.165 786.268" stroke="white" stroke-width="2.73963"/>
<path opacity="0.77551" d="M1128.93 229.626C1062.73 246.404 919.83 303.747 877.784 398.887C825.225 517.812 746.358 614.805 643.882 645.937C541.406 677.069 372.784 626.529 282.132 749.693" stroke="white" stroke-width="2.78417"/>
<path opacity="0.795918" d="M1146.94 230.52C1080.19 244.374 935.183 295.383 889.132 388.579C831.569 505.076 748.715 598.506 645.163 625.106C541.61 651.706 375.618 593.813 279.878 712.87" stroke="white" stroke-width="2.82872"/>
<path opacity="0.816327" d="M1165.05 232.022C1097.88 242.936 951.051 287.536 901.086 378.622C838.63 492.478 751.949 582.184 647.52 604.217C543.091 626.25 380.049 561.137 279.407 675.878" stroke="white" stroke-width="2.87327"/>
<path opacity="0.836735" d="M1183.25 234.137C1115.78 242.101 967.412 280.23 913.629 369.04C846.4 480.052 756.06 565.876 650.955 583.317C545.85 600.758 386.071 528.571 280.721 638.796" stroke="white" stroke-width="2.91781"/>
<path opacity="0.857143" d="M1201.5 236.867C1133.87 241.875 984.24 273.485 926.742 359.859C854.87 467.828 761.043 549.622 655.464 562.454C549.886 575.285 393.675 496.186 283.819 601.702" stroke="white" stroke-width="2.96236"/>
<path opacity="0.877551" d="M1219.77 240.214C1152.11 242.267 1001.51 267.32 940.408 351.105C864.029 455.835 766.895 533.459 661.044 541.673C555.193 549.887 402.85 464.049 288.697 564.673" stroke="white" stroke-width="3.00691"/>
<path opacity="0.897959" d="M1238.05 244.179C1170.48 243.284 1019.2 261.756 954.605 342.8C873.865 444.105 773.609 517.425 667.687 521.023C561.765 524.62 413.58 432.231 295.347 527.788" stroke="white" stroke-width="3.05146"/>
<path opacity="0.918367" d="M1256.3 248.76C1188.95 244.93 1037.27 256.808 969.313 334.967C884.365 432.666 781.177 501.558 675.385 500.548C569.593 499.538 425.847 400.796 303.759 491.122" stroke="white" stroke-width="3.096"/>
<path opacity="0.938776" d="M1274.49 253.957C1207.5 247.208 1055.7 252.494 984.509 327.628C895.514 421.546 789.589 485.894 684.127 480.295C578.665 474.696 439.629 369.813 313.918 454.754" stroke="white" stroke-width="3.14055"/>
<path opacity="0.959184" d="M1292.6 259.767C1226.08 250.123 1074.47 248.828 1000.17 320.804C907.296 410.774 798.833 470.471 693.9 460.309C588.966 450.147 454.903 339.346 325.804 418.758" stroke="white" stroke-width="3.1851"/>
<path opacity="0.979592" d="M1310.61 266.184C1244.69 253.674 1093.54 245.825 1016.27 314.515C919.696 400.377 808.9 455.323 704.692 440.634C600.484 425.945 471.643 309.46 339.4 383.209" stroke="white" stroke-width="3.22964"/>
<path d="M1328.48 273.205C1263.29 257.861 1112.88 243.496 1032.8 308.778C932.694 390.381 819.772 440.486 716.485 421.314C613.197 402.142 489.819 280.217 354.68 348.179" stroke="white" stroke-width="3.27419"/>
</g>
</svg>
