<svg width="91" height="133" viewBox="0 0 91 133" fill="none" xmlns="http://www.w3.org/2000/svg">
<g filter="url(#filter0_b_1_1922)">
<path fill-rule="evenodd" clip-rule="evenodd" d="M40.8684 130.933L40.8693 130.931L43.087 128.076L46.3744 123.704L46.375 123.703L50.3877 118.154L54.7995 111.75L59.3097 104.789L63.6509 97.5355L67.588 90.2114L70.9134 83.004L73.4412 76.0649L74.9952 69.522L75.401 63.4808L74.8773 57.7386L73.7958 52.0561L72.2001 46.4735L69.3168 40.3922L66.3972 35.3598L63.0977 30.5999L59.4447 26.1615L55.4623 22.0965L51.1729 18.4612L46.5975 15.3165L41.7561 12.7288L36.8274 10.8282L32.0033 9.69222L27.3264 9.31421L22.8437 9.68946L18.607 10.8141L14.6737 12.6834L11.1051 15.292L7.96732 18.6315L5.33007 22.6907L3.26742 27.4499L1.85345 32.8882L1.16429 38.974L1.55236 42.302L3.10473 50.0638L5.82137 60.1542L9.70228 71.0207L14.3594 81.8873L19.3467 93.0583L24.4752 103.32L29.3215 112.597L33.5911 120.489L36.994 126.601L39.2442 130.55L40.0574 131.951L40.8684 130.933Z" fill="url(#paint0_linear_1_1922)"/>
</g>
<g filter="url(#filter1_b_1_1922)">
<path fill-rule="evenodd" clip-rule="evenodd" d="M5.63262 22.1605L8.2985 18.1624L11.4532 14.852L15.0275 12.2429L18.0991 10.0836L14.525 12.6934L14.5267 12.6922L18.0991 10.0836L21.2242 7.88674L21.2257 7.88565L24.4091 5.64786L27.6506 3.36914L24.1923 6.2094L21.0876 9.31413L18.3709 13.5831L16.4305 18.2402L15.6126 21.1029C15.1237 22.814 14.7689 24.5607 14.5514 26.3269C14.2786 28.5435 14.2231 30.7815 14.386 33.0089L14.4418 33.7731C14.5974 35.9011 14.9147 38.0141 15.3909 40.094L16.7051 45.8342L19.9506 55.835L24.1193 66.5437L28.9109 77.5293L34.0221 88.3636L39.1506 98.6253L43.997 107.903L48.2665 115.794L51.7468 121.861L54.0753 125.741L54.8515 127.294L50.9734 128.503L47.2866 129.726L43.6704 130.925L40.1228 132.102L39.3372 130.755L37.1649 126.959L33.882 121.082L29.7663 113.494L25.0994 104.572L20.1672 94.6998L15.2597 84.273L10.6701 73.6944L6.69206 63.3738L3.61653 53.7233L2.41891 48.2911C1.95839 46.2022 1.6617 44.0806 1.53155 41.9456L1.50229 41.4656C1.36435 39.2028 1.44044 36.932 1.72953 34.6835C1.94734 32.9894 2.28543 31.3129 2.74124 29.6668L2.76372 29.5856C3.27211 27.7496 3.92083 25.9554 4.70417 24.2188L5.63262 22.1605Z" fill="url(#paint1_linear_1_1922)" fill-opacity="0.6"/>
</g>
<g filter="url(#filter2_b_1_1922)">
<path fill-rule="evenodd" clip-rule="evenodd" d="M55.4828 126.238L55.4837 126.237L57.7014 123.381L60.9888 119.009L60.9894 119.008L65.0021 113.459L69.4138 107.055L73.924 100.095L78.2652 92.8408L82.2023 85.5167L85.5277 78.3093L88.0555 71.3701L89.6096 64.8273L90.0154 58.7861L89.4917 53.0439L88.4102 47.3614L86.8145 41.7788L84.7436 36.337L82.2325 31.078L79.313 26.0456L76.0135 21.2857L72.3605 16.8472L68.3781 12.7823L64.0887 9.14702L59.5133 6.00232L54.6719 3.41457L49.7431 1.51404L44.9191 0.378009L40.2422 0L35.7595 0.375251L31.5228 1.49987L27.5895 3.36919L24.0209 5.97782L20.8831 9.31734L18.2459 13.3764L16.1832 18.1357L14.7692 23.574L14.0801 29.6598L14.6147 36.9708L16.644 45.8343L19.8895 55.835L19.8898 55.8358L24.0582 66.5438L28.8495 77.5286L28.8498 77.5294L33.9611 88.3636L39.0895 98.6254L43.9359 107.903L48.2055 115.794L51.6083 121.907L53.8585 125.855L54.6718 127.256L55.4828 126.238Z" fill="url(#paint2_linear_1_1922)" fill-opacity="0.25"/>
<path d="M54.7222 126.57L54.1957 125.663L54.1942 125.66L51.9474 121.718L51.9455 121.714L48.5468 115.609L48.5446 115.605L44.2799 107.723L44.2772 107.718L39.4367 98.4519L39.4335 98.4457L34.3121 88.198L34.3082 88.1901L29.2035 77.3695L24.417 66.3957L20.2551 55.7044L17.0185 45.7309L14.9996 36.913L14.4698 29.6676L15.1518 23.645L16.5512 18.2624L18.589 13.5606L21.1897 9.55783L24.279 6.26985L27.789 3.70404L31.657 1.86577L35.826 0.759134L40.2427 0.389402L44.8587 0.762479L49.6283 1.8857L54.51 3.76809L59.3113 6.33439L63.8527 9.45576L68.1134 13.0667L72.0715 17.1068L75.7037 21.52L78.9851 26.2539L81.889 31.2592L84.3865 36.4899L86.4459 41.9014L88.0322 47.4512L89.1069 53.0979L89.6261 58.7907L89.2245 64.7691L87.6832 71.2585L85.1686 78.1613L81.8549 85.3434L77.9277 92.6492L73.5946 99.8895L69.0911 106.839L64.6876 113.232L64.6825 113.239L60.6786 118.776L60.6749 118.781L60.6747 118.781L60.6741 118.782L57.3949 123.143L57.3912 123.148L55.1791 125.996L55.1772 125.999L55.1751 126.001L55.1741 126.003L54.7222 126.57Z" stroke="url(#paint3_linear_1_1922)" stroke-opacity="0.5" stroke-width="0.776182"/>
</g>
<g filter="url(#filter3_d_1_1922)">
<g filter="url(#filter4_b_1_1922)">
<path fill-rule="evenodd" clip-rule="evenodd" d="M44.6026 27.0161L46.5189 25.7354L45.0264 26.8028L43.702 28.103L42.5663 29.6219L41.64 31.345L39.7376 32.5995L40.6622 30.8856L41.795 29.3741L43.1152 28.0796L44.6026 27.0161ZM61.7686 57.1024L61.4708 57.5078L59.7345 58.1644L57.8672 58.5508L57.9042 57.5835L59.8936 57.4886L61.7686 57.1024ZM55.8866 58.6479L55.8183 57.3677L57.9042 57.5835L57.8672 58.5508L55.8866 58.6479ZM55.8866 58.6479L55.8183 57.3677L53.7218 56.8407L51.7026 56.0294L49.7818 54.9566L47.9803 53.6456L46.3192 52.1207L44.8193 50.4064L43.5011 48.528L42.3848 46.5112L41.4903 44.3821L40.8368 42.167L40.4432 39.8924L40.3274 37.5848L38.5337 41.0951L38.9221 43.3546L39.5691 45.5546L40.4561 47.6688L41.564 49.671L42.8732 51.5355L44.3634 53.2366L46.0144 54.7494L47.8055 56.0493L49.7157 57.1126L51.7243 57.9157L53.8104 58.4365L55.8866 58.6479ZM61.7686 57.1024L63.5116 56.4442L61.4708 57.5078L61.7686 57.1024ZM39.7376 32.5995L41.64 31.345L40.944 33.2571L38.5965 36.5739L39.0421 34.5008L39.7376 32.5995ZM40.944 33.2571L40.4995 35.3425L40.3274 37.5848L38.5337 41.0951L38.4219 38.8024L38.5965 36.5739L40.944 33.2571Z" fill="url(#paint4_linear_1_1922)" fill-opacity="0.6"/>
</g>
<g filter="url(#filter5_b_1_1922)">
<path fill-rule="evenodd" clip-rule="evenodd" d="M69.5301 37.066L68.6619 35.0337L67.5922 33.107L66.3377 31.3064L64.9145 29.6529L63.3386 28.168L61.6255 26.8733L59.7909 25.7913L57.8499 24.9449L55.8179 24.3576L53.776 24.0616L51.8068 24.0644L49.9283 24.353L48.1592 24.9143L46.5186 25.7353L45.0261 26.8028L43.7019 28.1028L42.566 29.622L41.6397 31.345L40.9438 33.2571L40.4994 35.3419L40.4992 35.3435L40.3271 37.5848L40.4429 39.8913L40.4429 39.8923L40.8365 42.1669L41.49 44.382L42.3845 46.5112L43.5007 48.528L44.8189 50.4064L46.3189 52.1207L47.98 53.6457L49.7815 54.9566L51.7023 56.0294L53.7215 56.8407L57.9039 57.5835L59.8933 57.4886L61.7683 57.1024L63.5113 56.4442L65.1055 55.5331L66.5344 54.3879L67.7819 53.0268L68.8323 51.4679L69.6701 49.7286L70.28 47.8256L70.6465 45.7752L70.7542 43.5931L70.5941 41.3658L70.1801 39.1835L69.5301 37.066ZM55.8179 57.3678L53.7215 56.8407L57.9039 57.5835L55.8179 57.3678Z" fill="url(#paint5_linear_1_1922)" fill-opacity="0.5"/>
</g>
</g>
<defs>
<filter id="filter0_b_1_1922" x="-10.2485" y="-2.09859" width="97.0623" height="145.462" filterUnits="userSpaceOnUse" color-interpolation-filters="sRGB">
<feFlood flood-opacity="0" result="BackgroundImageFix"/>
<feGaussianBlur in="BackgroundImageFix" stdDeviation="5.7064"/>
<feComposite in2="SourceAlpha" operator="in" result="effect1_backgroundBlur_1_1922"/>
<feBlend mode="normal" in="SourceGraphic" in2="effect1_backgroundBlur_1_1922" result="shape"/>
</filter>
<filter id="filter1_b_1_1922" x="-24.9017" y="-22.9681" width="106.09" height="181.408" filterUnits="userSpaceOnUse" color-interpolation-filters="sRGB">
<feFlood flood-opacity="0" result="BackgroundImageFix"/>
<feGaussianBlur in="BackgroundImageFix" stdDeviation="13.1686"/>
<feComposite in2="SourceAlpha" operator="in" result="effect1_backgroundBlur_1_1922"/>
<feBlend mode="normal" in="SourceGraphic" in2="effect1_backgroundBlur_1_1922" result="shape"/>
</filter>
<filter id="filter2_b_1_1922" x="2.43734" y="-11.6427" width="99.2208" height="150.542" filterUnits="userSpaceOnUse" color-interpolation-filters="sRGB">
<feFlood flood-opacity="0" result="BackgroundImageFix"/>
<feGaussianBlur in="BackgroundImageFix" stdDeviation="5.82137"/>
<feComposite in2="SourceAlpha" operator="in" result="effect1_backgroundBlur_1_1922"/>
<feBlend mode="normal" in="SourceGraphic" in2="effect1_backgroundBlur_1_1922" result="shape"/>
</filter>
<filter id="filter3_d_1_1922" x="31.4452" y="19.8757" width="46.2855" height="48.5396" filterUnits="userSpaceOnUse" color-interpolation-filters="sRGB">
<feFlood flood-opacity="0" result="BackgroundImageFix"/>
<feColorMatrix in="SourceAlpha" type="matrix" values="0 0 0 0 0 0 0 0 0 0 0 0 0 0 0 0 0 0 127 0" result="hardAlpha"/>
<feOffset dy="2.79065"/>
<feGaussianBlur stdDeviation="3.48831"/>
<feComposite in2="hardAlpha" operator="out"/>
<feColorMatrix type="matrix" values="0 0 0 0 0 0 0 0 0 0 0 0 0 0 0 0 0 0 0.15 0"/>
<feBlend mode="normal" in2="BackgroundImageFix" result="effect1_dropShadow_1_1922"/>
<feBlend mode="normal" in="SourceGraphic" in2="effect1_dropShadow_1_1922" result="shape"/>
</filter>
<filter id="filter4_b_1_1922" x="13.7538" y="1.06723" width="74.426" height="82.2488" filterUnits="userSpaceOnUse" color-interpolation-filters="sRGB">
<feFlood flood-opacity="0" result="BackgroundImageFix"/>
<feGaussianBlur in="BackgroundImageFix" stdDeviation="12.3341"/>
<feComposite in2="SourceAlpha" operator="in" result="effect1_backgroundBlur_1_1922"/>
<feBlend mode="normal" in="SourceGraphic" in2="effect1_backgroundBlur_1_1922" result="shape"/>
</filter>
<filter id="filter5_b_1_1922" x="33.0572" y="16.7917" width="44.9668" height="48.0617" filterUnits="userSpaceOnUse" color-interpolation-filters="sRGB">
<feFlood flood-opacity="0" result="BackgroundImageFix"/>
<feGaussianBlur in="BackgroundImageFix" stdDeviation="3.63496"/>
<feComposite in2="SourceAlpha" operator="in" result="effect1_backgroundBlur_1_1922"/>
<feBlend mode="normal" in="SourceGraphic" in2="effect1_backgroundBlur_1_1922" result="shape"/>
</filter>
<linearGradient id="paint0_linear_1_1922" x1="-44.6305" y1="60.5422" x2="71.4499" y2="149.93" gradientUnits="userSpaceOnUse">
<stop stop-color="#DA9CD4" stop-opacity="0.49"/>
<stop offset="1" stop-color="#A8476A"/>
</linearGradient>
<linearGradient id="paint1_linear_1_1922" x1="-10.8661" y1="22.5092" x2="84.4136" y2="86.3023" gradientUnits="userSpaceOnUse">
<stop offset="0.190175" stop-color="#FFC7D8"/>
<stop offset="0.543579" stop-color="#E7427D"/>
<stop offset="1" stop-color="#96083B"/>
</linearGradient>
<linearGradient id="paint2_linear_1_1922" x1="8.53841" y1="32.2116" x2="124.443" y2="134" gradientUnits="userSpaceOnUse">
<stop stop-color="#FFD6FD"/>
<stop offset="0.550105" stop-color="#A8477B"/>
<stop offset="1" stop-color="#A8477B"/>
</linearGradient>
<linearGradient id="paint3_linear_1_1922" x1="3.10513" y1="33.7639" x2="76.7941" y2="108.474" gradientUnits="userSpaceOnUse">
<stop stop-color="#E7B8CD"/>
<stop offset="0.772826" stop-color="white" stop-opacity="0"/>
</linearGradient>
<linearGradient id="paint4_linear_1_1922" x1="40.6036" y1="28.049" x2="82.6609" y2="59.2334" gradientUnits="userSpaceOnUse">
<stop offset="0.190175" stop-color="#EE9FB7"/>
<stop offset="0.477376" stop-color="#CD2B65"/>
<stop offset="1" stop-color="#A50954"/>
</linearGradient>
<linearGradient id="paint5_linear_1_1922" x1="42.8116" y1="44.6247" x2="106.622" y2="117.203" gradientUnits="userSpaceOnUse">
<stop stop-color="white"/>
<stop offset="0.406507" stop-color="#FFB7DE"/>
</linearGradient>
</defs>
</svg>
