<svg width="111" height="122" viewBox="0 0 111 122" fill="none" xmlns="http://www.w3.org/2000/svg">
<g filter="url(#filter0_b_1_1972)">
<path fill-rule="evenodd" clip-rule="evenodd" d="M20.9199 14.3303L23.424 14.7302L26.0024 15.4578L78.5988 32.6169L80.8483 33.5347L83.0077 34.6998L85.0606 36.0867L86.9906 37.6704L88.7805 39.4271L90.4132 41.3331L91.8707 43.3656L93.1345 45.5017L94.1856 47.7192L95.004 49.9956L95.569 52.3085L95.8588 54.6356L95.0825 106.564L95.0826 106.565L94.7742 109.031L94.1671 111.311L93.2767 113.387L92.1189 115.237L90.71 116.839L89.0668 118.17L87.2064 119.207L85.1479 119.925L82.9099 120.3L80.5137 120.308L77.9802 119.925L20.8007 108.307L18.0259 107.666L15.107 106.415L12.3167 104.603L9.81916 102.719L7.53821 100.568L5.50381 98.1866L3.74493 95.6119L2.28935 92.882L1.16363 90.0353L0.392849 87.1106L0.000244141 84.1456L0.00787572 81.1791L5.40185 26.3902L5.76384 24.0113L6.46797 21.8649L7.4841 19.9629L8.78242 18.3163L10.3337 16.9352L12.1095 15.8291L14.0821 15.007L16.225 14.4774L18.5124 14.249L20.9199 14.3303ZM95.0825 106.564L95.8588 54.6356L95.0766 103.934L95.0825 106.564Z" fill="url(#paint0_linear_1_1972)" fill-opacity="0.5"/>
<path d="M94.6655 106.54L94.364 108.951L93.7719 111.175L92.9061 113.193L91.7834 114.987L90.4201 116.537L88.8323 117.823L87.0349 118.825L85.0441 119.52L82.8744 119.883L80.5444 119.891L78.053 119.514L20.8893 107.9L18.156 107.268L15.3041 106.046L12.5562 104.261L10.0885 102.4L7.84068 100.28L5.83546 97.9329L4.10214 95.3955L2.66843 92.7066L1.56053 89.905L0.802775 87.0298L0.417304 84.1186L0.424813 81.2001L5.81575 26.442L6.17087 24.1083L6.85287 22.0293L7.83445 20.192L9.08712 18.6033L10.5844 17.2704L12.3012 16.201L14.2131 15.4042L16.2961 14.8894L18.5261 14.6667L20.8798 14.7462L23.3342 15.1381L25.881 15.8568L78.4552 33.0087L80.67 33.9123L82.7914 35.0569L84.8111 36.4213L86.7117 37.981L88.4756 39.712L90.0848 41.5907L91.5211 43.5937L92.7659 45.6976L93.8 47.8794L94.6042 50.116L95.1582 52.384L95.4414 54.6581L94.6597 103.927H94.6596L94.6596 103.935L94.6655 106.54Z" stroke="url(#paint1_linear_1_1972)" stroke-width="0.833979"/>
</g>
<path fill-rule="evenodd" clip-rule="evenodd" d="M16.2302 9.76228L15.8682 12.1412L11.5885 71.0887L11.5808 74.0552L11.9733 77.02L12.7442 79.9449L13.8699 82.7916L15.3255 85.5215L17.0844 88.0963L19.1188 90.4778L21.3997 92.6288L23.8973 94.5128L26.5808 96.0944L29.4189 97.3398L32.38 98.2167L93.1158 111.973L95.6491 112.357L98.0454 112.349L100.283 111.974L102.342 111.255L100.292 112.47L98.439 113.503L96.4808 114.665L98.438 113.504L98.439 113.503L100.292 112.47L102.342 111.255L104.202 110.219L100.294 112.469L100.293 112.47L100.292 112.47L98.439 113.503L96.4808 114.665L92.7621 116.806L89.1333 118.896L87.2995 119.919L85.2794 120.638L83.0925 121.029L80.7594 121.068L78.3015 120.732L19.6956 108.347L16.8529 107.548L14.1352 106.394L11.5723 104.916L9.19334 103.145L7.02727 101.115L5.1021 98.8602L3.44497 96.416L2.08198 93.8181L1.03805 91.1025L0.336757 88.3057L0.000244141 85.4638L0.0491245 82.6128L5.0191 25.6366L5.40381 23.3229L6.11665 21.2266L9.73518 16.0731L11.0215 14.442L13.6966 11.0686L16.4379 7.61188L19.2461 4.07068L17.9505 5.7139L16.9344 7.61585L16.2302 9.76228Z" fill="url(#paint2_linear_1_1972)"/>
<g filter="url(#filter1_b_1_1972)">
<path fill-rule="evenodd" clip-rule="evenodd" d="M31.448 0.0813011L33.9521 0.481152L36.5305 1.20878L89.6227 19.4218L91.8721 20.3396L94.0315 21.5047L96.0845 22.8916L98.0144 24.4753L99.8044 26.232L101.437 28.138L102.895 30.1704L104.158 32.3066L105.209 34.5241L106.028 36.8005L106.593 39.1134L106.883 41.4405L110.28 98.6123L110.28 98.6138L109.972 101.079L109.364 103.36L108.474 105.436L107.316 107.286L105.907 108.888L104.264 110.219L102.404 111.255L100.345 111.973L98.1072 112.349L95.711 112.357L93.1775 111.973L32.4431 98.2169L29.6683 97.5756L26.7493 96.3246L23.9591 94.5127L21.4615 92.6288L19.1805 90.4778L17.1461 88.0962L15.3873 85.5215L13.9317 82.7916L12.806 79.9449L12.0352 77.0202L11.6426 74.0552L11.6502 71.0887L15.93 12.1412L16.292 9.76225L16.9961 7.61582L18.0122 5.71386L19.3106 4.06727L20.8618 2.68621L22.6376 1.58011L24.6103 0.75797L26.7531 0.228412L29.0405 0L31.448 0.0813011ZM110.28 98.6123L106.883 41.4405L110.274 95.9822L110.28 98.6123Z" fill="url(#paint3_linear_1_1972)" fill-opacity="0.5"/>
<path d="M109.861 98.6002L109.561 100.999L108.969 103.223L108.103 105.242L106.981 107.036L105.617 108.586L104.03 109.872L102.232 110.874L100.241 111.568L98.0717 111.932L95.7417 111.94L93.2549 111.563L32.537 97.8106L32.5352 97.8102L29.7983 97.1776L26.9465 95.9554L24.1985 94.171L21.7309 92.3097L19.483 90.1898L17.4778 87.8424L15.7445 85.3051L14.3108 82.6162L13.2029 79.8146L12.4451 76.9394L12.0596 74.0282L12.0672 71.1043L16.3447 12.1877L16.699 9.85927L17.381 7.78029L18.3626 5.94299L19.6153 4.3543L21.1125 3.02133L22.8293 1.95197L24.7413 1.15513L26.8242 0.640375L29.0543 0.417691L31.408 0.497175L33.8623 0.889084L36.4061 1.60696L89.4761 19.8124L91.6939 20.7172L93.8152 21.8618L95.835 23.2262L97.7356 24.7859L99.4994 26.5169L101.109 28.3956L102.545 30.3986L103.79 32.5025L104.824 34.6842L105.628 36.9208L106.182 39.1889L106.467 41.4787L109.861 98.6002Z" stroke="url(#paint4_linear_1_1972)" stroke-width="0.833979"/>
</g>
<g filter="url(#filter2_b_1_1972)">
<path fill-rule="evenodd" clip-rule="evenodd" d="M31.448 0.0813011L33.9521 0.481152L36.5305 1.20878L89.6227 19.4218L91.8721 20.3396L94.0315 21.5047L96.0845 22.8916L98.0144 24.4753L99.8044 26.232L101.437 28.138L102.895 30.1704L104.158 32.3066L105.209 34.5241L106.028 36.8005L106.593 39.1134L106.883 41.4405L110.28 98.6123L110.28 98.6138L109.972 101.079L109.364 103.36L108.474 105.436L107.316 107.286L105.907 108.888L104.264 110.219L102.404 111.255L100.345 111.973L98.1072 112.349L95.711 112.357L93.1775 111.973L32.4431 98.2169L29.6683 97.5756L26.7493 96.3246L23.9591 94.5127L21.4615 92.6288L19.1805 90.4778L17.1461 88.0962L15.3873 85.5215L13.9317 82.7916L12.806 79.9449L12.0352 77.0202L11.6426 74.0552L11.6502 71.0887L15.93 12.1412L16.292 9.76225L16.9961 7.61582L18.0122 5.71386L19.3106 4.06727L20.8618 2.68621L22.6376 1.58011L24.6103 0.75797L26.7531 0.228412L29.0405 0L31.448 0.0813011ZM110.28 98.6123L106.883 41.4405L110.274 95.9822L110.28 98.6123Z" fill="url(#paint5_linear_1_1972)" fill-opacity="0.2"/>
<path d="M109.861 98.6002L109.561 100.999L108.969 103.223L108.103 105.242L106.981 107.036L105.617 108.586L104.03 109.872L102.232 110.874L100.241 111.568L98.0717 111.932L95.7417 111.94L93.2549 111.563L32.537 97.8106L32.5352 97.8102L29.7983 97.1776L26.9465 95.9554L24.1985 94.171L21.7309 92.3097L19.483 90.1898L17.4778 87.8424L15.7445 85.3051L14.3108 82.6162L13.2029 79.8146L12.4451 76.9394L12.0596 74.0282L12.0672 71.1043L16.3447 12.1877L16.699 9.85927L17.381 7.78029L18.3626 5.94299L19.6153 4.3543L21.1125 3.02133L22.8293 1.95197L24.7413 1.15513L26.8242 0.640375L29.0543 0.417691L31.408 0.497175L33.8623 0.889084L36.4061 1.60696L89.4761 19.8124L91.6939 20.7172L93.8152 21.8618L95.835 23.2262L97.7356 24.7859L99.4994 26.5169L101.109 28.3956L102.545 30.3986L103.79 32.5025L104.824 34.6842L105.628 36.9208L106.182 39.1889L106.467 41.4787L109.861 98.6002Z" stroke="url(#paint6_linear_1_1972)" stroke-width="0.833979"/>
</g>
<defs>
<filter id="filter0_b_1_1972" x="-12.5094" y="1.73934" width="120.878" height="131.079" filterUnits="userSpaceOnUse" color-interpolation-filters="sRGB">
<feFlood flood-opacity="0" result="BackgroundImageFix"/>
<feGaussianBlur in="BackgroundImageFix" stdDeviation="6.25484"/>
<feComposite in2="SourceAlpha" operator="in" result="effect1_backgroundBlur_1_1972"/>
<feBlend mode="normal" in="SourceGraphic" in2="effect1_backgroundBlur_1_1972" result="shape"/>
</filter>
<filter id="filter1_b_1_1972" x="-0.867109" y="-12.5097" width="123.657" height="137.376" filterUnits="userSpaceOnUse" color-interpolation-filters="sRGB">
<feFlood flood-opacity="0" result="BackgroundImageFix"/>
<feGaussianBlur in="BackgroundImageFix" stdDeviation="6.25484"/>
<feComposite in2="SourceAlpha" operator="in" result="effect1_backgroundBlur_1_1972"/>
<feBlend mode="normal" in="SourceGraphic" in2="effect1_backgroundBlur_1_1972" result="shape"/>
</filter>
<filter id="filter2_b_1_1972" x="3.88075" y="-7.76182" width="114.161" height="127.88" filterUnits="userSpaceOnUse" color-interpolation-filters="sRGB">
<feFlood flood-opacity="0" result="BackgroundImageFix"/>
<feGaussianBlur in="BackgroundImageFix" stdDeviation="3.88091"/>
<feComposite in2="SourceAlpha" operator="in" result="effect1_backgroundBlur_1_1972"/>
<feBlend mode="normal" in="SourceGraphic" in2="effect1_backgroundBlur_1_1972" result="shape"/>
</filter>
<linearGradient id="paint0_linear_1_1972" x1="3.1349" y1="126.676" x2="103.497" y2="20.6549" gradientUnits="userSpaceOnUse">
<stop offset="0.168938" stop-color="#F168BA"/>
<stop offset="0.763637" stop-color="#EDC9E7" stop-opacity="0.39"/>
</linearGradient>
<linearGradient id="paint1_linear_1_1972" x1="-0.177348" y1="111.62" x2="95.642" y2="31.2349" gradientUnits="userSpaceOnUse">
<stop offset="0.180663" stop-color="white" stop-opacity="0.49"/>
<stop offset="0.533255" stop-color="white" stop-opacity="0"/>
</linearGradient>
<linearGradient id="paint2_linear_1_1972" x1="-25.5905" y1="19.9266" x2="95.5029" y2="140.86" gradientUnits="userSpaceOnUse">
<stop stop-color="#FFD9ED"/>
<stop offset="0.348528" stop-color="#DF5CA2"/>
<stop offset="0.563631" stop-color="#B01167"/>
<stop offset="0.76507" stop-color="#B01167"/>
<stop offset="0.957662" stop-color="#D56580"/>
</linearGradient>
<linearGradient id="paint3_linear_1_1972" x1="14.7772" y1="116.586" x2="115.139" y2="10.5645" gradientUnits="userSpaceOnUse">
<stop offset="0.168938" stop-color="#F168BA"/>
<stop offset="0.763637" stop-color="#EDC9E7" stop-opacity="0.39"/>
</linearGradient>
<linearGradient id="paint4_linear_1_1972" x1="11.465" y1="101.53" x2="107.284" y2="21.1446" gradientUnits="userSpaceOnUse">
<stop offset="0.180663" stop-color="white" stop-opacity="0.49"/>
<stop offset="0.533255" stop-color="white" stop-opacity="0"/>
</linearGradient>
<linearGradient id="paint5_linear_1_1972" x1="14.7772" y1="116.586" x2="115.139" y2="10.5645" gradientUnits="userSpaceOnUse">
<stop offset="0.168938" stop-color="#F168BA"/>
<stop offset="0.763637" stop-color="#EDC9E7" stop-opacity="0.39"/>
</linearGradient>
<linearGradient id="paint6_linear_1_1972" x1="11.465" y1="101.53" x2="107.284" y2="21.1446" gradientUnits="userSpaceOnUse">
<stop offset="0.180663" stop-color="white" stop-opacity="0.14"/>
<stop offset="0.419792" stop-color="white" stop-opacity="0"/>
</linearGradient>
</defs>
</svg>
