<svg width="110" height="123" viewBox="0 0 110 123" fill="none" xmlns="http://www.w3.org/2000/svg">
<path d="M87.0128 52.5159L89.5551 58.9188L91.5158 65.5083L92.8474 72.2375L93.4969 79.0608L93.4114 85.7174L92.597 91.9539L91.0821 97.7313L88.8937 103.004L86.0573 107.72L82.6 111.821L78.5474 115.243L73.9272 117.918L68.769 119.768L63.1059 120.712L56.9769 120.662L50.4288 119.526L43.7362 117.292L37.1991 114.052L30.9106 109.879L24.9658 104.857L19.4602 99.0813L14.4869 92.6582L10.1361 85.7009L6.49294 78.3301L3.63592 70.6711L1.6356 62.8527L0.553152 55.0039L0.439333 47.2526L1.30054 39.9552L3.05068 33.4153L5.59312 27.6707L8.83268 22.7488L12.6781 18.6686L17.0437 15.443L21.8503 13.0808L27.0253 11.5892L32.5019 10.975L38.2187 11.2459L44.1196 12.4108L50.1531 14.4809L56.0828 17.3723L61.6879 20.9372L66.9443 25.0979L71.8257 29.783L76.3044 34.9266L80.3506 40.4675L83.9318 46.3486L87.0128 52.5159Z" fill="#5FA3C9" fill-opacity="0.62" stroke="url(#paint0_linear_1_1946)" stroke-width="0.877908"/>
<g filter="url(#filter0_b_1_1946)">
<path fill-rule="evenodd" clip-rule="evenodd" d="M2.79717 33.7115L0.959033 40.4545L0 47.945L0.0064099 55.872L0.974445 63.8748L2.85394 71.826L5.58538 79.5973L9.10076 87.0618L13.3248 94.0951L18.1764 100.578L23.5697 106.398L29.4159 111.449L35.6245 115.636L42.1049 118.873L48.7674 121.083L55.3165 122.174L61.4774 122.158L67.1987 121.124L71.4103 119.599L75.6995 118.047L80.0682 116.465L84.5188 114.854L78.7778 115.856L72.5734 115.802L65.9556 114.601L59.2012 112.24L52.6105 108.82L46.2763 104.418L40.2927 99.1245L34.7538 93.0405L29.752 86.2763L25.377 78.9505L21.7133 71.1889L18.8396 63.1223L16.8268 54.8844L15.737 46.6102L15.6223 38.4332L16.4908 30.7269L18.2584 23.8108L20.83 17.7265L24.1113 12.5062L28.0108 8.17367L32.441 4.74622L28.4979 7.36327L24.6269 9.93248L20.8261 12.4552L17.0935 14.9325L12.6574 18.3463L8.73762 22.628L5.42094 27.7583L2.79717 33.7115Z" fill="url(#paint1_linear_1_1946)" fill-opacity="0.6"/>
</g>
<g filter="url(#filter1_b_1_1946)">
<path fill-rule="evenodd" clip-rule="evenodd" d="M105.614 50.5249L103.057 43.7816L99.9585 37.2873L96.3573 31.0948L92.2883 25.26L87.7832 19.8423L82.8713 14.9059L77.5795 10.5198L71.933 6.75935L65.9553 3.70718L59.8665 1.51977L53.9032 0.287045L48.1176 0L42.568 0.6517L37.3188 2.236L32.4407 4.74622L28.0107 8.17366L24.1111 12.5062L20.8298 17.7265L18.2582 23.8108L16.4906 30.7269L15.6221 38.4332L15.7367 46.6102L16.8265 54.8844L18.8393 63.1223L21.713 71.1889L25.3767 78.9505L29.7518 86.2763L34.7535 93.0405L40.2925 99.1245L46.2761 104.418L52.6103 108.82L59.2009 112.24L65.9553 114.601L72.5731 115.802L78.7776 115.856L84.5186 114.854L89.7526 112.888L94.4419 110.045L98.5536 106.409L102.058 102.057L104.93 97.0565L107.143 91.4736L108.673 85.3639L109.495 78.7763L109.581 71.7527L108.927 64.5586L107.587 57.4668L105.614 50.5249Z" fill="url(#paint2_linear_1_1946)" fill-opacity="0.2"/>
<path d="M102.653 43.9542L105.197 50.6629L107.159 57.5678L108.492 64.6194L109.142 71.7699L109.056 78.7464L108.241 85.2831L106.724 91.3388L104.534 96.8653L101.695 101.808L98.235 106.105L94.1806 109.691L89.56 112.491L84.4027 114.428L78.7415 115.416L72.6146 115.364L66.0676 114.175L59.3754 111.836L52.8375 108.443L46.5477 104.072L40.6011 98.8114L35.0932 92.7616L30.1176 86.0327L25.7645 78.7438L22.1192 71.0212L19.2604 62.9962L17.2586 54.8035L16.1753 46.5783L16.0614 38.4547L16.9234 30.8062L18.6753 23.9514L21.2203 17.9301L24.4627 12.7718L28.3105 8.49667L32.6774 5.11807L37.484 2.64465L42.6577 1.08314L48.1324 0.440229L53.8475 0.723779L59.7473 1.94335L65.7806 4.11083L71.7108 7.13876L77.3171 10.8724L82.575 15.2304L87.4582 20.138L91.9389 25.5263L95.9869 31.331L99.5701 37.4925L102.653 43.9542Z" stroke="url(#paint3_linear_1_1946)" stroke-width="0.877908"/>
</g>
<defs>
<filter id="filter0_b_1_1946" x="-26.3372" y="-21.591" width="137.193" height="170.103" filterUnits="userSpaceOnUse" color-interpolation-filters="sRGB">
<feFlood flood-opacity="0" result="BackgroundImageFix"/>
<feGaussianBlur in="BackgroundImageFix" stdDeviation="13.1686"/>
<feComposite in2="SourceAlpha" operator="in" result="effect1_backgroundBlur_1_1946"/>
<feBlend mode="normal" in="SourceGraphic" in2="effect1_backgroundBlur_1_1946" result="shape"/>
</filter>
<filter id="filter1_b_1_1946" x="4.20927" y="-11.4128" width="116.784" height="138.681" filterUnits="userSpaceOnUse" color-interpolation-filters="sRGB">
<feFlood flood-opacity="0" result="BackgroundImageFix"/>
<feGaussianBlur in="BackgroundImageFix" stdDeviation="5.7064"/>
<feComposite in2="SourceAlpha" operator="in" result="effect1_backgroundBlur_1_1946"/>
<feBlend mode="normal" in="SourceGraphic" in2="effect1_backgroundBlur_1_1946" result="shape"/>
</filter>
<linearGradient id="paint0_linear_1_1946" x1="0.0871431" y1="94.6957" x2="45.2281" y2="65.2828" gradientUnits="userSpaceOnUse">
<stop stop-color="white" stop-opacity="0.27"/>
<stop offset="0.688828" stop-color="white" stop-opacity="0"/>
</linearGradient>
<linearGradient id="paint1_linear_1_1946" x1="24.5814" y1="22.3866" x2="66.7251" y2="121.201" gradientUnits="userSpaceOnUse">
<stop offset="0.325325" stop-color="#C0DDFF"/>
<stop offset="0.59538" stop-color="#1277C1"/>
<stop offset="0.814274" stop-color="#053174"/>
<stop offset="0.896974" stop-color="#053174"/>
<stop offset="1" stop-color="#0D469B"/>
</linearGradient>
<linearGradient id="paint2_linear_1_1946" x1="-8.34036" y1="50.9187" x2="137.687" y2="65.9135" gradientUnits="userSpaceOnUse">
<stop offset="0.89375" stop-color="#5A8DEF"/>
</linearGradient>
<linearGradient id="paint3_linear_1_1946" x1="6.14512" y1="83.8402" x2="79.2427" y2="96.7328" gradientUnits="userSpaceOnUse">
<stop offset="0.0596223" stop-color="white" stop-opacity="0.45"/>
<stop offset="0.701218" stop-color="white" stop-opacity="0"/>
</linearGradient>
</defs>
</svg>
