<svg width="223" height="453" viewBox="0 0 223 453" fill="none" xmlns="http://www.w3.org/2000/svg">
<g filter="url(#filter0_d_1_2672)">
<g clip-path="url(#clip0_1_2672)">
<rect x="12.2871" y="13" width="198.096" height="428.943" rx="20" fill="white"/>
<rect width="198.096" height="67.0884" transform="matrix(1 0 0 -1 12.2871 441.944)" fill="#333333"/>
<path d="M12.2871 13H210.383V384.892C210.383 397.729 199.977 408.135 187.14 408.135H35.5304C22.6935 408.135 12.2871 397.729 12.2871 384.892V13Z" fill="white"/>
<path opacity="0.35" fill-rule="evenodd" clip-rule="evenodd" d="M199.327 22.6847H192.213C191.81 22.6847 191.539 22.6852 191.331 22.7022C191.128 22.7187 191.032 22.7482 190.968 22.7807C190.802 22.8651 190.668 22.9998 190.583 23.1655C190.551 23.2293 190.521 23.3259 190.505 23.5282C190.488 23.7366 190.487 24.0072 190.487 24.4104V25.8895C190.487 26.2927 190.488 26.5633 190.505 26.7717C190.521 26.9739 190.551 27.0706 190.583 27.1344C190.668 27.3001 190.802 27.4348 190.968 27.5192C191.032 27.5517 191.128 27.5812 191.331 27.5977C191.539 27.6147 191.81 27.6151 192.213 27.6151H199.327C199.73 27.6151 200.001 27.6147 200.209 27.5977C200.411 27.5812 200.508 27.5517 200.572 27.5192C200.737 27.4348 200.872 27.3001 200.956 27.1344C200.989 27.0706 201.018 26.9739 201.035 26.7717C201.052 26.5633 201.052 26.2927 201.052 25.8895V24.4104C201.052 24.0072 201.052 23.7366 201.035 23.5282C201.018 23.3259 200.989 23.2293 200.956 23.1655C200.872 22.9998 200.737 22.8651 200.572 22.7807C200.508 22.7482 200.411 22.7187 200.209 22.7022C200.001 22.6852 199.73 22.6847 199.327 22.6847ZM190.113 22.9256C189.959 23.227 189.959 23.6214 189.959 24.4104V25.8895C189.959 26.6784 189.959 27.0729 190.113 27.3742C190.248 27.6393 190.463 27.8548 190.728 27.9899C191.029 28.1434 191.424 28.1434 192.213 28.1434H199.327C200.116 28.1434 200.51 28.1434 200.811 27.9899C201.077 27.8548 201.292 27.6393 201.427 27.3742C201.581 27.0729 201.581 26.6784 201.581 25.8895V24.4104C201.581 23.6214 201.581 23.227 201.427 22.9256C201.292 22.6606 201.077 22.4451 200.811 22.31C200.51 22.1565 200.116 22.1565 199.327 22.1565H192.213C191.424 22.1565 191.029 22.1565 190.728 22.31C190.463 22.4451 190.248 22.6606 190.113 22.9256Z" fill="black"/>
<path opacity="0.4" d="M202.107 24.0935V26.2065C202.533 26.0276 202.809 25.6113 202.809 25.15C202.809 24.6888 202.533 24.2725 202.107 24.0935Z" fill="black"/>
<path d="M191.016 24.3398C191.016 23.9454 191.016 23.7481 191.092 23.5975C191.16 23.4649 191.268 23.3572 191.4 23.2897C191.551 23.2129 191.748 23.2129 192.143 23.2129H199.397C199.792 23.2129 199.989 23.2129 200.14 23.2897C200.272 23.3572 200.38 23.4649 200.447 23.5975C200.524 23.7481 200.524 23.9454 200.524 24.3398V25.9598C200.524 26.3543 200.524 26.5515 200.447 26.7022C200.38 26.8347 200.272 26.9425 200.14 27.01C199.989 27.0868 199.792 27.0868 199.397 27.0868H192.143C191.748 27.0868 191.551 27.0868 191.4 27.01C191.268 26.9425 191.16 26.8347 191.092 26.7022C191.016 26.5515 191.016 26.3543 191.016 25.9598V24.3398Z" fill="black"/>
<path fill-rule="evenodd" clip-rule="evenodd" d="M183.265 23.3618C184.44 23.3619 185.571 23.8131 186.422 24.6221C186.486 24.6846 186.589 24.6838 186.652 24.6204L187.265 24.0021C187.297 23.97 187.315 23.9264 187.315 23.881C187.314 23.8357 187.296 23.7923 187.264 23.7605C185.028 21.6199 181.501 21.6199 179.266 23.7605C179.234 23.7923 179.215 23.8356 179.215 23.881C179.215 23.9263 179.232 23.9699 179.264 24.0021L179.878 24.6204C179.941 24.6839 180.043 24.6847 180.107 24.6221C180.959 23.813 182.09 23.3618 183.265 23.3618ZM183.265 25.3732C183.911 25.3732 184.533 25.613 185.012 26.046C185.077 26.1075 185.179 26.1061 185.242 26.043L185.854 25.4248C185.886 25.3923 185.904 25.3484 185.904 25.3026C185.903 25.2569 185.885 25.2133 185.852 25.1815C184.394 23.8269 182.137 23.8269 180.679 25.1815C180.647 25.2133 180.628 25.2569 180.627 25.3027C180.627 25.3484 180.645 25.3924 180.677 25.4248L181.289 26.043C181.353 26.1061 181.455 26.1075 181.519 26.046C181.998 25.6132 182.62 25.3735 183.265 25.3732ZM184.492 26.7265C184.493 26.7723 184.475 26.8165 184.442 26.8487L183.383 27.9168C183.352 27.9482 183.309 27.9658 183.265 27.9658C183.221 27.9658 183.179 27.9482 183.147 27.9168L182.088 26.8487C182.055 26.8165 182.037 26.7723 182.038 26.7265C182.039 26.6806 182.059 26.6372 182.093 26.6065C182.77 26.0348 183.76 26.0348 184.437 26.6065C184.471 26.6372 184.491 26.6807 184.492 26.7265Z" fill="black"/>
<path fill-rule="evenodd" clip-rule="evenodd" d="M176.048 22.3325H175.52C175.228 22.3325 174.991 22.569 174.991 22.8608V27.439C174.991 27.7307 175.228 27.9672 175.52 27.9672H176.048C176.34 27.9672 176.576 27.7307 176.576 27.439V22.8608C176.576 22.569 176.34 22.3325 176.048 22.3325ZM173.054 23.5651H173.583C173.874 23.5651 174.111 23.8016 174.111 24.0934V27.439C174.111 27.7307 173.874 27.9672 173.583 27.9672H173.054C172.763 27.9672 172.526 27.7307 172.526 27.439V24.0934C172.526 23.8016 172.763 23.5651 173.054 23.5651ZM171.117 24.7977H170.589C170.297 24.7977 170.061 25.0342 170.061 25.326V27.439C170.061 27.7307 170.297 27.9672 170.589 27.9672H171.117C171.409 27.9672 171.646 27.7307 171.646 27.439V25.326C171.646 25.0342 171.409 24.7977 171.117 24.7977ZM168.652 25.8542H168.124C167.832 25.8542 167.596 26.0907 167.596 26.3825V27.439C167.596 27.7307 167.832 27.9672 168.124 27.9672H168.652C168.944 27.9672 169.18 27.7307 169.18 27.439V26.3825C169.18 26.0907 168.944 25.8542 168.652 25.8542Z" fill="black"/>
<path d="M31.8759 27.9265C33.2958 27.9265 34.1393 26.816 34.1393 24.9318C34.1393 23.0824 33.2416 22.0687 31.9068 22.0687C30.6919 22.0687 29.833 22.8851 29.833 24.0265C29.833 25.0982 30.6068 25.8797 31.6708 25.8797C32.3247 25.8797 32.8547 25.578 33.1178 25.0479H33.1836C33.172 26.3595 32.7039 27.1101 31.8875 27.1101C31.4077 27.1101 31.0247 26.847 30.9047 26.4214H29.9104C30.0729 27.3306 30.8544 27.9265 31.8759 27.9265ZM31.9107 25.1098C31.2607 25.1098 30.8119 24.6532 30.8119 23.9955C30.8119 23.3648 31.2839 22.8812 31.9146 22.8812C32.5452 22.8812 33.0172 23.3726 33.0172 24.0149C33.0172 24.6494 32.5568 25.1098 31.9107 25.1098Z" fill="black"/>
<path d="M35.8039 25.0285C36.1714 25.0285 36.4229 24.7693 36.4229 24.4288C36.4229 24.0845 36.1714 23.8291 35.8039 23.8291C35.4402 23.8291 35.1848 24.0845 35.1848 24.4288C35.1848 24.7693 35.4402 25.0285 35.8039 25.0285ZM35.8039 27.8684C36.1714 27.8684 36.4229 27.6092 36.4229 27.2649C36.4229 26.9244 36.1714 26.6652 35.8039 26.6652C35.4402 26.6652 35.1848 26.9244 35.1848 27.2649C35.1848 27.6092 35.4402 27.8684 35.8039 27.8684Z" fill="black"/>
<path d="M40.0762 27.7911H41.0319V26.7193H41.7863V25.8952H41.0319V22.208H39.6235C38.8652 23.361 38.072 24.6455 37.3485 25.903V26.7193H40.0762V27.7911ZM38.2732 25.8604C38.8188 24.9125 39.4649 23.8794 40.0375 23.005H40.0917V25.9184H38.2732V25.8604Z" fill="black"/>
<path d="M43.9462 27.7911H44.9444V22.208H43.95L42.4914 23.2333V24.1735L43.8804 23.1907H43.9462V27.7911Z" fill="black"/>
<path d="M95.7258 42.8593H96.57L98.0377 46.443H98.0917L99.5594 42.8593H100.404V47.4695H99.7418V44.1334H99.699L98.3394 47.4627H97.7901L96.4304 44.1311H96.3877V47.4695H95.7258V42.8593ZM101.786 48.7661C101.686 48.7661 101.594 48.7579 101.512 48.7413C101.429 48.7263 101.368 48.7098 101.327 48.6918L101.489 48.1403C101.612 48.1733 101.722 48.1876 101.818 48.1831C101.914 48.1786 101.999 48.1426 102.072 48.075C102.147 48.0075 102.213 47.8972 102.27 47.7441L102.354 47.5145L101.088 44.0118H101.809L102.685 46.6951H102.721L103.596 44.0118H104.319L102.894 47.931C102.828 48.111 102.744 48.2634 102.642 48.3879C102.54 48.514 102.418 48.6085 102.277 48.6716C102.136 48.7346 101.972 48.7661 101.786 48.7661ZM106.683 47.4695V42.8593H108.326C108.685 42.8593 108.982 42.9245 109.218 43.0551C109.453 43.1857 109.63 43.3642 109.747 43.5909C109.864 43.816 109.922 44.0696 109.922 44.3517C109.922 44.6354 109.863 44.8905 109.744 45.1171C109.627 45.3422 109.45 45.5208 109.213 45.6529C108.978 45.7834 108.681 45.8487 108.324 45.8487H107.194V45.2589H108.261C108.488 45.2589 108.671 45.2199 108.813 45.1419C108.954 45.0623 109.057 44.9543 109.123 44.8177C109.189 44.6811 109.222 44.5258 109.222 44.3517C109.222 44.1776 109.189 44.0231 109.123 43.888C109.057 43.7529 108.953 43.6471 108.81 43.5706C108.669 43.4941 108.483 43.4558 108.252 43.4558H107.379V47.4695H106.683ZM110.684 47.4695V44.0118H111.334V44.5611H111.37C111.433 44.375 111.544 44.2287 111.704 44.1221C111.864 44.0141 112.046 43.96 112.248 43.96C112.29 43.96 112.34 43.9615 112.397 43.9645C112.455 43.9675 112.501 43.9713 112.534 43.9758V44.6196C112.507 44.6121 112.459 44.6038 112.39 44.5948C112.321 44.5843 112.252 44.5791 112.183 44.5791C112.024 44.5791 111.882 44.6129 111.758 44.6804C111.634 44.7464 111.537 44.8387 111.465 44.9573C111.393 45.0743 111.357 45.2079 111.357 45.358V47.4695H110.684ZM114.449 47.5393C114.125 47.5393 113.842 47.465 113.601 47.3164C113.359 47.1678 113.171 46.96 113.038 46.6929C112.904 46.4257 112.837 46.1136 112.837 45.7564C112.837 45.3977 112.904 45.0841 113.038 44.8154C113.171 44.5468 113.359 44.3382 113.601 44.1896C113.842 44.0411 114.125 43.9668 114.449 43.9668C114.773 43.9668 115.056 44.0411 115.298 44.1896C115.54 44.3382 115.727 44.5468 115.861 44.8154C115.994 45.0841 116.061 45.3977 116.061 45.7564C116.061 46.1136 115.994 46.4257 115.861 46.6929C115.727 46.96 115.54 47.1678 115.298 47.3164C115.056 47.465 114.773 47.5393 114.449 47.5393ZM114.452 46.9742C114.662 46.9742 114.836 46.9187 114.974 46.8077C115.112 46.6966 115.214 46.5488 115.28 46.3642C115.347 46.1796 115.381 45.9763 115.381 45.7542C115.381 45.5335 115.347 45.3309 115.28 45.1464C115.214 44.9603 115.112 44.8109 114.974 44.6984C114.836 44.5858 114.662 44.5296 114.452 44.5296C114.24 44.5296 114.064 44.5858 113.925 44.6984C113.787 44.8109 113.684 44.9603 113.616 45.1464C113.55 45.3309 113.517 45.5335 113.517 45.7542C113.517 45.9763 113.55 46.1796 113.616 46.3642C113.684 46.5488 113.787 46.6966 113.925 46.8077C114.064 46.9187 114.24 46.9742 114.452 46.9742ZM118.458 44.0118V44.5521H116.504V44.0118H118.458ZM117.04 47.4695V43.6111C117.04 43.395 117.087 43.2157 117.182 43.0731C117.276 42.929 117.401 42.8217 117.557 42.7512C117.714 42.6792 117.883 42.6431 118.066 42.6431C118.201 42.6431 118.317 42.6544 118.413 42.6769C118.509 42.6979 118.58 42.7174 118.627 42.7354L118.469 43.2802C118.438 43.2712 118.397 43.2607 118.348 43.2487C118.298 43.2352 118.238 43.2284 118.168 43.2284C118.004 43.2284 117.887 43.269 117.816 43.35C117.747 43.431 117.713 43.5481 117.713 43.7012V47.4695H117.04ZM119.152 47.4695V44.0118H119.825V47.4695H119.152ZM119.492 43.4783C119.375 43.4783 119.275 43.4393 119.191 43.3612C119.108 43.2817 119.067 43.1872 119.067 43.0776C119.067 42.9666 119.108 42.872 119.191 42.794C119.275 42.7144 119.375 42.6747 119.492 42.6747C119.609 42.6747 119.709 42.7144 119.792 42.794C119.876 42.872 119.918 42.9666 119.918 43.0776C119.918 43.1872 119.876 43.2817 119.792 43.3612C119.709 43.4393 119.609 43.4783 119.492 43.4783ZM121.404 42.8593V47.4695H120.731V42.8593H121.404ZM123.8 47.5393C123.459 47.5393 123.166 47.4665 122.92 47.3209C122.675 47.1738 122.486 46.9675 122.352 46.7019C122.22 46.4347 122.154 46.1218 122.154 45.7632C122.154 45.409 122.22 45.0968 122.352 44.8267C122.486 44.5566 122.672 44.3457 122.911 44.1941C123.151 44.0426 123.431 43.9668 123.752 43.9668C123.948 43.9668 124.137 43.9991 124.32 44.0636C124.503 44.1281 124.667 44.2294 124.813 44.3675C124.958 44.5055 125.073 44.6849 125.157 44.9055C125.241 45.1246 125.283 45.391 125.283 45.7046V45.9432H122.535V45.439H124.624C124.624 45.2619 124.588 45.1051 124.516 44.9685C124.444 44.8305 124.342 44.7217 124.212 44.6421C124.083 44.5626 123.931 44.5228 123.757 44.5228C123.568 44.5228 123.403 44.5693 123.262 44.6624C123.122 44.7539 123.014 44.874 122.938 45.0225C122.863 45.1696 122.825 45.3294 122.825 45.502V45.896C122.825 46.1271 122.866 46.3237 122.947 46.4858C123.029 46.6478 123.144 46.7716 123.291 46.8572C123.438 46.9412 123.61 46.9832 123.806 46.9832C123.934 46.9832 124.05 46.9652 124.155 46.9292C124.26 46.8917 124.351 46.8362 124.428 46.7626C124.504 46.6891 124.563 46.5983 124.603 46.4903L125.24 46.6051C125.189 46.7927 125.098 46.957 124.966 47.0981C124.835 47.2376 124.671 47.3464 124.473 47.4245C124.276 47.501 124.052 47.5393 123.8 47.5393Z" fill="#333333"/>
<path d="M166.158 426.644V420.497H168.349C168.827 420.497 169.223 420.584 169.537 420.758C169.852 420.932 170.087 421.17 170.243 421.473C170.399 421.773 170.477 422.111 170.477 422.487C170.477 422.865 170.398 423.205 170.24 423.508C170.084 423.808 169.848 424.046 169.531 424.222C169.217 424.396 168.822 424.483 168.346 424.483H166.839V423.697H168.262C168.564 423.697 168.809 423.645 168.997 423.541C169.185 423.434 169.323 423.29 169.411 423.108C169.499 422.926 169.543 422.719 169.543 422.487C169.543 422.255 169.499 422.049 169.411 421.869C169.323 421.689 169.184 421.548 168.994 421.446C168.806 421.343 168.558 421.292 168.25 421.292H167.085V426.644H166.158ZM171.492 426.644V422.034H172.359V422.766H172.408C172.492 422.518 172.64 422.323 172.852 422.181C173.066 422.037 173.308 421.965 173.578 421.965C173.634 421.965 173.7 421.967 173.776 421.971C173.854 421.975 173.915 421.98 173.959 421.986V422.844C173.923 422.834 173.859 422.823 173.767 422.811C173.675 422.797 173.583 422.79 173.491 422.79C173.279 422.79 173.09 422.835 172.924 422.925C172.76 423.013 172.63 423.136 172.534 423.294C172.438 423.45 172.39 423.629 172.39 423.829V426.644H171.492ZM176.513 426.737C176.081 426.737 175.703 426.638 175.381 426.44C175.059 426.242 174.809 425.965 174.631 425.609C174.453 425.252 174.364 424.836 174.364 424.36C174.364 423.882 174.453 423.464 174.631 423.105C174.809 422.747 175.059 422.469 175.381 422.271C175.703 422.073 176.081 421.974 176.513 421.974C176.945 421.974 177.322 422.073 177.644 422.271C177.966 422.469 178.217 422.747 178.395 423.105C178.573 423.464 178.662 423.882 178.662 424.36C178.662 424.836 178.573 425.252 178.395 425.609C178.217 425.965 177.966 426.242 177.644 426.44C177.322 426.638 176.945 426.737 176.513 426.737ZM176.516 425.984C176.796 425.984 177.028 425.91 177.212 425.762C177.396 425.614 177.532 425.416 177.62 425.17C177.71 424.924 177.755 424.653 177.755 424.357C177.755 424.063 177.71 423.793 177.62 423.547C177.532 423.298 177.396 423.099 177.212 422.949C177.028 422.799 176.796 422.724 176.516 422.724C176.234 422.724 176 422.799 175.813 422.949C175.629 423.099 175.492 423.298 175.402 423.547C175.314 423.793 175.27 424.063 175.27 424.357C175.27 424.653 175.314 424.924 175.402 425.17C175.492 425.416 175.629 425.614 175.813 425.762C176 425.91 176.234 425.984 176.516 425.984ZM181.858 422.034V422.754H179.252V422.034H181.858ZM179.967 426.644V421.5C179.967 421.211 180.03 420.972 180.156 420.782C180.282 420.59 180.449 420.447 180.657 420.353C180.865 420.257 181.091 420.209 181.335 420.209C181.515 420.209 181.67 420.224 181.798 420.254C181.926 420.282 182.021 420.308 182.083 420.332L181.873 421.058C181.831 421.046 181.777 421.032 181.711 421.016C181.644 420.998 181.564 420.989 181.47 420.989C181.252 420.989 181.096 421.043 181.002 421.151C180.91 421.259 180.864 421.416 180.864 421.62V426.644H179.967ZM182.784 426.644V422.034H183.681V426.644H182.784ZM183.237 421.322C183.081 421.322 182.947 421.27 182.835 421.166C182.725 421.06 182.669 420.934 182.669 420.788C182.669 420.64 182.725 420.514 182.835 420.41C182.947 420.304 183.081 420.251 183.237 420.251C183.393 420.251 183.526 420.304 183.636 420.41C183.748 420.514 183.804 420.64 183.804 420.788C183.804 420.934 183.748 421.06 183.636 421.166C183.526 421.27 183.393 421.322 183.237 421.322ZM185.786 420.497V426.644H184.888V420.497H185.786ZM188.98 426.737C188.526 426.737 188.135 426.64 187.806 426.446C187.48 426.25 187.228 425.975 187.05 425.621C186.874 425.264 186.786 424.847 186.786 424.369C186.786 423.897 186.874 423.481 187.05 423.12C187.228 422.76 187.476 422.479 187.794 422.277C188.115 422.075 188.489 421.974 188.917 421.974C189.177 421.974 189.429 422.017 189.673 422.103C189.917 422.189 190.137 422.324 190.331 422.508C190.525 422.692 190.678 422.931 190.79 423.225C190.902 423.518 190.958 423.873 190.958 424.291V424.609H187.293V423.937H190.079C190.079 423.701 190.031 423.492 189.934 423.309C189.838 423.125 189.703 422.98 189.529 422.874C189.357 422.768 189.155 422.715 188.923 422.715C188.671 422.715 188.451 422.777 188.263 422.901C188.077 423.023 187.933 423.183 187.83 423.381C187.73 423.578 187.68 423.791 187.68 424.021V424.546C187.68 424.854 187.734 425.116 187.842 425.332C187.953 425.549 188.106 425.714 188.302 425.828C188.498 425.94 188.727 425.996 188.989 425.996C189.159 425.996 189.314 425.972 189.454 425.924C189.594 425.874 189.715 425.8 189.817 425.702C189.919 425.604 189.998 425.482 190.052 425.338L190.901 425.491C190.833 425.742 190.711 425.961 190.535 426.149C190.361 426.335 190.142 426.48 189.877 426.584C189.615 426.686 189.316 426.737 188.98 426.737Z" fill="white"/>
<path d="M38.1817 418.616L35.3344 420.835C34.859 421.204 34.4734 421.991 34.4734 422.588V426.503C34.4734 427.728 35.4718 428.732 36.6973 428.732H42.8145C44.0401 428.732 45.0385 427.728 45.0385 426.508V422.662C45.0385 422.023 44.6106 421.204 44.0876 420.84L40.823 418.553C40.0835 418.035 38.8949 418.061 38.1817 418.616Z" stroke="white" stroke-width="0.792383" stroke-linecap="round" stroke-linejoin="round"/>
<path d="M153.924 423.867C153.887 423.862 153.839 423.862 153.797 423.867C152.867 423.835 152.128 423.074 152.128 422.139C152.128 421.183 152.899 420.407 153.86 420.407C154.817 420.407 155.593 421.183 155.593 422.139C155.588 423.074 154.853 423.835 153.924 423.867Z" stroke="white" stroke-width="0.792383" stroke-linecap="round" stroke-linejoin="round"/>
<path d="M157.421 427.353C156.48 428.214 155.234 428.737 153.86 428.737C152.487 428.737 151.24 428.214 150.3 427.353C150.353 426.857 150.67 426.371 151.235 425.99C152.682 425.029 155.049 425.029 156.486 425.99C157.051 426.371 157.368 426.857 157.421 427.353Z" stroke="white" stroke-width="0.792383" stroke-linecap="round" stroke-linejoin="round"/>
<path d="M153.86 428.737C156.778 428.737 159.143 426.372 159.143 423.455C159.143 420.537 156.778 418.172 153.86 418.172C150.943 418.172 148.578 420.537 148.578 423.455C148.578 426.372 150.943 428.737 153.86 428.737Z" stroke="white" stroke-width="0.792383" stroke-linecap="round" stroke-linejoin="round"/>
<path d="M73.3643 421.601C74.405 417.026 81.1825 417.031 82.2179 421.606C82.8254 424.289 81.1561 426.561 79.6928 427.966C78.631 428.991 76.9512 428.991 75.8841 427.966C74.4261 426.561 72.7568 424.284 73.3643 421.601Z" stroke="white" stroke-width="0.792383"/>
<path d="M76.3386 423.191L77.131 423.983L79.244 421.87" stroke="white" stroke-width="0.792383" stroke-linecap="round" stroke-linejoin="round"/>
<path d="M110.543 423.777H119.523" stroke="white" stroke-width="0.792383" stroke-miterlimit="10" stroke-linecap="round" stroke-linejoin="round"/>
<path d="M119.523 422.546V426.323C119.507 427.829 119.095 428.209 117.526 428.209H112.54C110.944 428.209 110.543 427.813 110.543 426.239V422.546C110.543 421.12 110.876 420.66 112.128 420.586C112.255 420.581 112.392 420.576 112.54 420.576H117.526C119.122 420.576 119.523 420.972 119.523 422.546Z" stroke="white" stroke-width="0.792383" stroke-linecap="round" stroke-linejoin="round"/>
<path d="M121.108 420.671V424.363C121.108 425.79 120.775 426.249 119.524 426.323V422.546C119.524 420.972 119.122 420.576 117.527 420.576H112.54C112.392 420.576 112.255 420.581 112.128 420.586C112.144 419.081 112.556 418.7 114.125 418.7H119.111C120.707 418.7 121.108 419.097 121.108 420.671Z" stroke="white" stroke-width="0.792383" stroke-linecap="round" stroke-linejoin="round"/>
<path d="M112.26 426.524H113.169" stroke="white" stroke-width="0.792383" stroke-miterlimit="10" stroke-linecap="round" stroke-linejoin="round"/>
<path d="M114.299 426.524H116.116" stroke="white" stroke-width="0.792383" stroke-miterlimit="10" stroke-linecap="round" stroke-linejoin="round"/>
<rect x="83.0742" y="213.737" width="57.3563" height="27.7346" rx="13.8673" fill="#333333"/>
<path d="M99.7804 226.072C99.7484 225.788 99.6163 225.568 99.3842 225.412C99.1521 225.254 98.8599 225.175 98.5078 225.175C98.2557 225.175 98.0375 225.215 97.8535 225.295C97.6694 225.373 97.5263 225.481 97.4243 225.619C97.3242 225.755 97.2742 225.91 97.2742 226.084C97.2742 226.23 97.3082 226.356 97.3762 226.462C97.4463 226.568 97.5373 226.657 97.6494 226.73C97.7634 226.8 97.8855 226.859 98.0155 226.907C98.1456 226.953 98.2707 226.991 98.3907 227.021L98.991 227.177C99.1871 227.225 99.3882 227.29 99.5943 227.372C99.8004 227.454 99.9915 227.562 100.168 227.696C100.344 227.83 100.486 227.996 100.594 228.194C100.704 228.392 100.759 228.629 100.759 228.906C100.759 229.254 100.669 229.563 100.489 229.833C100.311 230.103 100.052 230.316 99.7114 230.472C99.3732 230.628 98.964 230.706 98.4838 230.706C98.0235 230.706 97.6253 230.633 97.2892 230.487C96.953 230.341 96.6899 230.134 96.4998 229.866C96.3097 229.596 96.2047 229.276 96.1847 228.906H97.1151C97.1331 229.128 97.2051 229.313 97.3312 229.461C97.4593 229.607 97.6223 229.716 97.8204 229.788C98.0205 229.858 98.2396 229.893 98.4778 229.893C98.7399 229.893 98.973 229.852 99.1771 229.77C99.3832 229.686 99.5453 229.57 99.6633 229.422C99.7814 229.272 99.8404 229.097 99.8404 228.897C99.8404 228.714 99.7884 228.565 99.6843 228.449C99.5823 228.333 99.4432 228.237 99.2671 228.161C99.0931 228.085 98.896 228.018 98.6759 227.96L97.9495 227.762C97.4573 227.628 97.0671 227.431 96.7789 227.171C96.4928 226.911 96.3497 226.566 96.3497 226.138C96.3497 225.784 96.4458 225.475 96.6379 225.211C96.83 224.947 97.0901 224.742 97.4182 224.595C97.7464 224.447 98.1166 224.373 98.5288 224.373C98.945 224.373 99.3122 224.446 99.6303 224.592C99.9505 224.739 100.203 224.94 100.387 225.196C100.571 225.45 100.667 225.742 100.675 226.072H99.7804ZM101.795 230.604V225.994H102.693V230.604H101.795ZM102.248 225.283C102.092 225.283 101.958 225.231 101.846 225.127C101.736 225.021 101.681 224.895 101.681 224.749C101.681 224.6 101.736 224.474 101.846 224.37C101.958 224.264 102.092 224.211 102.248 224.211C102.404 224.211 102.537 224.264 102.648 224.37C102.76 224.474 102.816 224.6 102.816 224.749C102.816 224.895 102.76 225.021 102.648 225.127C102.537 225.231 102.404 225.283 102.248 225.283ZM105.833 232.429C105.467 232.429 105.151 232.381 104.887 232.285C104.625 232.189 104.411 232.062 104.245 231.904C104.079 231.746 103.955 231.573 103.873 231.385L104.644 231.067C104.698 231.155 104.77 231.248 104.86 231.346C104.952 231.446 105.076 231.531 105.233 231.601C105.391 231.671 105.594 231.706 105.842 231.706C106.182 231.706 106.463 231.623 106.685 231.457C106.907 231.293 107.018 231.031 107.018 230.67V229.764H106.961C106.907 229.862 106.829 229.971 106.727 230.091C106.627 230.211 106.489 230.315 106.313 230.403C106.137 230.491 105.908 230.535 105.626 230.535C105.262 230.535 104.933 230.45 104.641 230.28C104.351 230.108 104.121 229.855 103.951 229.521C103.783 229.185 103.699 228.771 103.699 228.281C103.699 227.791 103.782 227.371 103.948 227.021C104.116 226.67 104.346 226.402 104.638 226.216C104.93 226.028 105.262 225.934 105.632 225.934C105.918 225.934 106.149 225.982 106.325 226.078C106.501 226.172 106.638 226.282 106.736 226.408C106.836 226.534 106.913 226.645 106.967 226.742H107.033V225.994H107.913V230.706C107.913 231.103 107.821 231.428 107.637 231.682C107.453 231.936 107.203 232.124 106.889 232.246C106.577 232.368 106.225 232.429 105.833 232.429ZM105.824 229.791C106.082 229.791 106.3 229.731 106.478 229.611C106.658 229.489 106.794 229.315 106.886 229.089C106.98 228.861 107.027 228.587 107.027 228.269C107.027 227.959 106.981 227.686 106.889 227.45C106.797 227.214 106.662 227.03 106.484 226.898C106.306 226.764 106.086 226.696 105.824 226.696C105.554 226.696 105.329 226.767 105.148 226.907C104.968 227.045 104.832 227.233 104.74 227.471C104.65 227.709 104.605 227.975 104.605 228.269C104.605 228.571 104.651 228.837 104.743 229.065C104.835 229.293 104.971 229.471 105.151 229.599C105.334 229.727 105.558 229.791 105.824 229.791ZM110.014 227.867V230.604H109.116V225.994H109.978V226.745H110.035C110.141 226.5 110.307 226.304 110.533 226.156C110.761 226.008 111.048 225.934 111.395 225.934C111.709 225.934 111.984 226 112.22 226.132C112.456 226.262 112.639 226.456 112.769 226.715C112.899 226.973 112.964 227.292 112.964 227.672V230.604H112.067V227.78C112.067 227.446 111.98 227.185 111.806 226.997C111.632 226.807 111.393 226.712 111.088 226.712C110.88 226.712 110.695 226.757 110.533 226.847C110.373 226.937 110.246 227.069 110.152 227.243C110.06 227.415 110.014 227.623 110.014 227.867ZM120.43 224.457H121.36V228.5C121.36 228.931 121.259 229.312 121.057 229.644C120.855 229.974 120.571 230.234 120.205 230.424C119.838 230.612 119.409 230.706 118.917 230.706C118.427 230.706 117.998 230.612 117.632 230.424C117.266 230.234 116.982 229.974 116.78 229.644C116.578 229.312 116.477 228.931 116.477 228.5V224.457H117.404V228.425C117.404 228.703 117.465 228.951 117.587 229.167C117.711 229.383 117.886 229.553 118.113 229.677C118.339 229.799 118.607 229.86 118.917 229.86C119.229 229.86 119.498 229.799 119.724 229.677C119.952 229.553 120.126 229.383 120.247 229.167C120.369 228.951 120.43 228.703 120.43 228.425V224.457ZM122.636 232.333V225.994H123.513V226.742H123.588C123.64 226.645 123.715 226.534 123.813 226.408C123.911 226.282 124.047 226.172 124.221 226.078C124.395 225.982 124.625 225.934 124.912 225.934C125.284 225.934 125.616 226.028 125.908 226.216C126.2 226.404 126.429 226.675 126.595 227.03C126.763 227.384 126.847 227.81 126.847 228.308C126.847 228.807 126.764 229.234 126.598 229.59C126.432 229.944 126.204 230.217 125.914 230.409C125.624 230.599 125.293 230.694 124.921 230.694C124.64 230.694 124.411 230.647 124.233 230.553C124.057 230.459 123.919 230.349 123.819 230.223C123.719 230.097 123.642 229.985 123.588 229.887H123.534V232.333H122.636ZM123.516 228.299C123.516 228.623 123.563 228.908 123.657 229.152C123.751 229.396 123.887 229.587 124.065 229.725C124.243 229.861 124.461 229.929 124.719 229.929C124.988 229.929 125.212 229.858 125.392 229.716C125.572 229.572 125.708 229.377 125.8 229.131C125.894 228.885 125.941 228.607 125.941 228.299C125.941 227.995 125.895 227.722 125.803 227.48C125.713 227.238 125.577 227.047 125.395 226.907C125.215 226.767 124.99 226.696 124.719 226.696C124.459 226.696 124.239 226.764 124.059 226.898C123.881 227.032 123.746 227.219 123.654 227.459C123.562 227.699 123.516 227.979 123.516 228.299Z" fill="white"/>
<rect x="71.4521" y="361.12" width="80.3563" height="27.7346" rx="13.8673" fill="#333333"/>
<path d="M86.7957 377.988H84.8057V371.841H86.8587C87.461 371.841 87.9782 371.964 88.4104 372.21C88.8427 372.454 89.1738 372.805 89.4039 373.263C89.636 373.72 89.7521 374.267 89.7521 374.905C89.7521 375.545 89.635 376.096 89.4009 376.556C89.1688 377.016 88.8326 377.37 88.3924 377.618C87.9522 377.865 87.42 377.988 86.7957 377.988ZM85.7331 377.177H86.7446C87.2129 377.177 87.6021 377.089 87.9122 376.913C88.2224 376.735 88.4545 376.478 88.6085 376.142C88.7626 375.804 88.8396 375.391 88.8396 374.905C88.8396 374.423 88.7626 374.014 88.6085 373.678C88.4565 373.341 88.2294 373.086 87.9272 372.912C87.6251 372.738 87.2499 372.651 86.8017 372.651H85.7331V377.177ZM92.8203 378.081C92.3661 378.081 91.9749 377.984 91.6468 377.79C91.3206 377.593 91.0685 377.318 90.8904 376.964C90.7143 376.608 90.6263 376.191 90.6263 375.713C90.6263 375.24 90.7143 374.824 90.8904 374.464C91.0685 374.104 91.3166 373.823 91.6348 373.621C91.9549 373.418 92.3291 373.317 92.7573 373.317C93.0174 373.317 93.2695 373.36 93.5137 373.446C93.7578 373.533 93.9769 373.668 94.171 373.852C94.3651 374.036 94.5181 374.275 94.6302 374.569C94.7423 374.861 94.7983 375.216 94.7983 375.635V375.953H91.1335V375.28H93.9189C93.9189 375.044 93.8708 374.835 93.7748 374.653C93.6787 374.469 93.5437 374.324 93.3696 374.218C93.1975 374.112 92.9954 374.059 92.7633 374.059C92.5112 374.059 92.2911 374.121 92.103 374.245C91.9169 374.367 91.7728 374.527 91.6708 374.725C91.5707 374.921 91.5207 375.134 91.5207 375.364V375.89C91.5207 376.198 91.5747 376.46 91.6828 376.676C91.7928 376.892 91.9459 377.057 92.142 377.171C92.3381 377.283 92.5672 377.339 92.8293 377.339C92.9994 377.339 93.1545 377.315 93.2946 377.267C93.4346 377.217 93.5557 377.143 93.6577 377.045C93.7598 376.947 93.8378 376.826 93.8918 376.682L94.7413 376.835C94.6732 377.085 94.5512 377.304 94.3751 377.492C94.201 377.679 93.9819 377.824 93.7178 377.928C93.4556 378.03 93.1565 378.081 92.8203 378.081ZM96.6914 371.841V377.988H95.794V371.841H96.6914ZM99.8857 378.081C99.4315 378.081 99.0403 377.984 98.7122 377.79C98.386 377.593 98.1339 377.318 97.9558 376.964C97.7797 376.608 97.6917 376.191 97.6917 375.713C97.6917 375.24 97.7797 374.824 97.9558 374.464C98.1339 374.104 98.382 373.823 98.7002 373.621C99.0203 373.418 99.3945 373.317 99.8227 373.317C100.083 373.317 100.335 373.36 100.579 373.446C100.823 373.533 101.042 373.668 101.236 373.852C101.43 374.036 101.584 374.275 101.696 374.569C101.808 374.861 101.864 375.216 101.864 375.635V375.953H98.1989V375.28H100.984C100.984 375.044 100.936 374.835 100.84 374.653C100.744 374.469 100.609 374.324 100.435 374.218C100.263 374.112 100.061 374.059 99.8287 374.059C99.5766 374.059 99.3565 374.121 99.1684 374.245C98.9823 374.367 98.8382 374.527 98.7362 374.725C98.6361 374.921 98.5861 375.134 98.5861 375.364V375.89C98.5861 376.198 98.6401 376.46 98.7482 376.676C98.8582 376.892 99.0113 377.057 99.2074 377.171C99.4035 377.283 99.6326 377.339 99.8947 377.339C100.065 377.339 100.22 377.315 100.36 377.267C100.5 377.217 100.621 377.143 100.723 377.045C100.825 376.947 100.903 376.826 100.957 376.682L101.807 376.835C101.739 377.085 101.617 377.304 101.44 377.492C101.266 377.679 101.047 377.824 100.783 377.928C100.521 378.03 100.222 378.081 99.8857 378.081ZM105.011 373.377V374.098H102.493V373.377H105.011ZM103.169 372.273H104.066V376.634C104.066 376.808 104.092 376.939 104.144 377.027C104.196 377.113 104.263 377.172 104.345 377.204C104.429 377.234 104.52 377.249 104.618 377.249C104.69 377.249 104.753 377.244 104.807 377.234C104.861 377.224 104.903 377.216 104.933 377.21L105.096 377.952C105.043 377.972 104.969 377.992 104.873 378.012C104.777 378.034 104.657 378.046 104.513 378.048C104.277 378.052 104.057 378.01 103.853 377.922C103.649 377.834 103.484 377.698 103.358 377.513C103.232 377.329 103.169 377.098 103.169 376.82V372.273ZM107.942 378.081C107.487 378.081 107.096 377.984 106.768 377.79C106.442 377.593 106.19 377.318 106.012 376.964C105.836 376.608 105.748 376.191 105.748 375.713C105.748 375.24 105.836 374.824 106.012 374.464C106.19 374.104 106.438 373.823 106.756 373.621C107.076 373.418 107.45 373.317 107.879 373.317C108.139 373.317 108.391 373.36 108.635 373.446C108.879 373.533 109.098 373.668 109.292 373.852C109.486 374.036 109.639 374.275 109.752 374.569C109.864 374.861 109.92 375.216 109.92 375.635V375.953H106.255V375.28H109.04C109.04 375.044 108.992 374.835 108.896 374.653C108.8 374.469 108.665 374.324 108.491 374.218C108.319 374.112 108.117 374.059 107.885 374.059C107.632 374.059 107.412 374.121 107.224 374.245C107.038 374.367 106.894 374.527 106.792 374.725C106.692 374.921 106.642 375.134 106.642 375.364V375.89C106.642 376.198 106.696 376.46 106.804 376.676C106.914 376.892 107.067 377.057 107.263 377.171C107.459 377.283 107.689 377.339 107.951 377.339C108.121 377.339 108.276 377.315 108.416 377.267C108.556 377.217 108.677 377.143 108.779 377.045C108.881 376.947 108.959 376.826 109.013 376.682L109.863 376.835C109.795 377.085 109.672 377.304 109.496 377.492C109.322 377.679 109.103 377.824 108.839 377.928C108.577 378.03 108.278 378.081 107.942 378.081ZM113.224 377.988V371.841H115.415C115.893 371.841 116.29 371.928 116.604 372.102C116.918 372.276 117.153 372.514 117.309 372.816C117.465 373.116 117.543 373.454 117.543 373.831C117.543 374.209 117.464 374.549 117.306 374.851C117.15 375.151 116.914 375.389 116.598 375.565C116.284 375.74 115.888 375.827 115.412 375.827H113.906V375.04H115.328C115.63 375.04 115.875 374.988 116.064 374.884C116.252 374.778 116.39 374.634 116.478 374.452C116.566 374.27 116.61 374.063 116.61 373.831C116.61 373.599 116.566 373.392 116.478 373.212C116.39 373.032 116.251 372.891 116.061 372.789C115.872 372.687 115.624 372.636 115.316 372.636H114.152V377.988H113.224ZM118.559 377.988V373.377H119.426V374.11H119.474C119.558 373.862 119.706 373.667 119.918 373.525C120.132 373.38 120.374 373.308 120.645 373.308C120.701 373.308 120.767 373.31 120.843 373.314C120.921 373.318 120.982 373.323 121.026 373.329V374.188C120.99 374.178 120.926 374.167 120.834 374.155C120.742 374.141 120.65 374.134 120.557 374.134C120.345 374.134 120.156 374.179 119.99 374.269C119.826 374.357 119.696 374.48 119.6 374.638C119.504 374.794 119.456 374.972 119.456 375.172V377.988H118.559ZM123.579 378.081C123.147 378.081 122.77 377.982 122.448 377.784C122.125 377.585 121.875 377.308 121.697 376.952C121.519 376.596 121.43 376.18 121.43 375.704C121.43 375.225 121.519 374.807 121.697 374.449C121.875 374.091 122.125 373.813 122.448 373.615C122.77 373.416 123.147 373.317 123.579 373.317C124.011 373.317 124.389 373.416 124.711 373.615C125.033 373.813 125.283 374.091 125.461 374.449C125.639 374.807 125.728 375.225 125.728 375.704C125.728 376.18 125.639 376.596 125.461 376.952C125.283 377.308 125.033 377.585 124.711 377.784C124.389 377.982 124.011 378.081 123.579 378.081ZM123.582 377.327C123.862 377.327 124.094 377.253 124.279 377.105C124.463 376.957 124.599 376.76 124.687 376.514C124.777 376.268 124.822 375.997 124.822 375.701C124.822 375.406 124.777 375.136 124.687 374.89C124.599 374.642 124.463 374.443 124.279 374.293C124.094 374.143 123.862 374.068 123.582 374.068C123.3 374.068 123.066 374.143 122.88 374.293C122.696 374.443 122.559 374.642 122.469 374.89C122.381 375.136 122.337 375.406 122.337 375.701C122.337 375.997 122.381 376.268 122.469 376.514C122.559 376.76 122.696 376.957 122.88 377.105C123.066 377.253 123.3 377.327 123.582 377.327ZM128.924 373.377V374.098H126.319V373.377H128.924ZM127.033 377.988V372.843C127.033 372.555 127.096 372.316 127.222 372.126C127.348 371.934 127.515 371.791 127.723 371.697C127.932 371.601 128.158 371.553 128.402 371.553C128.582 371.553 128.736 371.568 128.864 371.598C128.992 371.626 129.087 371.652 129.149 371.676L128.939 372.402C128.897 372.39 128.843 372.376 128.777 372.36C128.711 372.342 128.631 372.333 128.537 372.333C128.319 372.333 128.163 372.387 128.069 372.495C127.977 372.603 127.931 372.759 127.931 372.963V377.988H127.033ZM129.85 377.988V373.377H130.747V377.988H129.85ZM130.303 372.666C130.147 372.666 130.013 372.614 129.901 372.51C129.791 372.404 129.736 372.278 129.736 372.132C129.736 371.984 129.791 371.858 129.901 371.754C130.013 371.648 130.147 371.595 130.303 371.595C130.459 371.595 130.592 371.648 130.702 371.754C130.814 371.858 130.87 371.984 130.87 372.132C130.87 372.278 130.814 372.404 130.702 372.51C130.592 372.614 130.459 372.666 130.303 372.666ZM132.852 371.841V377.988H131.955V371.841H132.852ZM136.046 378.081C135.592 378.081 135.201 377.984 134.873 377.79C134.547 377.593 134.295 377.318 134.117 376.964C133.94 376.608 133.852 376.191 133.852 375.713C133.852 375.24 133.94 374.824 134.117 374.464C134.295 374.104 134.543 373.823 134.861 373.621C135.181 373.418 135.555 373.317 135.983 373.317C136.244 373.317 136.496 373.36 136.74 373.446C136.984 373.533 137.203 373.668 137.397 373.852C137.591 374.036 137.744 374.275 137.856 374.569C137.968 374.861 138.024 375.216 138.024 375.635V375.953H134.36V375.28H137.145C137.145 375.044 137.097 374.835 137.001 374.653C136.905 374.469 136.77 374.324 136.596 374.218C136.424 374.112 136.222 374.059 135.989 374.059C135.737 374.059 135.517 374.121 135.329 374.245C135.143 374.367 134.999 374.527 134.897 374.725C134.797 374.921 134.747 375.134 134.747 375.364V375.89C134.747 376.198 134.801 376.46 134.909 376.676C135.019 376.892 135.172 377.057 135.368 377.171C135.564 377.283 135.793 377.339 136.055 377.339C136.226 377.339 136.381 377.315 136.521 377.267C136.661 377.217 136.782 377.143 136.884 377.045C136.986 376.947 137.064 376.826 137.118 376.682L137.967 376.835C137.899 377.085 137.777 377.304 137.601 377.492C137.427 377.679 137.208 377.824 136.944 377.928C136.682 378.03 136.383 378.081 136.046 378.081Z" fill="white"/>
<g filter="url(#filter1_b_1_2672)">
<rect x="12.2871" y="13" width="198.096" height="428.943" fill="#252525" fill-opacity="0.5"/>
</g>
<rect x="20.7402" y="160.383" width="181.192" height="99.312" rx="21.1302" fill="white"/>
<path d="M105.759 284.621H104.823C104.787 284.421 104.72 284.245 104.622 284.093C104.524 283.941 104.404 283.812 104.262 283.706C104.12 283.6 103.96 283.52 103.784 283.466C103.61 283.412 103.425 283.385 103.229 283.385C102.875 283.385 102.558 283.474 102.278 283.652C101.999 283.83 101.779 284.091 101.617 284.435C101.457 284.779 101.377 285.199 101.377 285.696C101.377 286.196 101.457 286.618 101.617 286.962C101.779 287.306 102 287.567 102.281 287.743C102.561 287.919 102.876 288.007 103.226 288.007C103.42 288.007 103.604 287.981 103.778 287.929C103.954 287.875 104.114 287.796 104.256 287.692C104.398 287.588 104.518 287.461 104.616 287.31C104.716 287.158 104.785 286.984 104.823 286.788L105.759 286.791C105.709 287.093 105.612 287.371 105.468 287.626C105.326 287.878 105.143 288.096 104.919 288.28C104.697 288.462 104.443 288.603 104.157 288.703C103.87 288.803 103.558 288.853 103.22 288.853C102.688 288.853 102.214 288.727 101.797 288.475C101.381 288.221 101.053 287.858 100.813 287.385C100.575 286.913 100.456 286.35 100.456 285.696C100.456 285.039 100.576 284.476 100.816 284.006C101.056 283.534 101.384 283.171 101.8 282.919C102.217 282.665 102.69 282.538 103.22 282.538C103.546 282.538 103.85 282.585 104.133 282.679C104.417 282.771 104.672 282.907 104.898 283.087C105.124 283.266 105.311 283.484 105.459 283.742C105.607 283.998 105.707 284.291 105.759 284.621ZM107.694 282.622V288.769H106.797V282.622H107.694ZM110.844 288.862C110.412 288.862 110.034 288.763 109.712 288.565C109.39 288.367 109.14 288.09 108.962 287.734C108.784 287.377 108.695 286.961 108.695 286.485C108.695 286.007 108.784 285.589 108.962 285.23C109.14 284.872 109.39 284.594 109.712 284.396C110.034 284.198 110.412 284.099 110.844 284.099C111.276 284.099 111.653 284.198 111.975 284.396C112.297 284.594 112.548 284.872 112.726 285.23C112.904 285.589 112.993 286.007 112.993 286.485C112.993 286.961 112.904 287.377 112.726 287.734C112.548 288.09 112.297 288.367 111.975 288.565C111.653 288.763 111.276 288.862 110.844 288.862ZM110.847 288.109C111.127 288.109 111.359 288.035 111.543 287.887C111.727 287.739 111.863 287.542 111.951 287.295C112.041 287.049 112.086 286.778 112.086 286.482C112.086 286.188 112.041 285.918 111.951 285.672C111.863 285.424 111.727 285.224 111.543 285.074C111.359 284.924 111.127 284.849 110.847 284.849C110.565 284.849 110.331 284.924 110.144 285.074C109.96 285.224 109.823 285.424 109.733 285.672C109.645 285.918 109.601 286.188 109.601 286.482C109.601 286.778 109.645 287.049 109.733 287.295C109.823 287.542 109.96 287.739 110.144 287.887C110.331 288.035 110.565 288.109 110.847 288.109ZM117.449 285.284L116.636 285.429C116.602 285.324 116.548 285.225 116.474 285.131C116.402 285.037 116.304 284.96 116.18 284.9C116.056 284.84 115.9 284.81 115.714 284.81C115.46 284.81 115.248 284.867 115.078 284.981C114.908 285.093 114.823 285.238 114.823 285.417C114.823 285.571 114.88 285.695 114.994 285.789C115.108 285.883 115.292 285.96 115.546 286.02L116.279 286.188C116.703 286.286 117.019 286.437 117.227 286.641C117.435 286.845 117.539 287.11 117.539 287.437C117.539 287.713 117.459 287.959 117.299 288.175C117.141 288.389 116.92 288.557 116.636 288.679C116.354 288.801 116.027 288.862 115.654 288.862C115.138 288.862 114.717 288.752 114.391 288.532C114.065 288.31 113.864 287.995 113.79 287.587L114.658 287.455C114.712 287.681 114.823 287.852 114.991 287.968C115.159 288.082 115.378 288.139 115.648 288.139C115.942 288.139 116.178 288.078 116.354 287.956C116.53 287.832 116.618 287.681 116.618 287.503C116.618 287.358 116.564 287.237 116.456 287.139C116.35 287.041 116.187 286.967 115.966 286.917L115.186 286.746C114.756 286.648 114.438 286.492 114.232 286.278C114.028 286.064 113.926 285.793 113.926 285.465C113.926 285.192 114.002 284.954 114.154 284.75C114.306 284.546 114.516 284.387 114.784 284.273C115.052 284.157 115.359 284.099 115.705 284.099C116.204 284.099 116.596 284.207 116.882 284.423C117.168 284.637 117.357 284.924 117.449 285.284ZM120.513 288.862C120.059 288.862 119.668 288.765 119.339 288.571C119.013 288.375 118.761 288.1 118.583 287.746C118.407 287.389 118.319 286.972 118.319 286.494C118.319 286.022 118.407 285.606 118.583 285.245C118.761 284.885 119.009 284.604 119.327 284.402C119.648 284.2 120.022 284.099 120.45 284.099C120.71 284.099 120.962 284.142 121.206 284.228C121.45 284.314 121.67 284.449 121.864 284.633C122.058 284.817 122.211 285.056 122.323 285.351C122.435 285.643 122.491 285.998 122.491 286.416V286.734H118.826V286.062H121.611C121.611 285.826 121.563 285.617 121.467 285.435C121.371 285.25 121.236 285.105 121.062 284.999C120.89 284.893 120.688 284.84 120.456 284.84C120.204 284.84 119.984 284.902 119.796 285.026C119.61 285.148 119.465 285.308 119.363 285.507C119.263 285.703 119.213 285.916 119.213 286.146V286.671C119.213 286.979 119.267 287.241 119.375 287.458C119.485 287.674 119.639 287.839 119.835 287.953C120.031 288.065 120.26 288.121 120.522 288.121C120.692 288.121 120.847 288.097 120.987 288.049C121.127 287.999 121.248 287.925 121.35 287.827C121.452 287.729 121.53 287.608 121.584 287.464L122.434 287.617C122.366 287.867 122.244 288.086 122.068 288.274C121.894 288.46 121.675 288.605 121.41 288.709C121.148 288.811 120.849 288.862 120.513 288.862Z" fill="white"/>
<path d="M123.222 291.391H99.9785" stroke="white" stroke-width="0.528256" stroke-linecap="round"/>
<rect x="89.4141" y="245.961" width="44.3563" height="27.7346" rx="13.8673" fill="#4FA4FB"/>
<path d="M107.745 256.681V262.828H106.893L103.768 258.32H103.711V262.828H102.784V256.681H103.642L106.769 261.195H106.826V256.681H107.745ZM111.013 262.921C110.559 262.921 110.167 262.824 109.839 262.63C109.513 262.434 109.261 262.159 109.083 261.805C108.907 261.448 108.819 261.031 108.819 260.553C108.819 260.081 108.907 259.665 109.083 259.304C109.261 258.944 109.509 258.663 109.827 258.461C110.147 258.259 110.522 258.158 110.95 258.158C111.21 258.158 111.462 258.201 111.706 258.287C111.95 258.373 112.169 258.508 112.363 258.692C112.558 258.876 112.711 259.115 112.823 259.409C112.935 259.702 112.991 260.057 112.991 260.475V260.793H109.326V260.121H112.111C112.111 259.885 112.063 259.676 111.967 259.493C111.871 259.309 111.736 259.164 111.562 259.058C111.39 258.952 111.188 258.899 110.956 258.899C110.704 258.899 110.484 258.961 110.295 259.085C110.109 259.207 109.965 259.367 109.863 259.565C109.763 259.762 109.713 259.975 109.713 260.205V260.73C109.713 261.038 109.767 261.3 109.875 261.516C109.985 261.733 110.138 261.898 110.334 262.012C110.531 262.124 110.76 262.18 111.022 262.18C111.192 262.18 111.347 262.156 111.487 262.108C111.627 262.058 111.748 261.984 111.85 261.886C111.952 261.788 112.03 261.667 112.084 261.522L112.934 261.676C112.866 261.926 112.744 262.145 112.568 262.333C112.393 262.519 112.174 262.664 111.91 262.768C111.648 262.87 111.349 262.921 111.013 262.921ZM114.587 258.218L115.605 260.013L116.631 258.218H117.613L116.175 260.523L117.625 262.828H116.643L115.605 261.105L114.569 262.828H113.585L115.02 260.523L113.603 258.218H114.587ZM120.686 258.218V258.938H118.168V258.218H120.686ZM118.844 257.113H119.741V261.474C119.741 261.648 119.767 261.78 119.819 261.868C119.871 261.954 119.938 262.013 120.02 262.045C120.104 262.075 120.195 262.09 120.293 262.09C120.365 262.09 120.428 262.085 120.482 262.075C120.536 262.065 120.578 262.057 120.608 262.051L120.77 262.792C120.718 262.812 120.644 262.832 120.548 262.852C120.452 262.874 120.332 262.886 120.188 262.888C119.952 262.892 119.732 262.85 119.528 262.762C119.324 262.674 119.159 262.538 119.033 262.354C118.907 262.17 118.844 261.939 118.844 261.66V257.113Z" fill="white"/>
<path d="M63.6402 195.381L62.3796 190.771H62.9469L63.9103 194.526H63.9553L64.9368 190.771H65.5671L66.5486 194.526H66.5936L67.5571 190.771H68.1244L66.8638 195.381H66.2875L65.27 191.707H65.234L64.2165 195.381H63.6402ZM69.8757 195.453C69.5426 195.453 69.2552 195.379 69.0135 195.232C68.7734 195.084 68.5881 194.877 68.4575 194.611C68.3285 194.344 68.2639 194.033 68.2639 193.679C68.2639 193.325 68.3285 193.013 68.4575 192.743C68.5881 192.471 68.7697 192.259 69.0023 192.108C69.2364 191.955 69.5095 191.878 69.8217 191.878C70.0018 191.878 70.1796 191.908 70.3552 191.968C70.5308 192.028 70.6906 192.126 70.8347 192.261C70.9787 192.395 71.0936 192.572 71.1791 192.792C71.2646 193.013 71.3074 193.284 71.3074 193.607V193.832H68.6421V193.373H70.7671C70.7671 193.178 70.7281 193.004 70.6501 192.851C70.5736 192.698 70.464 192.577 70.3214 192.488C70.1804 192.4 70.0138 192.356 69.8217 192.356C69.6101 192.356 69.427 192.408 69.2724 192.513C69.1193 192.617 69.0015 192.752 68.919 192.918C68.8365 193.085 68.7952 193.263 68.7952 193.454V193.76C68.7952 194.021 68.8402 194.243 68.9303 194.424C69.0218 194.604 69.1486 194.742 69.3107 194.836C69.4728 194.929 69.6611 194.976 69.8757 194.976C70.0153 194.976 70.1413 194.956 70.2539 194.917C70.368 194.877 70.4662 194.817 70.5488 194.737C70.6313 194.656 70.6951 194.556 70.7401 194.436L71.2534 194.58C71.1994 194.754 71.1086 194.907 70.981 195.039C70.8534 195.169 70.6959 195.271 70.5083 195.345C70.3207 195.417 70.1098 195.453 69.8757 195.453ZM74.4297 193.301V195.381H73.8984V190.771H74.4297V192.464H74.4747C74.5557 192.285 74.6773 192.143 74.8394 192.038C75.0029 191.932 75.2205 191.878 75.4922 191.878C75.7278 191.878 75.9341 191.926 76.1112 192.02C76.2883 192.113 76.4256 192.256 76.5232 192.45C76.6222 192.642 76.6718 192.887 76.6718 193.184V195.381H76.1405V193.22C76.1405 192.945 76.0692 192.733 75.9266 192.583C75.7856 192.431 75.5897 192.356 75.3391 192.356C75.165 192.356 75.0089 192.392 74.8709 192.466C74.7343 192.539 74.6263 192.647 74.5467 192.788C74.4687 192.929 74.4297 193.1 74.4297 193.301ZM78.6612 195.462C78.442 195.462 78.2432 195.421 78.0646 195.338C77.886 195.254 77.7442 195.133 77.6392 194.976C77.5341 194.817 77.4816 194.625 77.4816 194.4C77.4816 194.201 77.5206 194.041 77.5986 193.918C77.6767 193.793 77.781 193.696 77.9115 193.625C78.0421 193.555 78.1862 193.502 78.3437 193.468C78.5028 193.432 78.6627 193.403 78.8232 193.382C79.0333 193.355 79.2037 193.335 79.3342 193.321C79.4663 193.306 79.5623 193.281 79.6224 193.247C79.6839 193.212 79.7147 193.152 79.7147 193.067V193.049C79.7147 192.827 79.6539 192.654 79.5323 192.531C79.4123 192.408 79.2299 192.347 78.9853 192.347C78.7317 192.347 78.5328 192.402 78.3888 192.513C78.2447 192.624 78.1434 192.743 78.0849 192.869L77.5806 192.689C77.6707 192.479 77.7907 192.315 77.9408 192.198C78.0924 192.079 78.2575 191.997 78.436 191.95C78.6161 191.902 78.7932 191.878 78.9673 191.878C79.0784 191.878 79.2059 191.892 79.35 191.919C79.4956 191.944 79.6359 191.998 79.7709 192.079C79.9075 192.16 80.0208 192.282 80.1109 192.446C80.2009 192.609 80.2459 192.828 80.2459 193.103V195.381H79.7147V194.913H79.6876C79.6516 194.988 79.5916 195.068 79.5076 195.154C79.4235 195.239 79.3117 195.312 79.1721 195.372C79.0326 195.432 78.8622 195.462 78.6612 195.462ZM78.7422 194.985C78.9523 194.985 79.1294 194.944 79.2734 194.861C79.419 194.778 79.5286 194.672 79.6021 194.541C79.6771 194.411 79.7147 194.273 79.7147 194.129V193.643C79.6921 193.67 79.6426 193.695 79.5661 193.717C79.4911 193.738 79.404 193.757 79.305 193.774C79.2074 193.789 79.1121 193.802 79.0191 193.814C78.9275 193.825 78.8532 193.834 78.7962 193.841C78.6581 193.859 78.5291 193.889 78.409 193.929C78.2905 193.968 78.1944 194.027 78.1209 194.107C78.0489 194.185 78.0128 194.291 78.0128 194.427C78.0128 194.611 78.0811 194.751 78.2177 194.845C78.3558 194.938 78.5306 194.985 78.7422 194.985ZM83.9191 191.923L82.6405 195.381H82.1003L80.8216 191.923H81.3979L82.3524 194.679H82.3884L83.3429 191.923H83.9191ZM85.9462 195.453C85.6131 195.453 85.3257 195.379 85.0841 195.232C84.844 195.084 84.6586 194.877 84.5281 194.611C84.399 194.344 84.3345 194.033 84.3345 193.679C84.3345 193.325 84.399 193.013 84.5281 192.743C84.6586 192.471 84.8402 192.259 85.0728 192.108C85.3069 191.955 85.5801 191.878 85.8922 191.878C86.0723 191.878 86.2501 191.908 86.4257 191.968C86.6013 192.028 86.7611 192.126 86.9052 192.261C87.0493 192.395 87.1641 192.572 87.2496 192.792C87.3352 193.013 87.3779 193.284 87.3779 193.607V193.832H84.7126V193.373H86.8377C86.8377 193.178 86.7986 193.004 86.7206 192.851C86.6441 192.698 86.5345 192.577 86.392 192.488C86.2509 192.4 86.0843 192.356 85.8922 192.356C85.6806 192.356 85.4975 192.408 85.3429 192.513C85.1899 192.617 85.0721 192.752 84.9895 192.918C84.907 193.085 84.8657 193.263 84.8657 193.454V193.76C84.8657 194.021 84.9107 194.243 85.0008 194.424C85.0923 194.604 85.2191 194.742 85.3812 194.836C85.5433 194.929 85.7316 194.976 85.9462 194.976C86.0858 194.976 86.2119 194.956 86.3244 194.917C86.4385 194.877 86.5368 194.817 86.6193 194.737C86.7019 194.656 86.7656 194.556 86.8107 194.436L87.3239 194.58C87.2699 194.754 87.1791 194.907 87.0515 195.039C86.924 195.169 86.7664 195.271 86.5788 195.345C86.3912 195.417 86.1803 195.453 85.9462 195.453ZM92.4181 192.698L91.9409 192.833C91.9109 192.753 91.8666 192.676 91.8081 192.601C91.751 192.524 91.673 192.461 91.574 192.412C91.4749 192.362 91.3481 192.338 91.1935 192.338C90.9819 192.338 90.8056 192.386 90.6645 192.484C90.525 192.58 90.4552 192.702 90.4552 192.851C90.4552 192.983 90.5032 193.087 90.5992 193.164C90.6953 193.24 90.8454 193.304 91.0495 193.355L91.5627 193.481C91.8719 193.556 92.1022 193.671 92.2538 193.825C92.4054 193.979 92.4811 194.176 92.4811 194.418C92.4811 194.616 92.4241 194.793 92.3101 194.949C92.1975 195.105 92.0399 195.228 91.8373 195.318C91.6347 195.408 91.3991 195.453 91.1305 195.453C90.7778 195.453 90.4859 195.376 90.2548 195.223C90.0237 195.07 89.8774 194.847 89.8159 194.553L90.3201 194.427C90.3681 194.613 90.4589 194.752 90.5925 194.845C90.7275 194.938 90.9039 194.985 91.1215 194.985C91.3691 194.985 91.5657 194.932 91.7113 194.827C91.8583 194.721 91.9319 194.593 91.9319 194.445C91.9319 194.324 91.8899 194.224 91.8058 194.143C91.7218 194.06 91.5927 193.999 91.4186 193.958L90.8424 193.823C90.5257 193.748 90.2931 193.632 90.1445 193.474C89.9974 193.315 89.9239 193.116 89.9239 192.878C89.9239 192.683 89.9787 192.51 90.0882 192.36C90.1993 192.21 90.3501 192.092 90.5407 192.007C90.7328 191.921 90.9504 191.878 91.1935 191.878C91.5357 191.878 91.8043 191.953 91.9994 192.103C92.196 192.253 92.3356 192.452 92.4181 192.698ZM94.7305 195.453C94.3974 195.453 94.11 195.379 93.8684 195.232C93.6283 195.084 93.4429 194.877 93.3124 194.611C93.1833 194.344 93.1188 194.033 93.1188 193.679C93.1188 193.325 93.1833 193.013 93.3124 192.743C93.4429 192.471 93.6245 192.259 93.8571 192.108C94.0912 191.955 94.3644 191.878 94.6765 191.878C94.8566 191.878 95.0344 191.908 95.21 191.968C95.3856 192.028 95.5454 192.126 95.6895 192.261C95.8336 192.395 95.9484 192.572 96.0339 192.792C96.1195 193.013 96.1622 193.284 96.1622 193.607V193.832H93.4969V193.373H95.622C95.622 193.178 95.583 193.004 95.5049 192.851C95.4284 192.698 95.3188 192.577 95.1763 192.488C95.0352 192.4 94.8686 192.356 94.6765 192.356C94.4649 192.356 94.2818 192.408 94.1273 192.513C93.9742 192.617 93.8564 192.752 93.7738 192.918C93.6913 193.085 93.65 193.263 93.65 193.454V193.76C93.65 194.021 93.695 194.243 93.7851 194.424C93.8766 194.604 94.0034 194.742 94.1655 194.836C94.3276 194.929 94.5159 194.976 94.7305 194.976C94.8701 194.976 94.9962 194.956 95.1087 194.917C95.2228 194.877 95.3211 194.817 95.4036 194.737C95.4862 194.656 95.5499 194.556 95.595 194.436L96.1082 194.58C96.0542 194.754 95.9634 194.907 95.8358 195.039C95.7083 195.169 95.5507 195.271 95.3631 195.345C95.1755 195.417 94.9647 195.453 94.7305 195.453ZM97.5016 193.301V195.381H96.9704V191.923H97.4836V192.464H97.5287C97.6097 192.288 97.7328 192.147 97.8978 192.04C98.0629 191.932 98.276 191.878 98.5371 191.878C98.7713 191.878 98.9761 191.926 99.1517 192.022C99.3273 192.117 99.4638 192.261 99.5614 192.455C99.6589 192.647 99.7077 192.89 99.7077 193.184V195.381H99.1764V193.22C99.1764 192.948 99.1059 192.737 98.9648 192.585C98.8238 192.432 98.6302 192.356 98.3841 192.356C98.2145 192.356 98.0629 192.392 97.9293 192.466C97.7973 192.539 97.693 192.647 97.6164 192.788C97.5399 192.929 97.5016 193.1 97.5016 193.301ZM102.182 191.923V192.374H100.39V191.923H102.182ZM100.913 191.095H101.444V194.391C101.444 194.541 101.466 194.653 101.509 194.728C101.554 194.802 101.611 194.851 101.68 194.877C101.751 194.901 101.825 194.913 101.903 194.913C101.962 194.913 102.01 194.91 102.047 194.904C102.085 194.896 102.115 194.89 102.137 194.886L102.245 195.363C102.209 195.376 102.159 195.39 102.094 195.403C102.03 195.418 101.948 195.426 101.849 195.426C101.699 195.426 101.552 195.394 101.408 195.329C101.265 195.265 101.147 195.166 101.052 195.034C100.959 194.902 100.913 194.736 100.913 194.535V191.095ZM105.106 196.678C105.016 196.678 104.936 196.67 104.866 196.655C104.795 196.642 104.746 196.628 104.719 196.615L104.854 196.146C104.983 196.179 105.097 196.191 105.196 196.182C105.295 196.173 105.383 196.129 105.46 196.05C105.538 195.972 105.609 195.845 105.674 195.669L105.773 195.399L104.494 191.923H105.07L106.025 194.679H106.061L107.015 191.923H107.592L106.124 195.885C106.058 196.064 105.976 196.212 105.879 196.329C105.781 196.447 105.668 196.535 105.539 196.592C105.411 196.649 105.267 196.678 105.106 196.678ZM109.574 195.453C109.262 195.453 108.988 195.379 108.752 195.23C108.518 195.082 108.335 194.874 108.203 194.607C108.072 194.339 108.007 194.027 108.007 193.67C108.007 193.31 108.072 192.996 108.203 192.727C108.335 192.458 108.518 192.25 108.752 192.101C108.988 191.953 109.262 191.878 109.574 191.878C109.886 191.878 110.159 191.953 110.393 192.101C110.629 192.25 110.812 192.458 110.942 192.727C111.074 192.996 111.14 193.31 111.14 193.67C111.14 194.027 111.074 194.339 110.942 194.607C110.812 194.874 110.629 195.082 110.393 195.23C110.159 195.379 109.886 195.453 109.574 195.453ZM109.574 194.976C109.811 194.976 110.006 194.915 110.159 194.793C110.312 194.672 110.425 194.512 110.499 194.314C110.572 194.116 110.609 193.901 110.609 193.67C110.609 193.439 110.572 193.224 110.499 193.024C110.425 192.824 110.312 192.663 110.159 192.54C110.006 192.417 109.811 192.356 109.574 192.356C109.337 192.356 109.141 192.417 108.988 192.54C108.835 192.663 108.722 192.824 108.648 193.024C108.575 193.224 108.538 193.439 108.538 193.67C108.538 193.901 108.575 194.116 108.648 194.314C108.722 194.512 108.835 194.672 108.988 194.793C109.141 194.915 109.337 194.976 109.574 194.976ZM114.13 193.967V191.923H114.662V195.381H114.13V194.796H114.094C114.013 194.971 113.887 195.121 113.716 195.244C113.545 195.365 113.329 195.426 113.068 195.426C112.852 195.426 112.66 195.379 112.492 195.284C112.324 195.188 112.191 195.044 112.095 194.852C111.999 194.658 111.951 194.415 111.951 194.12V191.923H112.483V194.084C112.483 194.336 112.553 194.538 112.694 194.688C112.837 194.838 113.018 194.913 113.239 194.913C113.371 194.913 113.505 194.879 113.642 194.811C113.78 194.744 113.896 194.64 113.989 194.501C114.083 194.361 114.13 194.183 114.13 193.967ZM118.435 195.462C118.216 195.462 118.017 195.421 117.839 195.338C117.66 195.254 117.518 195.133 117.413 194.976C117.308 194.817 117.256 194.625 117.256 194.4C117.256 194.201 117.295 194.041 117.373 193.918C117.451 193.793 117.555 193.696 117.685 193.625C117.816 193.555 117.96 193.502 118.118 193.468C118.277 193.432 118.437 193.403 118.597 193.382C118.807 193.355 118.978 193.335 119.108 193.321C119.24 193.306 119.336 193.281 119.396 193.247C119.458 193.212 119.489 193.152 119.489 193.067V193.049C119.489 192.827 119.428 192.654 119.306 192.531C119.186 192.408 119.004 192.347 118.759 192.347C118.506 192.347 118.307 192.402 118.163 192.513C118.019 192.624 117.917 192.743 117.859 192.869L117.355 192.689C117.445 192.479 117.565 192.315 117.715 192.198C117.866 192.079 118.031 191.997 118.21 191.95C118.39 191.902 118.567 191.878 118.741 191.878C118.852 191.878 118.98 191.892 119.124 191.919C119.269 191.944 119.41 191.998 119.545 192.079C119.681 192.16 119.795 192.282 119.885 192.446C119.975 192.609 120.02 192.828 120.02 193.103V195.381H119.489V194.913H119.462C119.426 194.988 119.366 195.068 119.281 195.154C119.197 195.239 119.086 195.312 118.946 195.372C118.807 195.432 118.636 195.462 118.435 195.462ZM118.516 194.985C118.726 194.985 118.903 194.944 119.047 194.861C119.193 194.778 119.302 194.672 119.376 194.541C119.451 194.411 119.489 194.273 119.489 194.129V193.643C119.466 193.67 119.417 193.695 119.34 193.717C119.265 193.738 119.178 193.757 119.079 193.774C118.981 193.789 118.886 193.802 118.793 193.814C118.701 193.825 118.627 193.834 118.57 193.841C118.432 193.859 118.303 193.889 118.183 193.929C118.064 193.968 117.968 194.027 117.895 194.107C117.823 194.185 117.787 194.291 117.787 194.427C117.787 194.611 117.855 194.751 117.992 194.845C118.13 194.938 118.305 194.985 118.516 194.985ZM124.177 195.453C123.853 195.453 123.574 195.376 123.34 195.223C123.106 195.07 122.925 194.859 122.799 194.591C122.673 194.322 122.61 194.015 122.61 193.67C122.61 193.319 122.675 193.009 122.804 192.74C122.934 192.47 123.116 192.259 123.349 192.108C123.583 191.955 123.856 191.878 124.168 191.878C124.411 191.878 124.63 191.923 124.825 192.013C125.02 192.103 125.18 192.229 125.305 192.392C125.429 192.554 125.507 192.743 125.537 192.959H125.005C124.965 192.801 124.875 192.662 124.735 192.54C124.597 192.417 124.411 192.356 124.177 192.356C123.97 192.356 123.788 192.41 123.632 192.518C123.478 192.624 123.357 192.775 123.27 192.97C123.184 193.164 123.142 193.391 123.142 193.652C123.142 193.919 123.184 194.152 123.268 194.35C123.353 194.548 123.473 194.702 123.628 194.811C123.784 194.921 123.967 194.976 124.177 194.976C124.315 194.976 124.44 194.952 124.553 194.904C124.666 194.856 124.761 194.787 124.839 194.697C124.917 194.607 124.972 194.499 125.005 194.372H125.537C125.507 194.577 125.432 194.76 125.314 194.924C125.197 195.086 125.041 195.215 124.848 195.311C124.656 195.406 124.432 195.453 124.177 195.453ZM127.718 195.453C127.406 195.453 127.132 195.379 126.896 195.23C126.662 195.082 126.479 194.874 126.347 194.607C126.217 194.339 126.151 194.027 126.151 193.67C126.151 193.31 126.217 192.996 126.347 192.727C126.479 192.458 126.662 192.25 126.896 192.101C127.132 191.953 127.406 191.878 127.718 191.878C128.03 191.878 128.303 191.953 128.537 192.101C128.773 192.25 128.956 192.458 129.087 192.727C129.219 192.996 129.285 193.31 129.285 193.67C129.285 194.027 129.219 194.339 129.087 194.607C128.956 194.874 128.773 195.082 128.537 195.23C128.303 195.379 128.03 195.453 127.718 195.453ZM127.718 194.976C127.955 194.976 128.15 194.915 128.303 194.793C128.456 194.672 128.57 194.512 128.643 194.314C128.717 194.116 128.754 193.901 128.754 193.67C128.754 193.439 128.717 193.224 128.643 193.024C128.57 192.824 128.456 192.663 128.303 192.54C128.15 192.417 127.955 192.356 127.718 192.356C127.481 192.356 127.286 192.417 127.133 192.54C126.98 192.663 126.866 192.824 126.793 193.024C126.719 193.224 126.683 193.439 126.683 193.67C126.683 193.901 126.719 194.116 126.793 194.314C126.866 194.512 126.98 194.672 127.133 194.793C127.286 194.915 127.481 194.976 127.718 194.976ZM131.401 195.453C131.113 195.453 130.859 195.38 130.638 195.235C130.418 195.088 130.245 194.88 130.12 194.613C129.996 194.345 129.934 194.027 129.934 193.661C129.934 193.298 129.996 192.983 130.12 192.716C130.245 192.449 130.418 192.242 130.64 192.097C130.863 191.951 131.119 191.878 131.41 191.878C131.635 191.878 131.813 191.916 131.944 191.991C132.076 192.064 132.176 192.148 132.246 192.243C132.316 192.336 132.371 192.413 132.41 192.473H132.455V190.771H132.986V195.381H132.473V194.85H132.41C132.371 194.913 132.315 194.992 132.243 195.088C132.171 195.183 132.068 195.268 131.935 195.343C131.801 195.416 131.623 195.453 131.401 195.453ZM131.473 194.976C131.686 194.976 131.867 194.92 132.014 194.809C132.161 194.697 132.273 194.541 132.349 194.343C132.426 194.144 132.464 193.913 132.464 193.652C132.464 193.394 132.426 193.168 132.351 192.975C132.276 192.779 132.165 192.628 132.018 192.52C131.871 192.41 131.689 192.356 131.473 192.356C131.248 192.356 131.061 192.413 130.911 192.529C130.762 192.643 130.65 192.798 130.575 192.995C130.502 193.19 130.465 193.409 130.465 193.652C130.465 193.898 130.502 194.122 130.577 194.323C130.654 194.523 130.767 194.682 130.915 194.8C131.065 194.917 131.251 194.976 131.473 194.976ZM135.483 195.453C135.149 195.453 134.862 195.379 134.62 195.232C134.38 195.084 134.195 194.877 134.064 194.611C133.935 194.344 133.871 194.033 133.871 193.679C133.871 193.325 133.935 193.013 134.064 192.743C134.195 192.471 134.377 192.259 134.609 192.108C134.843 191.955 135.116 191.878 135.429 191.878C135.609 191.878 135.786 191.908 135.962 191.968C136.138 192.028 136.297 192.126 136.442 192.261C136.586 192.395 136.7 192.572 136.786 192.792C136.871 193.013 136.914 193.284 136.914 193.607V193.832H134.249V193.373H136.374C136.374 193.178 136.335 193.004 136.257 192.851C136.18 192.698 136.071 192.577 135.928 192.488C135.787 192.4 135.621 192.356 135.429 192.356C135.217 192.356 135.034 192.408 134.879 192.513C134.726 192.617 134.608 192.752 134.526 192.918C134.443 193.085 134.402 193.263 134.402 193.454V193.76C134.402 194.021 134.447 194.243 134.537 194.424C134.629 194.604 134.755 194.742 134.918 194.836C135.08 194.929 135.268 194.976 135.483 194.976C135.622 194.976 135.748 194.956 135.861 194.917C135.975 194.877 136.073 194.817 136.156 194.737C136.238 194.656 136.302 194.556 136.347 194.436L136.86 194.58C136.806 194.754 136.715 194.907 136.588 195.039C136.46 195.169 136.303 195.271 136.115 195.345C135.928 195.417 135.717 195.453 135.483 195.453ZM138.515 194.751L138.479 194.994C138.453 195.165 138.414 195.348 138.362 195.543C138.311 195.738 138.257 195.922 138.202 196.095C138.146 196.267 138.101 196.404 138.065 196.507H137.659C137.679 196.41 137.704 196.284 137.736 196.126C137.767 195.969 137.799 195.792 137.83 195.597C137.863 195.403 137.89 195.205 137.911 195.003L137.939 194.751H138.515ZM141.282 196.678V191.923H141.795V192.473H141.858C141.897 192.413 141.951 192.336 142.02 192.243C142.091 192.148 142.191 192.064 142.322 191.991C142.454 191.916 142.633 191.878 142.858 191.878C143.149 191.878 143.405 191.951 143.628 192.097C143.85 192.242 144.023 192.449 144.148 192.716C144.272 192.983 144.334 193.298 144.334 193.661C144.334 194.027 144.272 194.345 144.148 194.613C144.023 194.88 143.85 195.088 143.63 195.235C143.409 195.38 143.155 195.453 142.867 195.453C142.645 195.453 142.467 195.416 142.333 195.343C142.2 195.268 142.097 195.183 142.025 195.088C141.953 194.992 141.897 194.913 141.858 194.85H141.813V196.678H141.282ZM141.804 193.652C141.804 193.913 141.842 194.144 141.919 194.343C141.996 194.541 142.107 194.697 142.254 194.809C142.401 194.92 142.582 194.976 142.795 194.976C143.017 194.976 143.202 194.917 143.351 194.8C143.501 194.682 143.613 194.523 143.688 194.323C143.765 194.122 143.803 193.898 143.803 193.652C143.803 193.409 143.766 193.19 143.691 192.995C143.617 192.798 143.505 192.643 143.355 192.529C143.207 192.413 143.02 192.356 142.795 192.356C142.579 192.356 142.397 192.41 142.25 192.52C142.103 192.628 141.992 192.779 141.917 192.975C141.842 193.168 141.804 193.394 141.804 193.652ZM145.676 190.771V195.381H145.145V190.771H145.676ZM148.099 195.453C147.766 195.453 147.478 195.379 147.237 195.232C146.997 195.084 146.811 194.877 146.681 194.611C146.552 194.344 146.487 194.033 146.487 193.679C146.487 193.325 146.552 193.013 146.681 192.743C146.811 192.471 146.993 192.259 147.225 192.108C147.459 191.955 147.733 191.878 148.045 191.878C148.225 191.878 148.403 191.908 148.578 191.968C148.754 192.028 148.914 192.126 149.058 192.261C149.202 192.395 149.317 192.572 149.402 192.792C149.488 193.013 149.53 193.284 149.53 193.607V193.832H146.865V193.373H148.99C148.99 193.178 148.951 193.004 148.873 192.851C148.797 192.698 148.687 192.577 148.545 192.488C148.403 192.4 148.237 192.356 148.045 192.356C147.833 192.356 147.65 192.408 147.496 192.513C147.342 192.617 147.225 192.752 147.142 192.918C147.06 193.085 147.018 193.263 147.018 193.454V193.76C147.018 194.021 147.063 194.243 147.153 194.424C147.245 194.604 147.372 194.742 147.534 194.836C147.696 194.929 147.884 194.976 148.099 194.976C148.238 194.976 148.364 194.956 148.477 194.917C148.591 194.877 148.689 194.817 148.772 194.737C148.854 194.656 148.918 194.556 148.963 194.436L149.476 194.58C149.422 194.754 149.332 194.907 149.204 195.039C149.077 195.169 148.919 195.271 148.731 195.345C148.544 195.417 148.333 195.453 148.099 195.453ZM151.356 195.462C151.137 195.462 150.938 195.421 150.76 195.338C150.581 195.254 150.439 195.133 150.334 194.976C150.229 194.817 150.177 194.625 150.177 194.4C150.177 194.201 150.216 194.041 150.294 193.918C150.372 193.793 150.476 193.696 150.607 193.625C150.737 193.555 150.881 193.502 151.039 193.468C151.198 193.432 151.358 193.403 151.518 193.382C151.728 193.355 151.899 193.335 152.029 193.321C152.161 193.306 152.257 193.281 152.317 193.247C152.379 193.212 152.41 193.152 152.41 193.067V193.049C152.41 192.827 152.349 192.654 152.227 192.531C152.107 192.408 151.925 192.347 151.68 192.347C151.427 192.347 151.228 192.402 151.084 192.513C150.94 192.624 150.838 192.743 150.78 192.869L150.276 192.689C150.366 192.479 150.486 192.315 150.636 192.198C150.787 192.079 150.952 191.997 151.131 191.95C151.311 191.902 151.488 191.878 151.662 191.878C151.773 191.878 151.901 191.892 152.045 191.919C152.191 191.944 152.331 191.998 152.466 192.079C152.602 192.16 152.716 192.282 152.806 192.446C152.896 192.609 152.941 192.828 152.941 193.103V195.381H152.41V194.913H152.383C152.347 194.988 152.287 195.068 152.203 195.154C152.118 195.239 152.007 195.312 151.867 195.372C151.728 195.432 151.557 195.462 151.356 195.462ZM151.437 194.985C151.647 194.985 151.824 194.944 151.968 194.861C152.114 194.778 152.224 194.672 152.297 194.541C152.372 194.411 152.41 194.273 152.41 194.129V193.643C152.387 193.67 152.338 193.695 152.261 193.717C152.186 193.738 152.099 193.757 152 193.774C151.902 193.789 151.807 193.802 151.714 193.814C151.623 193.825 151.548 193.834 151.491 193.841C151.353 193.859 151.224 193.889 151.104 193.929C150.985 193.968 150.889 194.027 150.816 194.107C150.744 194.185 150.708 194.291 150.708 194.427C150.708 194.611 150.776 194.751 150.913 194.845C151.051 194.938 151.226 194.985 151.437 194.985ZM156.36 192.698L155.882 192.833C155.852 192.753 155.808 192.676 155.75 192.601C155.693 192.524 155.615 192.461 155.516 192.412C155.417 192.362 155.29 192.338 155.135 192.338C154.924 192.338 154.747 192.386 154.606 192.484C154.467 192.58 154.397 192.702 154.397 192.851C154.397 192.983 154.445 193.087 154.541 193.164C154.637 193.24 154.787 193.304 154.991 193.355L155.504 193.481C155.813 193.556 156.044 193.671 156.195 193.825C156.347 193.979 156.423 194.176 156.423 194.418C156.423 194.616 156.366 194.793 156.252 194.949C156.139 195.105 155.982 195.228 155.779 195.318C155.576 195.408 155.341 195.453 155.072 195.453C154.719 195.453 154.428 195.376 154.196 195.223C153.965 195.07 153.819 194.847 153.757 194.553L154.262 194.427C154.31 194.613 154.401 194.752 154.534 194.845C154.669 194.938 154.845 194.985 155.063 194.985C155.311 194.985 155.507 194.932 155.653 194.827C155.8 194.721 155.873 194.593 155.873 194.445C155.873 194.324 155.831 194.224 155.747 194.143C155.663 194.06 155.534 193.999 155.36 193.958L154.784 193.823C154.467 193.748 154.235 193.632 154.086 193.474C153.939 193.315 153.866 193.116 153.866 192.878C153.866 192.683 153.92 192.51 154.03 192.36C154.141 192.21 154.292 192.092 154.482 192.007C154.674 191.921 154.892 191.878 155.135 191.878C155.477 191.878 155.746 191.953 155.941 192.103C156.138 192.253 156.277 192.452 156.36 192.698ZM158.672 195.453C158.339 195.453 158.052 195.379 157.81 195.232C157.57 195.084 157.385 194.877 157.254 194.611C157.125 194.344 157.06 194.033 157.06 193.679C157.06 193.325 157.125 193.013 157.254 192.743C157.385 192.471 157.566 192.259 157.799 192.108C158.033 191.955 158.306 191.878 158.618 191.878C158.798 191.878 158.976 191.908 159.152 191.968C159.327 192.028 159.487 192.126 159.631 192.261C159.775 192.395 159.89 192.572 159.976 192.792C160.061 193.013 160.104 193.284 160.104 193.607V193.832H157.439V193.373H159.564C159.564 193.178 159.525 193.004 159.447 192.851C159.37 192.698 159.26 192.577 159.118 192.488C158.977 192.4 158.81 192.356 158.618 192.356C158.407 192.356 158.223 192.408 158.069 192.513C157.916 192.617 157.798 192.752 157.715 192.918C157.633 193.085 157.592 193.263 157.592 193.454V193.76C157.592 194.021 157.637 194.243 157.727 194.424C157.818 194.604 157.945 194.742 158.107 194.836C158.269 194.929 158.458 194.976 158.672 194.976C158.812 194.976 158.938 194.956 159.05 194.917C159.164 194.877 159.263 194.817 159.345 194.737C159.428 194.656 159.492 194.556 159.537 194.436L160.05 194.58C159.996 194.754 159.905 194.907 159.777 195.039C159.65 195.169 159.492 195.271 159.305 195.345C159.117 195.417 158.906 195.453 158.672 195.453ZM92.7558 204.453C92.4226 204.453 92.1352 204.379 91.8936 204.232C91.6535 204.084 91.4682 203.877 91.3376 203.611C91.2085 203.344 91.144 203.033 91.144 202.679C91.144 202.325 91.2085 202.013 91.3376 201.743C91.4682 201.471 91.6497 201.259 91.8824 201.108C92.1165 200.955 92.3896 200.878 92.7018 200.878C92.8818 200.878 93.0597 200.908 93.2353 200.968C93.4108 201.028 93.5707 201.126 93.7147 201.261C93.8588 201.395 93.9736 201.572 94.0592 201.792C94.1447 202.013 94.1875 202.284 94.1875 202.607V202.832H91.5222V202.373H93.6472C93.6472 202.178 93.6082 202.004 93.5302 201.851C93.4536 201.698 93.3441 201.577 93.2015 201.488C93.0604 201.4 92.8938 201.356 92.7018 201.356C92.4902 201.356 92.3071 201.408 92.1525 201.513C91.9994 201.617 91.8816 201.752 91.7991 201.918C91.7165 202.085 91.6753 202.263 91.6753 202.454V202.76C91.6753 203.021 91.7203 203.243 91.8103 203.424C91.9019 203.604 92.0287 203.742 92.1908 203.836C92.3528 203.929 92.5412 203.976 92.7558 203.976C92.8953 203.976 93.0214 203.956 93.134 203.917C93.248 203.877 93.3463 203.817 93.4289 203.737C93.5114 203.656 93.5752 203.556 93.6202 203.436L94.1334 203.58C94.0794 203.754 93.9886 203.907 93.8611 204.039C93.7335 204.169 93.5759 204.271 93.3883 204.345C93.2007 204.417 92.9899 204.453 92.7558 204.453ZM95.5269 202.301V204.381H94.9956V200.923H95.5089V201.464H95.5539C95.6349 201.288 95.758 201.147 95.9231 201.04C96.0881 200.932 96.3012 200.878 96.5624 200.878C96.7965 200.878 97.0013 200.926 97.1769 201.022C97.3525 201.117 97.4891 201.261 97.5866 201.455C97.6842 201.647 97.7329 201.89 97.7329 202.184V204.381H97.2017V202.22C97.2017 201.948 97.1311 201.737 96.9901 201.585C96.849 201.432 96.6554 201.356 96.4093 201.356C96.2397 201.356 96.0881 201.392 95.9546 201.466C95.8225 201.539 95.7182 201.647 95.6417 201.788C95.5651 201.929 95.5269 202.1 95.5269 202.301ZM100.207 200.923V201.374H98.4156V200.923H100.207ZM98.9378 200.095H99.4691V203.391C99.4691 203.541 99.4908 203.653 99.5344 203.728C99.5794 203.802 99.6364 203.851 99.7055 203.877C99.776 203.901 99.8503 203.913 99.9283 203.913C99.9868 203.913 100.035 203.91 100.072 203.904C100.11 203.896 100.14 203.89 100.162 203.886L100.27 204.363C100.234 204.376 100.184 204.39 100.12 204.403C100.055 204.418 99.9733 204.426 99.8743 204.426C99.7242 204.426 99.5771 204.394 99.4331 204.329C99.2905 204.265 99.1719 204.166 99.0774 204.034C98.9844 203.902 98.9378 203.736 98.9378 203.535V200.095ZM102.419 204.453C102.086 204.453 101.799 204.379 101.557 204.232C101.317 204.084 101.132 203.877 101.001 203.611C100.872 203.344 100.807 203.033 100.807 202.679C100.807 202.325 100.872 202.013 101.001 201.743C101.132 201.471 101.313 201.259 101.546 201.108C101.78 200.955 102.053 200.878 102.365 200.878C102.545 200.878 102.723 200.908 102.899 200.968C103.074 201.028 103.234 201.126 103.378 201.261C103.522 201.395 103.637 201.572 103.723 201.792C103.808 202.013 103.851 202.284 103.851 202.607V202.832H101.186V202.373H103.311C103.311 202.178 103.272 202.004 103.194 201.851C103.117 201.698 103.007 201.577 102.865 201.488C102.724 201.4 102.557 201.356 102.365 201.356C102.154 201.356 101.97 201.408 101.816 201.513C101.663 201.617 101.545 201.752 101.462 201.918C101.38 202.085 101.339 202.263 101.339 202.454V202.76C101.339 203.021 101.384 203.243 101.474 203.424C101.565 203.604 101.692 203.742 101.854 203.836C102.016 203.929 102.205 203.976 102.419 203.976C102.559 203.976 102.685 203.956 102.797 203.917C102.911 203.877 103.01 203.817 103.092 203.737C103.175 203.656 103.239 203.556 103.284 203.436L103.797 203.58C103.743 203.754 103.652 203.907 103.524 204.039C103.397 204.169 103.239 204.271 103.052 204.345C102.864 204.417 102.653 204.453 102.419 204.453ZM104.659 204.381V200.923H105.172V201.446H105.208C105.271 201.274 105.385 201.136 105.55 201.029C105.715 200.923 105.902 200.869 106.109 200.869C106.148 200.869 106.196 200.87 106.255 200.872C106.314 200.873 106.358 200.875 106.388 200.878V201.419C106.37 201.414 106.329 201.407 106.264 201.398C106.201 201.388 106.134 201.383 106.064 201.383C105.896 201.383 105.745 201.418 105.613 201.488C105.483 201.557 105.379 201.653 105.303 201.776C105.228 201.898 105.19 202.037 105.19 202.193V204.381H104.659ZM108.8 204.381V200.923H109.332V204.381H108.8ZM109.071 200.347C108.967 200.347 108.878 200.312 108.803 200.241C108.729 200.171 108.692 200.086 108.692 199.987C108.692 199.888 108.729 199.803 108.803 199.732C108.878 199.662 108.967 199.627 109.071 199.627C109.174 199.627 109.263 199.662 109.336 199.732C109.411 199.803 109.449 199.888 109.449 199.987C109.449 200.086 109.411 200.171 109.336 200.241C109.263 200.312 109.174 200.347 109.071 200.347ZM111.808 200.923V201.374H110.017V200.923H111.808ZM110.539 200.095H111.07V203.391C111.07 203.541 111.092 203.653 111.135 203.728C111.18 203.802 111.237 203.851 111.306 203.877C111.377 203.901 111.451 203.913 111.529 203.913C111.588 203.913 111.636 203.91 111.673 203.904C111.711 203.896 111.741 203.89 111.763 203.886L111.871 204.363C111.835 204.376 111.785 204.39 111.721 204.403C111.656 204.418 111.574 204.426 111.475 204.426C111.325 204.426 111.178 204.394 111.034 204.329C110.891 204.265 110.773 204.166 110.678 204.034C110.585 203.902 110.539 203.736 110.539 203.535V200.095ZM114.462 204.381V199.771H114.994V201.473H115.039C115.078 201.413 115.132 201.336 115.201 201.243C115.271 201.148 115.372 201.064 115.502 200.991C115.635 200.916 115.813 200.878 116.038 200.878C116.329 200.878 116.586 200.951 116.808 201.097C117.03 201.242 117.204 201.449 117.328 201.716C117.453 201.983 117.515 202.298 117.515 202.661C117.515 203.027 117.453 203.345 117.328 203.613C117.204 203.88 117.031 204.088 116.81 204.235C116.59 204.38 116.335 204.453 116.047 204.453C115.825 204.453 115.647 204.416 115.514 204.343C115.38 204.268 115.277 204.183 115.205 204.088C115.133 203.992 115.078 203.913 115.039 203.85H114.976V204.381H114.462ZM114.985 202.652C114.985 202.913 115.023 203.144 115.1 203.343C115.176 203.541 115.288 203.697 115.435 203.809C115.582 203.92 115.762 203.976 115.975 203.976C116.197 203.976 116.383 203.917 116.531 203.8C116.681 203.682 116.794 203.523 116.869 203.323C116.945 203.122 116.984 202.898 116.984 202.652C116.984 202.409 116.946 202.19 116.871 201.995C116.798 201.798 116.686 201.643 116.536 201.529C116.387 201.413 116.2 201.356 115.975 201.356C115.759 201.356 115.578 201.41 115.43 201.52C115.283 201.628 115.172 201.779 115.097 201.975C115.022 202.168 114.985 202.394 114.985 202.652ZM119.777 204.453C119.444 204.453 119.157 204.379 118.915 204.232C118.675 204.084 118.49 203.877 118.359 203.611C118.23 203.344 118.166 203.033 118.166 202.679C118.166 202.325 118.23 202.013 118.359 201.743C118.49 201.471 118.671 201.259 118.904 201.108C119.138 200.955 119.411 200.878 119.723 200.878C119.903 200.878 120.081 200.908 120.257 200.968C120.432 201.028 120.592 201.126 120.736 201.261C120.88 201.395 120.995 201.572 121.081 201.792C121.166 202.013 121.209 202.284 121.209 202.607V202.832H118.544V202.373H120.669C120.669 202.178 120.63 202.004 120.552 201.851C120.475 201.698 120.366 201.577 120.223 201.488C120.082 201.4 119.915 201.356 119.723 201.356C119.512 201.356 119.329 201.408 119.174 201.513C119.021 201.617 118.903 201.752 118.821 201.918C118.738 202.085 118.697 202.263 118.697 202.454V202.76C118.697 203.021 118.742 203.243 118.832 203.424C118.923 203.604 119.05 203.742 119.212 203.836C119.374 203.929 119.563 203.976 119.777 203.976C119.917 203.976 120.043 203.956 120.155 203.917C120.27 203.877 120.368 203.817 120.45 203.737C120.533 203.656 120.597 203.556 120.642 203.436L121.155 203.58C121.101 203.754 121.01 203.907 120.883 204.039C120.755 204.169 120.597 204.271 120.41 204.345C120.222 204.417 120.011 204.453 119.777 204.453ZM122.548 199.771V204.381H122.017V199.771H122.548ZM124.926 204.453C124.614 204.453 124.34 204.379 124.104 204.23C123.87 204.082 123.687 203.874 123.555 203.607C123.425 203.339 123.359 203.027 123.359 202.67C123.359 202.31 123.425 201.996 123.555 201.727C123.687 201.458 123.87 201.25 124.104 201.101C124.34 200.953 124.614 200.878 124.926 200.878C125.238 200.878 125.511 200.953 125.745 201.101C125.981 201.25 126.164 201.458 126.295 201.727C126.427 201.996 126.493 202.31 126.493 202.67C126.493 203.027 126.427 203.339 126.295 203.607C126.164 203.874 125.981 204.082 125.745 204.23C125.511 204.379 125.238 204.453 124.926 204.453ZM124.926 203.976C125.163 203.976 125.358 203.915 125.511 203.793C125.664 203.672 125.778 203.512 125.851 203.314C125.925 203.116 125.962 202.901 125.962 202.67C125.962 202.439 125.925 202.224 125.851 202.024C125.778 201.824 125.664 201.663 125.511 201.54C125.358 201.417 125.163 201.356 124.926 201.356C124.689 201.356 124.494 201.417 124.341 201.54C124.188 201.663 124.074 201.824 124.001 202.024C123.927 202.224 123.891 202.439 123.891 202.67C123.891 202.901 123.927 203.116 124.001 203.314C124.074 203.512 124.188 203.672 124.341 203.793C124.494 203.915 124.689 203.976 124.926 203.976ZM127.97 204.381L126.916 200.923H127.474L128.222 203.571H128.258L128.996 200.923H129.563L130.293 203.562H130.329L131.076 200.923H131.634L130.581 204.381H130.059L129.302 201.725H129.248L128.492 204.381H127.97Z" fill="#333333"/>
<path d="M98.0787 178.047C98.0472 177.752 97.9144 177.523 97.6803 177.358C97.4484 177.194 97.1467 177.112 96.7753 177.112C96.5142 177.112 96.2902 177.151 96.1034 177.23C95.9165 177.309 95.7736 177.416 95.6745 177.551C95.5755 177.686 95.5248 177.84 95.5226 178.014C95.5226 178.158 95.5552 178.283 95.6205 178.388C95.688 178.494 95.7792 178.584 95.894 178.658C96.0088 178.73 96.136 178.791 96.2756 178.841C96.4151 178.89 96.5558 178.932 96.6977 178.966L97.346 179.128C97.6071 179.189 97.8581 179.271 98.099 179.374C98.3421 179.478 98.5593 179.608 98.7507 179.766C98.9442 179.924 99.0973 180.114 99.2099 180.337C99.3224 180.559 99.3787 180.821 99.3787 181.12C99.3787 181.525 99.2752 181.882 99.0681 182.19C98.861 182.497 98.5616 182.736 98.1699 182.91C97.7804 183.081 97.3088 183.166 96.7551 183.166C96.2171 183.166 95.7499 183.083 95.3538 182.916C94.9598 182.75 94.6514 182.507 94.4286 182.187C94.208 181.867 94.0886 181.478 94.0706 181.019H95.3031C95.3211 181.26 95.3954 181.46 95.526 181.62C95.6565 181.78 95.8265 181.899 96.0358 181.978C96.2474 182.056 96.4838 182.096 96.7449 182.096C97.0173 182.096 97.2559 182.055 97.4608 181.974C97.6679 181.891 97.83 181.776 97.947 181.63C98.0641 181.481 98.1237 181.308 98.126 181.11C98.1237 180.93 98.0708 180.781 97.9673 180.664C97.8637 180.545 97.7185 180.446 97.5317 180.367C97.3471 180.286 97.131 180.214 96.8834 180.151L96.0966 179.948C95.5271 179.802 95.0769 179.58 94.746 179.283C94.4173 178.984 94.253 178.586 94.253 178.091C94.253 177.684 94.3633 177.327 94.5839 177.021C94.8067 176.715 95.1095 176.477 95.4922 176.308C95.8749 176.137 96.3082 176.052 96.7922 176.052C97.2829 176.052 97.7129 176.137 98.0821 176.308C98.4535 176.477 98.745 176.712 98.9566 177.014C99.1682 177.313 99.2774 177.658 99.2842 178.047H98.0787ZM100.441 183.062V177.875H101.664V183.062H100.441ZM101.056 177.139C100.862 177.139 100.696 177.075 100.556 176.946C100.417 176.816 100.347 176.659 100.347 176.477C100.347 176.293 100.417 176.136 100.556 176.008C100.696 175.877 100.862 175.812 101.056 175.812C101.252 175.812 101.418 175.877 101.556 176.008C101.695 176.136 101.765 176.293 101.765 176.477C101.765 176.659 101.695 176.816 101.556 176.946C101.418 177.075 101.252 177.139 101.056 177.139ZM105.176 185.115C104.737 185.115 104.36 185.055 104.045 184.936C103.73 184.819 103.477 184.661 103.285 184.463C103.094 184.265 102.961 184.045 102.887 183.804L103.988 183.538C104.037 183.639 104.109 183.739 104.204 183.838C104.298 183.939 104.426 184.023 104.585 184.088C104.748 184.156 104.951 184.189 105.197 184.189C105.543 184.189 105.83 184.105 106.058 183.936C106.285 183.77 106.399 183.495 106.399 183.112V182.13H106.338C106.275 182.256 106.183 182.385 106.061 182.518C105.942 182.651 105.783 182.762 105.585 182.852C105.389 182.942 105.143 182.987 104.845 182.987C104.447 182.987 104.086 182.894 103.762 182.707C103.44 182.518 103.183 182.237 102.992 181.863C102.803 181.487 102.708 181.016 102.708 180.451C102.708 179.882 102.803 179.401 102.992 179.01C103.183 178.616 103.441 178.317 103.765 178.115C104.089 177.91 104.45 177.808 104.849 177.808C105.153 177.808 105.403 177.859 105.598 177.963C105.797 178.064 105.954 178.187 106.071 178.331C106.188 178.473 106.277 178.607 106.338 178.733H106.405V177.875H107.611V183.146C107.611 183.589 107.505 183.956 107.294 184.247C107.082 184.537 106.793 184.754 106.426 184.898C106.059 185.043 105.642 185.115 105.176 185.115ZM105.187 182.028C105.445 182.028 105.666 181.965 105.848 181.839C106.031 181.713 106.169 181.532 106.264 181.296C106.358 181.059 106.405 180.776 106.405 180.445C106.405 180.118 106.358 179.832 106.264 179.587C106.171 179.342 106.034 179.151 105.852 179.016C105.672 178.879 105.45 178.81 105.187 178.81C104.914 178.81 104.687 178.881 104.504 179.023C104.322 179.165 104.185 179.36 104.092 179.607C104 179.853 103.954 180.132 103.954 180.445C103.954 180.762 104 181.04 104.092 181.279C104.187 181.515 104.325 181.7 104.508 181.832C104.692 181.963 104.919 182.028 105.187 182.028ZM110.086 180.023V183.062H108.864V177.875H110.032V178.756H110.093C110.212 178.466 110.402 178.235 110.663 178.064C110.927 177.893 111.252 177.808 111.639 177.808C111.997 177.808 112.309 177.884 112.575 178.037C112.842 178.19 113.05 178.412 113.196 178.702C113.344 178.993 113.418 179.345 113.415 179.759V183.062H112.193V179.948C112.193 179.602 112.103 179.33 111.923 179.135C111.745 178.939 111.499 178.841 111.183 178.841C110.97 178.841 110.779 178.888 110.613 178.983C110.448 179.075 110.319 179.209 110.224 179.384C110.132 179.56 110.086 179.773 110.086 180.023ZM121.43 176.146H122.683V180.664C122.683 181.159 122.565 181.595 122.331 181.971C122.1 182.347 121.773 182.641 121.352 182.852C120.931 183.062 120.439 183.166 119.877 183.166C119.312 183.166 118.819 183.062 118.398 182.852C117.977 182.641 117.65 182.347 117.418 181.971C117.187 181.595 117.071 181.159 117.071 180.664V176.146H118.323V180.559C118.323 180.848 118.386 181.104 118.512 181.329C118.641 181.554 118.821 181.731 119.053 181.859C119.285 181.986 119.559 182.049 119.877 182.049C120.194 182.049 120.469 181.986 120.7 181.859C120.935 181.731 121.115 181.554 121.241 181.329C121.367 181.104 121.43 180.848 121.43 180.559V176.146ZM123.99 185.007V177.875H125.192V178.733H125.263C125.326 178.607 125.415 178.473 125.53 178.331C125.645 178.187 125.8 178.064 125.996 177.963C126.192 177.859 126.442 177.808 126.745 177.808C127.146 177.808 127.507 177.91 127.829 178.115C128.154 178.317 128.41 178.618 128.599 179.016C128.791 179.413 128.886 179.899 128.886 180.475C128.886 181.045 128.793 181.529 128.606 181.927C128.419 182.325 128.165 182.629 127.843 182.839C127.521 183.048 127.156 183.153 126.749 183.153C126.452 183.153 126.205 183.103 126.009 183.004C125.814 182.905 125.656 182.786 125.537 182.646C125.42 182.504 125.328 182.37 125.263 182.244H125.212V185.007H123.99ZM125.189 180.468C125.189 180.804 125.236 181.097 125.331 181.35C125.427 181.602 125.566 181.799 125.746 181.941C125.928 182.08 126.149 182.15 126.408 182.15C126.678 182.15 126.904 182.078 127.087 181.934C127.269 181.787 127.406 181.588 127.498 181.336C127.593 181.082 127.64 180.792 127.64 180.468C127.64 180.146 127.594 179.861 127.502 179.611C127.41 179.361 127.272 179.165 127.09 179.023C126.908 178.881 126.68 178.81 126.408 178.81C126.147 178.81 125.925 178.879 125.743 179.016C125.56 179.154 125.422 179.346 125.327 179.594C125.235 179.841 125.189 180.133 125.189 180.468Z" fill="#333333"/>
<path d="M84.1311 231.698H105.261" stroke="#DEDDDD" stroke-width="0.528256" stroke-linecap="round"/>
<path d="M50.3223 231.698H71.4525" stroke="#464646" stroke-width="0.528256" stroke-linecap="round"/>
<path d="M151.748 231.698H172.878" stroke="#DEDDDD" stroke-width="0.528256" stroke-linecap="round"/>
<path d="M117.938 231.698H139.068" stroke="#DEDDDD" stroke-width="0.528256" stroke-linecap="round"/>
<path d="M60.7896 226.807C60.1413 226.807 59.565 226.696 59.0608 226.474C58.5596 226.251 58.1634 225.942 57.8722 225.546C57.5811 225.15 57.4265 224.692 57.4085 224.173H59.1013C59.1163 224.422 59.1989 224.64 59.3489 224.826C59.499 225.009 59.6986 225.151 59.9477 225.253C60.1968 225.355 60.476 225.407 60.7851 225.407C61.1153 225.407 61.4079 225.349 61.6631 225.235C61.9182 225.118 62.1178 224.956 62.2618 224.749C62.4059 224.542 62.4764 224.303 62.4734 224.033C62.4764 223.754 62.4044 223.508 62.2573 223.295C62.1103 223.082 61.8972 222.915 61.618 222.795C61.3419 222.675 61.0087 222.615 60.6185 222.615H59.8037V221.328H60.6185C60.9397 221.328 61.2203 221.272 61.4605 221.161C61.7036 221.05 61.8942 220.894 62.0322 220.693C62.1703 220.489 62.2378 220.253 62.2348 219.986C62.2378 219.725 62.1793 219.498 62.0592 219.306C61.9422 219.111 61.7756 218.959 61.5595 218.851C61.3464 218.743 61.0958 218.689 60.8076 218.689C60.5255 218.689 60.2644 218.74 60.0243 218.842C59.7841 218.944 59.5905 219.09 59.4435 219.279C59.2964 219.465 59.2184 219.687 59.2094 219.945H57.6021C57.6141 219.429 57.7627 218.976 58.0478 218.586C58.3359 218.193 58.7201 217.886 59.2004 217.667C59.6806 217.445 60.2194 217.334 60.8166 217.334C61.4319 217.334 61.9662 217.45 62.4194 217.681C62.8756 217.909 63.2283 218.217 63.4774 218.604C63.7266 218.991 63.8511 219.419 63.8511 219.887C63.8541 220.406 63.701 220.841 63.3919 221.192C63.0857 221.544 62.6835 221.773 62.1853 221.881V221.953C62.8336 222.043 63.3304 222.283 63.6755 222.674C64.0237 223.061 64.1963 223.543 64.1933 224.119C64.1933 224.635 64.0462 225.097 63.7521 225.506C63.4609 225.911 63.0587 226.229 62.5455 226.46C62.0352 226.691 61.4499 226.807 60.7896 226.807Z" fill="#333333"/>
</g>
</g>
<defs>
<filter id="filter0_d_1_2672" x="0.287109" y="0" width="222.096" height="452.943" filterUnits="userSpaceOnUse" color-interpolation-filters="sRGB">
<feFlood flood-opacity="0" result="BackgroundImageFix"/>
<feColorMatrix in="SourceAlpha" type="matrix" values="0 0 0 0 0 0 0 0 0 0 0 0 0 0 0 0 0 0 127 0" result="hardAlpha"/>
<feOffset dy="-1"/>
<feGaussianBlur stdDeviation="6"/>
<feComposite in2="hardAlpha" operator="out"/>
<feColorMatrix type="matrix" values="0 0 0 0 0 0 0 0 0 0 0 0 0 0 0 0 0 0 0.12 0"/>
<feBlend mode="normal" in2="BackgroundImageFix" result="effect1_dropShadow_1_2672"/>
<feBlend mode="normal" in="SourceGraphic" in2="effect1_dropShadow_1_2672" result="shape"/>
</filter>
<filter id="filter1_b_1_2672" x="10.1741" y="10.887" width="202.322" height="433.17" filterUnits="userSpaceOnUse" color-interpolation-filters="sRGB">
<feFlood flood-opacity="0" result="BackgroundImageFix"/>
<feGaussianBlur in="BackgroundImageFix" stdDeviation="1.05651"/>
<feComposite in2="SourceAlpha" operator="in" result="effect1_backgroundBlur_1_2672"/>
<feBlend mode="normal" in="SourceGraphic" in2="effect1_backgroundBlur_1_2672" result="shape"/>
</filter>
<clipPath id="clip0_1_2672">
<rect x="12.2871" y="13" width="198.096" height="428.943" rx="20" fill="white"/>
</clipPath>
</defs>
</svg>
