<svg width="223" height="453" viewBox="0 0 223 453" fill="none" xmlns="http://www.w3.org/2000/svg">
<g filter="url(#filter0_d_1_2633)">
<g clip-path="url(#clip0_1_2633)">
<rect x="12.1914" y="13" width="198.096" height="428.943" rx="20" fill="white"/>
<rect width="198.096" height="67.0884" transform="matrix(1 0 0 -1 12.1925 441.944)" fill="#333333"/>
<path d="M12.1924 13H210.288V384.892C210.288 397.729 199.882 408.135 187.045 408.135H35.4356C22.5988 408.135 12.1924 397.729 12.1924 384.892V13Z" fill="white"/>
<path opacity="0.35" fill-rule="evenodd" clip-rule="evenodd" d="M199.23 22.685H192.116C191.713 22.685 191.442 22.6854 191.234 22.7024C191.032 22.719 190.935 22.7485 190.871 22.781C190.706 22.8654 190.571 23.0001 190.487 23.1657C190.454 23.2295 190.425 23.3262 190.408 23.5284C190.391 23.7368 190.391 24.0074 190.391 24.4106V25.8897C190.391 26.2929 190.391 26.5635 190.408 26.7719C190.425 26.9742 190.454 27.0709 190.487 27.1347C190.571 27.3003 190.706 27.435 190.871 27.5194C190.935 27.5519 191.032 27.5814 191.234 27.5979C191.442 27.615 191.713 27.6154 192.116 27.6154H199.23C199.633 27.6154 199.904 27.615 200.112 27.5979C200.314 27.5814 200.411 27.5519 200.475 27.5194C200.641 27.435 200.775 27.3003 200.86 27.1347C200.892 27.0709 200.922 26.9742 200.938 26.7719C200.955 26.5635 200.956 26.2929 200.956 25.8897V24.4106C200.956 24.0074 200.955 23.7368 200.938 23.5284C200.922 23.3262 200.892 23.2295 200.86 23.1657C200.775 23.0001 200.641 22.8654 200.475 22.781C200.411 22.7485 200.314 22.719 200.112 22.7024C199.904 22.6854 199.633 22.685 199.23 22.685ZM190.016 22.9259C189.862 23.2272 189.862 23.6217 189.862 24.4106V25.8897C189.862 26.6787 189.862 27.0731 190.016 27.3745C190.151 27.6395 190.366 27.855 190.631 27.9901C190.933 28.1436 191.327 28.1436 192.116 28.1436H199.23C200.019 28.1436 200.413 28.1436 200.715 27.9901C200.98 27.855 201.195 27.6395 201.33 27.3745C201.484 27.0731 201.484 26.6787 201.484 25.8897V24.4106C201.484 23.6217 201.484 23.2272 201.33 22.9259C201.195 22.6608 200.98 22.4453 200.715 22.3103C200.413 22.1567 200.019 22.1567 199.23 22.1567H192.116C191.327 22.1567 190.933 22.1567 190.631 22.3103C190.366 22.4453 190.151 22.6608 190.016 22.9259Z" fill="black"/>
<path opacity="0.4" d="M202.012 24.0938V26.2068C202.437 26.0278 202.713 25.6115 202.713 25.1503C202.713 24.689 202.437 24.2727 202.012 24.0938Z" fill="black"/>
<path d="M190.919 24.3402C190.919 23.9457 190.919 23.7485 190.995 23.5978C191.063 23.4653 191.171 23.3575 191.303 23.29C191.454 23.2132 191.651 23.2132 192.046 23.2132H199.3C199.695 23.2132 199.892 23.2132 200.043 23.29C200.175 23.3575 200.283 23.4653 200.351 23.5978C200.427 23.7485 200.427 23.9457 200.427 24.3402V25.9601C200.427 26.3546 200.427 26.5518 200.351 26.7025C200.283 26.835 200.175 26.9428 200.043 27.0103C199.892 27.0871 199.695 27.0871 199.3 27.0871H192.046C191.651 27.0871 191.454 27.0871 191.303 27.0103C191.171 26.9428 191.063 26.835 190.995 26.7025C190.919 26.5518 190.919 26.3546 190.919 25.9601V24.3402Z" fill="black"/>
<path fill-rule="evenodd" clip-rule="evenodd" d="M183.171 23.3621C184.346 23.3621 185.477 23.8133 186.329 24.6224C186.393 24.6848 186.495 24.684 186.558 24.6206L187.171 24.0024C187.203 23.9702 187.221 23.9266 187.221 23.8813C187.221 23.8359 187.202 23.7925 187.17 23.7607C184.934 21.6201 181.408 21.6201 179.172 23.7607C179.14 23.7925 179.121 23.8359 179.121 23.8812C179.121 23.9266 179.139 23.9702 179.171 24.0024L179.784 24.6206C179.847 24.6841 179.95 24.6849 180.014 24.6224C180.866 23.8132 181.996 23.3621 183.171 23.3621ZM183.171 25.3734C183.817 25.3734 184.44 25.6132 184.918 26.0463C184.983 26.1077 185.085 26.1064 185.148 26.0432L185.76 25.425C185.793 25.3926 185.811 25.3486 185.81 25.3029C185.81 25.2572 185.791 25.2136 185.758 25.1818C184.3 23.8271 182.043 23.8271 180.586 25.1818C180.553 25.2136 180.534 25.2572 180.534 25.3029C180.533 25.3486 180.551 25.3926 180.583 25.425L181.196 26.0432C181.259 26.1064 181.361 26.1077 181.425 26.0463C181.904 25.6135 182.526 25.3737 183.171 25.3734ZM184.398 26.7267C184.399 26.7726 184.381 26.8168 184.348 26.8489L183.289 27.917C183.258 27.9484 183.215 27.9661 183.171 27.9661C183.127 27.9661 183.085 27.9484 183.054 27.917L181.994 26.8489C181.961 26.8168 181.943 26.7725 181.944 26.7267C181.945 26.6809 181.965 26.6375 181.999 26.6067C182.676 26.035 183.667 26.035 184.343 26.6067C184.377 26.6375 184.397 26.6809 184.398 26.7267Z" fill="black"/>
<path fill-rule="evenodd" clip-rule="evenodd" d="M175.952 22.3328H175.424C175.132 22.3328 174.896 22.5693 174.896 22.861V27.4392C174.896 27.731 175.132 27.9675 175.424 27.9675H175.952C176.244 27.9675 176.48 27.731 176.48 27.4392V22.861C176.48 22.5693 176.244 22.3328 175.952 22.3328ZM172.959 23.5654H173.487C173.779 23.5654 174.015 23.8019 174.015 24.0936V27.4392C174.015 27.731 173.779 27.9675 173.487 27.9675H172.959C172.667 27.9675 172.43 27.731 172.43 27.4392V24.0936C172.43 23.8019 172.667 23.5654 172.959 23.5654ZM171.022 24.798H170.493C170.202 24.798 169.965 25.0345 169.965 25.3262V27.4392C169.965 27.731 170.202 27.9675 170.493 27.9675H171.022C171.313 27.9675 171.55 27.731 171.55 27.4392V25.3262C171.55 25.0345 171.313 24.798 171.022 24.798ZM168.557 25.8545H168.028C167.737 25.8545 167.5 26.091 167.5 26.3827V27.4392C167.5 27.731 167.737 27.9675 168.028 27.9675H168.557C168.848 27.9675 169.085 27.731 169.085 27.4392V26.3827C169.085 26.091 168.848 25.8545 168.557 25.8545Z" fill="black"/>
<path d="M31.7819 27.9267C33.2018 27.9267 34.0453 26.8163 34.0453 24.9321C34.0453 23.0827 33.1477 22.069 31.8128 22.069C30.5979 22.069 29.739 22.8853 29.739 24.0267C29.739 25.0984 30.5128 25.88 31.5768 25.88C32.2307 25.88 32.7607 25.5782 33.0238 25.0481H33.0896C33.078 26.3598 32.6099 27.1103 31.7935 27.1103C31.3137 27.1103 30.9307 26.8473 30.8107 26.4217H29.8164C29.9789 27.3309 30.7604 27.9267 31.7819 27.9267ZM31.8167 25.11C31.1667 25.11 30.7179 24.6535 30.7179 23.9958C30.7179 23.3651 31.1899 22.8815 31.8206 22.8815C32.4512 22.8815 32.9232 23.3728 32.9232 24.0151C32.9232 24.6496 32.4628 25.11 31.8167 25.11Z" fill="black"/>
<path d="M35.7099 25.0288C36.0774 25.0288 36.3289 24.7696 36.3289 24.4291C36.3289 24.0847 36.0774 23.8294 35.7099 23.8294C35.3462 23.8294 35.0908 24.0847 35.0908 24.4291C35.0908 24.7696 35.3462 25.0288 35.7099 25.0288ZM35.7099 27.8687C36.0774 27.8687 36.3289 27.6095 36.3289 27.2651C36.3289 26.9246 36.0774 26.6654 35.7099 26.6654C35.3462 26.6654 35.0908 26.9246 35.0908 27.2651C35.0908 27.6095 35.3462 27.8687 35.7099 27.8687Z" fill="black"/>
<path d="M39.9822 27.7913H40.9379V26.7196H41.6923V25.8955H40.9379V22.2083H39.5295C38.7712 23.3612 37.978 24.6458 37.2545 25.9032V26.7196H39.9822V27.7913ZM38.1792 25.8606C38.7248 24.9127 39.3709 23.8797 39.9435 23.0053H39.9977V25.9187H38.1792V25.8606Z" fill="black"/>
<path d="M43.8522 27.7913H44.8504V22.2083H43.856L42.3974 23.2336V24.1737L43.7864 23.191H43.8522V27.7913Z" fill="black"/>
<path d="M95.6301 42.8592H96.4743L97.942 46.4429H97.996L99.4637 42.8592H100.308V47.4694H99.6461V44.1333H99.6033L98.2437 47.4626H97.6944L96.3347 44.131H96.292V47.4694H95.6301V42.8592ZM101.691 48.766C101.59 48.766 101.499 48.7578 101.416 48.7413C101.333 48.7263 101.272 48.7097 101.231 48.6917L101.393 48.1402C101.517 48.1732 101.626 48.1875 101.722 48.183C101.818 48.1785 101.903 48.1425 101.977 48.0749C102.052 48.0074 102.118 47.8971 102.175 47.744L102.258 47.5144L100.993 44.0117H101.713L102.589 46.695H102.625L103.501 44.0117H104.223L102.798 47.9309C102.732 48.111 102.648 48.2633 102.546 48.3878C102.444 48.5139 102.322 48.6084 102.181 48.6715C102.04 48.7345 101.877 48.766 101.691 48.766ZM106.587 47.4694V42.8592H108.231C108.589 42.8592 108.886 42.9245 109.122 43.055C109.358 43.1856 109.534 43.3642 109.651 43.5908C109.768 43.8159 109.827 44.0695 109.827 44.3516C109.827 44.6353 109.767 44.8904 109.649 45.117C109.532 45.3421 109.355 45.5207 109.118 45.6528C108.882 45.7833 108.586 45.8486 108.228 45.8486H107.098V45.2588H108.165C108.392 45.2588 108.576 45.2198 108.717 45.1418C108.858 45.0622 108.961 44.9542 109.027 44.8176C109.094 44.681 109.127 44.5257 109.127 44.3516C109.127 44.1776 109.094 44.023 109.027 43.8879C108.961 43.7529 108.857 43.647 108.715 43.5705C108.574 43.494 108.387 43.4557 108.156 43.4557H107.283V47.4694H106.587ZM110.588 47.4694V44.0117H111.239V44.561H111.275C111.338 44.3749 111.449 44.2286 111.608 44.122C111.768 44.014 111.95 43.96 112.153 43.96C112.195 43.96 112.244 43.9615 112.301 43.9645C112.36 43.9675 112.405 43.9712 112.438 43.9757V44.6195C112.411 44.612 112.363 44.6038 112.294 44.5948C112.225 44.5843 112.156 44.579 112.087 44.579C111.928 44.579 111.786 44.6128 111.662 44.6803C111.539 44.7463 111.441 44.8386 111.369 44.9572C111.297 45.0742 111.261 45.2078 111.261 45.3579V47.4694H110.588ZM114.354 47.5392C114.029 47.5392 113.747 47.4649 113.505 47.3163C113.263 47.1678 113.076 46.9599 112.942 46.6928C112.809 46.4256 112.742 46.1135 112.742 45.7563C112.742 45.3976 112.809 45.084 112.942 44.8154C113.076 44.5467 113.263 44.3381 113.505 44.1896C113.747 44.041 114.029 43.9667 114.354 43.9667C114.678 43.9667 114.961 44.041 115.202 44.1896C115.444 44.3381 115.631 44.5467 115.765 44.8154C115.899 45.084 115.965 45.3976 115.965 45.7563C115.965 46.1135 115.899 46.4256 115.765 46.6928C115.631 46.9599 115.444 47.1678 115.202 47.3163C114.961 47.4649 114.678 47.5392 114.354 47.5392ZM114.356 46.9742C114.566 46.9742 114.74 46.9186 114.878 46.8076C115.016 46.6965 115.118 46.5487 115.184 46.3641C115.252 46.1795 115.286 45.9762 115.286 45.7541C115.286 45.5335 115.252 45.3309 115.184 45.1463C115.118 44.9602 115.016 44.8109 114.878 44.6983C114.74 44.5858 114.566 44.5295 114.356 44.5295C114.144 44.5295 113.969 44.5858 113.829 44.6983C113.691 44.8109 113.588 44.9602 113.521 45.1463C113.455 45.3309 113.422 45.5335 113.422 45.7541C113.422 45.9762 113.455 46.1795 113.521 46.3641C113.588 46.5487 113.691 46.6965 113.829 46.8076C113.969 46.9186 114.144 46.9742 114.356 46.9742ZM118.362 44.0117V44.552H116.408V44.0117H118.362ZM116.944 47.4694V43.611C116.944 43.3949 116.991 43.2156 117.086 43.073C117.18 42.929 117.306 42.8217 117.462 42.7511C117.618 42.6791 117.787 42.6431 117.971 42.6431C118.106 42.6431 118.221 42.6543 118.317 42.6768C118.413 42.6978 118.485 42.7173 118.531 42.7354L118.373 43.2801C118.342 43.2711 118.301 43.2606 118.252 43.2486C118.202 43.2351 118.142 43.2283 118.072 43.2283C117.908 43.2283 117.791 43.2689 117.721 43.3499C117.652 43.4309 117.617 43.548 117.617 43.7011V47.4694H116.944ZM119.057 47.4694V44.0117H119.73V47.4694H119.057ZM119.397 43.4782C119.28 43.4782 119.179 43.4392 119.095 43.3612C119.012 43.2816 118.971 43.1871 118.971 43.0775C118.971 42.9665 119.012 42.8719 119.095 42.7939C119.179 42.7143 119.28 42.6746 119.397 42.6746C119.514 42.6746 119.613 42.7143 119.696 42.7939C119.78 42.8719 119.822 42.9665 119.822 43.0775C119.822 43.1871 119.78 43.2816 119.696 43.3612C119.613 43.4392 119.514 43.4782 119.397 43.4782ZM121.308 42.8592V47.4694H120.635V42.8592H121.308ZM123.704 47.5392C123.363 47.5392 123.07 47.4664 122.824 47.3208C122.579 47.1738 122.39 46.9674 122.257 46.7018C122.125 46.4346 122.058 46.1217 122.058 45.7631C122.058 45.4089 122.125 45.0968 122.257 44.8266C122.39 44.5565 122.576 44.3456 122.815 44.1941C123.055 44.0425 123.336 43.9667 123.657 43.9667C123.852 43.9667 124.041 43.999 124.224 44.0635C124.407 44.128 124.571 44.2293 124.717 44.3674C124.863 44.5055 124.977 44.6848 125.061 44.9054C125.145 45.1245 125.187 45.3909 125.187 45.7045V45.9432H122.439V45.4389H124.528C124.528 45.2618 124.492 45.105 124.42 44.9684C124.348 44.8304 124.247 44.7216 124.116 44.642C123.987 44.5625 123.835 44.5227 123.661 44.5227C123.472 44.5227 123.307 44.5692 123.166 44.6623C123.026 44.7538 122.918 44.8739 122.842 45.0225C122.767 45.1695 122.729 45.3294 122.729 45.5019V45.8959C122.729 46.127 122.77 46.3236 122.851 46.4857C122.933 46.6478 123.048 46.7716 123.195 46.8571C123.342 46.9411 123.514 46.9832 123.711 46.9832C123.838 46.9832 123.955 46.9652 124.06 46.9291C124.165 46.8916 124.256 46.8361 124.332 46.7626C124.409 46.689 124.467 46.5982 124.508 46.4902L125.145 46.605C125.094 46.7926 125.002 46.9569 124.87 47.098C124.74 47.2375 124.575 47.3463 124.377 47.4244C124.181 47.5009 123.956 47.5392 123.704 47.5392Z" fill="#333333"/>
<path d="M166.062 426.644V420.497H168.253C168.731 420.497 169.128 420.584 169.442 420.758C169.756 420.932 169.991 421.17 170.147 421.473C170.303 421.773 170.381 422.111 170.381 422.487C170.381 422.865 170.302 423.205 170.144 423.508C169.988 423.808 169.752 424.046 169.436 424.222C169.122 424.396 168.726 424.483 168.25 424.483H166.743V423.697H168.166C168.468 423.697 168.713 423.645 168.901 423.541C169.09 423.434 169.228 423.29 169.316 423.108C169.404 422.926 169.448 422.719 169.448 422.487C169.448 422.255 169.404 422.049 169.316 421.869C169.228 421.689 169.089 421.548 168.898 421.446C168.71 421.343 168.462 421.292 168.154 421.292H166.989V426.644H166.062ZM171.396 426.644V422.034H172.264V422.766H172.312C172.396 422.518 172.544 422.323 172.756 422.181C172.97 422.037 173.212 421.965 173.482 421.965C173.538 421.965 173.604 421.967 173.68 421.971C173.759 421.975 173.82 421.98 173.864 421.986V422.844C173.828 422.834 173.764 422.823 173.671 422.811C173.579 422.797 173.487 422.79 173.395 422.79C173.183 422.79 172.994 422.835 172.828 422.925C172.664 423.013 172.534 423.136 172.438 423.294C172.342 423.45 172.294 423.629 172.294 423.829V426.644H171.396ZM176.417 426.737C175.985 426.737 175.608 426.638 175.286 426.44C174.963 426.242 174.713 425.965 174.535 425.609C174.357 425.252 174.268 424.836 174.268 424.36C174.268 423.882 174.357 423.464 174.535 423.105C174.713 422.747 174.963 422.469 175.286 422.271C175.608 422.073 175.985 421.974 176.417 421.974C176.849 421.974 177.226 422.073 177.549 422.271C177.871 422.469 178.121 422.747 178.299 423.105C178.477 423.464 178.566 423.882 178.566 424.36C178.566 424.836 178.477 425.252 178.299 425.609C178.121 425.965 177.871 426.242 177.549 426.44C177.226 426.638 176.849 426.737 176.417 426.737ZM176.42 425.984C176.7 425.984 176.932 425.91 177.116 425.762C177.3 425.614 177.437 425.416 177.525 425.17C177.615 424.924 177.66 424.653 177.66 424.357C177.66 424.063 177.615 423.793 177.525 423.547C177.437 423.298 177.3 423.099 177.116 422.949C176.932 422.799 176.7 422.724 176.42 422.724C176.138 422.724 175.904 422.799 175.718 422.949C175.534 423.099 175.397 423.298 175.307 423.547C175.218 423.793 175.174 424.063 175.174 424.357C175.174 424.653 175.218 424.924 175.307 425.17C175.397 425.416 175.534 425.614 175.718 425.762C175.904 425.91 176.138 425.984 176.42 425.984ZM181.762 422.034V422.754H179.157V422.034H181.762ZM179.871 426.644V421.5C179.871 421.211 179.934 420.972 180.06 420.782C180.186 420.59 180.353 420.447 180.561 420.353C180.769 420.257 180.996 420.209 181.24 420.209C181.42 420.209 181.574 420.224 181.702 420.254C181.83 420.282 181.925 420.308 181.987 420.332L181.777 421.058C181.735 421.046 181.681 421.032 181.615 421.016C181.549 420.998 181.469 420.989 181.375 420.989C181.157 420.989 181.001 421.043 180.906 421.151C180.814 421.259 180.768 421.416 180.768 421.62V426.644H179.871ZM182.688 426.644V422.034H183.585V426.644H182.688ZM183.141 421.322C182.985 421.322 182.851 421.27 182.739 421.166C182.629 421.06 182.574 420.934 182.574 420.788C182.574 420.64 182.629 420.514 182.739 420.41C182.851 420.304 182.985 420.251 183.141 420.251C183.297 420.251 183.43 420.304 183.54 420.41C183.652 420.514 183.708 420.64 183.708 420.788C183.708 420.934 183.652 421.06 183.54 421.166C183.43 421.27 183.297 421.322 183.141 421.322ZM185.69 420.497V426.644H184.793V420.497H185.69ZM188.884 426.737C188.43 426.737 188.039 426.64 187.711 426.446C187.385 426.25 187.132 425.975 186.954 425.621C186.778 425.264 186.69 424.847 186.69 424.369C186.69 423.897 186.778 423.481 186.954 423.12C187.132 422.76 187.381 422.479 187.699 422.277C188.019 422.075 188.393 421.974 188.821 421.974C189.081 421.974 189.334 422.017 189.578 422.103C189.822 422.189 190.041 422.324 190.235 422.508C190.429 422.692 190.582 422.931 190.694 423.225C190.806 423.518 190.862 423.873 190.862 424.291V424.609H187.198V423.937H189.983C189.983 423.701 189.935 423.492 189.839 423.309C189.743 423.125 189.608 422.98 189.434 422.874C189.262 422.768 189.059 422.715 188.827 422.715C188.575 422.715 188.355 422.777 188.167 422.901C187.981 423.023 187.837 423.183 187.735 423.381C187.635 423.578 187.585 423.791 187.585 424.021V424.546C187.585 424.854 187.639 425.116 187.747 425.332C187.857 425.549 188.01 425.714 188.206 425.828C188.402 425.94 188.631 425.996 188.893 425.996C189.063 425.996 189.218 425.972 189.359 425.924C189.499 425.874 189.62 425.8 189.722 425.702C189.824 425.604 189.902 425.482 189.956 425.338L190.805 425.491C190.737 425.742 190.615 425.961 190.439 426.149C190.265 426.335 190.046 426.48 189.782 426.584C189.52 426.686 189.22 426.737 188.884 426.737Z" fill="white"/>
<path d="M38.088 418.616L35.2407 420.835C34.7653 421.204 34.3796 421.992 34.3796 422.588V426.503C34.3796 427.728 35.378 428.732 36.6036 428.732H42.7208C43.9463 428.732 44.9447 427.728 44.9447 426.508V422.662C44.9447 422.023 44.5169 421.204 43.9939 420.84L40.7293 418.553C39.9897 418.035 38.8011 418.061 38.088 418.616Z" stroke="white" stroke-width="0.792383" stroke-linecap="round" stroke-linejoin="round"/>
<path d="M153.828 423.867C153.791 423.862 153.744 423.862 153.701 423.867C152.772 423.835 152.032 423.074 152.032 422.139C152.032 421.183 152.803 420.407 153.765 420.407C154.721 420.407 155.497 421.183 155.497 422.139C155.492 423.074 154.758 423.835 153.828 423.867Z" stroke="white" stroke-width="0.792383" stroke-linecap="round" stroke-linejoin="round"/>
<path d="M157.325 427.353C156.385 428.214 155.138 428.737 153.765 428.737C152.391 428.737 151.144 428.214 150.204 427.353C150.257 426.857 150.574 426.371 151.139 425.99C152.587 425.029 154.953 425.029 156.39 425.99C156.955 426.371 157.272 426.857 157.325 427.353Z" stroke="white" stroke-width="0.792383" stroke-linecap="round" stroke-linejoin="round"/>
<path d="M153.764 428.737C156.682 428.737 159.047 426.372 159.047 423.455C159.047 420.537 156.682 418.172 153.764 418.172C150.847 418.172 148.482 420.537 148.482 423.455C148.482 426.372 150.847 428.737 153.764 428.737Z" stroke="white" stroke-width="0.792383" stroke-linecap="round" stroke-linejoin="round"/>
<path d="M73.2698 421.601C74.3105 417.026 81.088 417.031 82.1234 421.606C82.7309 424.289 81.0616 426.561 79.5983 427.966C78.5365 428.991 76.8567 428.991 75.7896 427.966C74.3316 426.561 72.6623 424.284 73.2698 421.601Z" stroke="white" stroke-width="0.792383"/>
<path d="M76.2441 423.191L77.0365 423.983L79.1495 421.87" stroke="white" stroke-width="0.792383" stroke-linecap="round" stroke-linejoin="round"/>
<path d="M110.447 423.777H119.428" stroke="white" stroke-width="0.792383" stroke-miterlimit="10" stroke-linecap="round" stroke-linejoin="round"/>
<path d="M119.428 422.546V426.323C119.412 427.829 119 428.209 117.431 428.209H112.444C110.849 428.209 110.447 427.813 110.447 426.239V422.546C110.447 421.12 110.78 420.66 112.032 420.586C112.159 420.581 112.296 420.576 112.444 420.576H117.431C119.026 420.576 119.428 420.972 119.428 422.546Z" stroke="white" stroke-width="0.792383" stroke-linecap="round" stroke-linejoin="round"/>
<path d="M121.013 420.671V424.363C121.013 425.79 120.68 426.249 119.428 426.323V422.546C119.428 420.972 119.026 420.576 117.431 420.576H112.444C112.296 420.576 112.159 420.581 112.032 420.586C112.048 419.081 112.46 418.7 114.029 418.7H119.016C120.611 418.7 121.013 419.097 121.013 420.671Z" stroke="white" stroke-width="0.792383" stroke-linecap="round" stroke-linejoin="round"/>
<path d="M112.164 426.524H113.073" stroke="white" stroke-width="0.792383" stroke-miterlimit="10" stroke-linecap="round" stroke-linejoin="round"/>
<path d="M114.203 426.524H116.021" stroke="white" stroke-width="0.792383" stroke-miterlimit="10" stroke-linecap="round" stroke-linejoin="round"/>
<rect x="82.9785" y="213.737" width="57.3563" height="27.7346" rx="13.8673" fill="#333333"/>
<path d="M99.6847 226.072C99.6527 225.788 99.5206 225.568 99.2885 225.412C99.0564 225.254 98.7642 225.175 98.4121 225.175C98.1599 225.175 97.9418 225.215 97.7578 225.295C97.5737 225.373 97.4306 225.481 97.3285 225.619C97.2285 225.755 97.1785 225.91 97.1785 226.084C97.1785 226.23 97.2125 226.356 97.2805 226.462C97.3506 226.568 97.4416 226.657 97.5537 226.73C97.6677 226.8 97.7898 226.859 97.9198 226.907C98.0499 226.953 98.175 226.991 98.295 227.021L98.8953 227.177C99.0914 227.225 99.2925 227.29 99.4986 227.372C99.7047 227.454 99.8958 227.562 100.072 227.696C100.248 227.83 100.39 227.996 100.498 228.194C100.608 228.392 100.663 228.629 100.663 228.906C100.663 229.254 100.573 229.563 100.393 229.833C100.215 230.103 99.9558 230.316 99.6157 230.472C99.2775 230.628 98.8683 230.706 98.3881 230.706C97.9278 230.706 97.5296 230.633 97.1935 230.487C96.8573 230.341 96.5942 230.134 96.4041 229.866C96.214 229.596 96.109 229.276 96.0889 228.906H97.0194C97.0374 229.128 97.1094 229.313 97.2355 229.461C97.3636 229.607 97.5266 229.716 97.7247 229.788C97.9248 229.858 98.1439 229.893 98.3821 229.893C98.6442 229.893 98.8773 229.852 99.0814 229.77C99.2875 229.686 99.4496 229.57 99.5676 229.422C99.6857 229.272 99.7447 229.097 99.7447 228.897C99.7447 228.714 99.6927 228.565 99.5886 228.449C99.4866 228.333 99.3475 228.237 99.1714 228.161C98.9974 228.085 98.8003 228.018 98.5802 227.96L97.8538 227.762C97.3616 227.628 96.9714 227.431 96.6832 227.171C96.3971 226.911 96.254 226.566 96.254 226.138C96.254 225.784 96.3501 225.475 96.5422 225.211C96.7343 224.947 96.9944 224.742 97.3225 224.595C97.6507 224.447 98.0209 224.373 98.4331 224.373C98.8493 224.373 99.2165 224.446 99.5346 224.592C99.8548 224.739 100.107 224.94 100.291 225.196C100.475 225.45 100.571 225.742 100.579 226.072H99.6847ZM101.699 230.604V225.994H102.597V230.604H101.699ZM102.153 225.283C101.997 225.283 101.862 225.231 101.75 225.127C101.64 225.021 101.585 224.895 101.585 224.749C101.585 224.6 101.64 224.474 101.75 224.37C101.862 224.264 101.997 224.211 102.153 224.211C102.309 224.211 102.442 224.264 102.552 224.37C102.664 224.474 102.72 224.6 102.72 224.749C102.72 224.895 102.664 225.021 102.552 225.127C102.442 225.231 102.309 225.283 102.153 225.283ZM105.737 232.429C105.371 232.429 105.056 232.381 104.792 232.285C104.53 232.189 104.315 232.062 104.149 231.904C103.983 231.746 103.859 231.573 103.777 231.385L104.549 231.067C104.603 231.155 104.675 231.248 104.765 231.346C104.857 231.446 104.981 231.531 105.137 231.601C105.295 231.671 105.498 231.706 105.746 231.706C106.086 231.706 106.367 231.623 106.59 231.457C106.812 231.293 106.923 231.031 106.923 230.67V229.764H106.866C106.812 229.862 106.734 229.971 106.632 230.091C106.531 230.211 106.393 230.315 106.217 230.403C106.041 230.491 105.812 230.535 105.53 230.535C105.166 230.535 104.838 230.45 104.546 230.28C104.255 230.108 104.025 229.855 103.855 229.521C103.687 229.185 103.603 228.771 103.603 228.281C103.603 227.791 103.686 227.371 103.852 227.021C104.02 226.67 104.25 226.402 104.543 226.216C104.835 226.028 105.166 225.934 105.536 225.934C105.822 225.934 106.053 225.982 106.229 226.078C106.405 226.172 106.543 226.282 106.641 226.408C106.741 226.534 106.818 226.645 106.872 226.742H106.938V225.994H107.817V230.706C107.817 231.103 107.725 231.428 107.541 231.682C107.357 231.936 107.108 232.124 106.794 232.246C106.481 232.368 106.129 232.429 105.737 232.429ZM105.728 229.791C105.986 229.791 106.204 229.731 106.382 229.611C106.563 229.489 106.699 229.315 106.791 229.089C106.885 228.861 106.932 228.587 106.932 228.269C106.932 227.959 106.886 227.686 106.794 227.45C106.702 227.214 106.567 227.03 106.388 226.898C106.21 226.764 105.99 226.696 105.728 226.696C105.458 226.696 105.233 226.767 105.053 226.907C104.873 227.045 104.737 227.233 104.645 227.471C104.555 227.709 104.51 227.975 104.51 228.269C104.51 228.571 104.556 228.837 104.648 229.065C104.74 229.293 104.876 229.471 105.056 229.599C105.238 229.727 105.462 229.791 105.728 229.791ZM109.918 227.867V230.604H109.021V225.994H109.882V226.745H109.939C110.045 226.5 110.211 226.304 110.437 226.156C110.665 226.008 110.953 225.934 111.299 225.934C111.613 225.934 111.888 226 112.124 226.132C112.36 226.262 112.543 226.456 112.673 226.715C112.804 226.973 112.869 227.292 112.869 227.672V230.604H111.971V227.78C111.971 227.446 111.884 227.185 111.71 226.997C111.536 226.807 111.297 226.712 110.993 226.712C110.785 226.712 110.599 226.757 110.437 226.847C110.277 226.937 110.15 227.069 110.056 227.243C109.964 227.415 109.918 227.623 109.918 227.867ZM120.334 224.457H121.264V228.5C121.264 228.931 121.163 229.312 120.961 229.644C120.759 229.974 120.475 230.234 120.109 230.424C119.743 230.612 119.313 230.706 118.821 230.706C118.331 230.706 117.903 230.612 117.537 230.424C117.17 230.234 116.886 229.974 116.684 229.644C116.482 229.312 116.381 228.931 116.381 228.5V224.457H117.308V228.425C117.308 228.703 117.369 228.951 117.492 229.167C117.616 229.383 117.791 229.553 118.017 229.677C118.243 229.799 118.511 229.86 118.821 229.86C119.133 229.86 119.402 229.799 119.629 229.677C119.857 229.553 120.031 229.383 120.151 229.167C120.273 228.951 120.334 228.703 120.334 228.425V224.457ZM122.541 232.333V225.994H123.417V226.742H123.492C123.544 226.645 123.619 226.534 123.717 226.408C123.815 226.282 123.951 226.172 124.126 226.078C124.3 225.982 124.53 225.934 124.816 225.934C125.188 225.934 125.52 226.028 125.812 226.216C126.104 226.404 126.334 226.675 126.5 227.03C126.668 227.384 126.752 227.81 126.752 228.308C126.752 228.807 126.669 229.234 126.503 229.59C126.337 229.944 126.108 230.217 125.818 230.409C125.528 230.599 125.197 230.694 124.825 230.694C124.545 230.694 124.316 230.647 124.138 230.553C123.961 230.459 123.823 230.349 123.723 230.223C123.623 230.097 123.546 229.985 123.492 229.887H123.438V232.333H122.541ZM123.42 228.299C123.42 228.623 123.467 228.908 123.561 229.152C123.655 229.396 123.791 229.587 123.969 229.725C124.148 229.861 124.366 229.929 124.624 229.929C124.892 229.929 125.116 229.858 125.296 229.716C125.476 229.572 125.612 229.377 125.704 229.131C125.798 228.885 125.845 228.607 125.845 228.299C125.845 227.995 125.799 227.722 125.707 227.48C125.617 227.238 125.481 227.047 125.299 226.907C125.119 226.767 124.894 226.696 124.624 226.696C124.364 226.696 124.144 226.764 123.963 226.898C123.785 227.032 123.65 227.219 123.558 227.459C123.466 227.699 123.42 227.979 123.42 228.299Z" fill="white"/>
<rect x="71.3564" y="361.12" width="80.3563" height="27.7346" rx="13.8673" fill="#333333"/>
<path d="M86.7 377.988H84.71V371.841H86.763C87.3653 371.841 87.8825 371.964 88.3147 372.21C88.7469 372.454 89.0781 372.805 89.3082 373.263C89.5403 373.72 89.6564 374.267 89.6564 374.905C89.6564 375.545 89.5393 376.096 89.3052 376.556C89.0731 377.016 88.7369 377.37 88.2967 377.618C87.8565 377.865 87.3243 377.988 86.7 377.988ZM85.6374 377.177H86.6489C87.1172 377.177 87.5063 377.089 87.8165 376.913C88.1266 376.735 88.3588 376.478 88.5128 376.142C88.6669 375.804 88.7439 375.391 88.7439 374.905C88.7439 374.423 88.6669 374.014 88.5128 373.678C88.3608 373.341 88.1337 373.086 87.8315 372.912C87.5294 372.738 87.1542 372.651 86.706 372.651H85.6374V377.177ZM92.7246 378.081C92.2704 378.081 91.8792 377.984 91.5511 377.79C91.2249 377.593 90.9728 377.318 90.7947 376.964C90.6186 376.608 90.5306 376.191 90.5306 375.713C90.5306 375.24 90.6186 374.824 90.7947 374.464C90.9728 374.104 91.2209 373.823 91.539 373.621C91.8592 373.418 92.2334 373.317 92.6616 373.317C92.9217 373.317 93.1738 373.36 93.418 373.446C93.6621 373.533 93.8812 373.668 94.0753 373.852C94.2694 374.036 94.4224 374.275 94.5345 374.569C94.6466 374.861 94.7026 375.216 94.7026 375.635V375.953H91.0378V375.28H93.8232C93.8232 375.044 93.7751 374.835 93.6791 374.653C93.583 374.469 93.448 374.324 93.2739 374.218C93.1018 374.112 92.8997 374.059 92.6676 374.059C92.4155 374.059 92.1954 374.121 92.0073 374.245C91.8212 374.367 91.6771 374.527 91.5751 374.725C91.475 374.921 91.425 375.134 91.425 375.364V375.89C91.425 376.198 91.479 376.46 91.5871 376.676C91.6971 376.892 91.8502 377.057 92.0463 377.171C92.2424 377.283 92.4715 377.339 92.7336 377.339C92.9037 377.339 93.0588 377.315 93.1989 377.267C93.3389 377.217 93.46 377.143 93.562 377.045C93.6641 376.947 93.7421 376.826 93.7961 376.682L94.6456 376.835C94.5775 377.085 94.4555 377.304 94.2794 377.492C94.1053 377.679 93.8862 377.824 93.6221 377.928C93.3599 378.03 93.0608 378.081 92.7246 378.081ZM96.5957 371.841V377.988H95.6983V371.841H96.5957ZM99.79 378.081C99.3358 378.081 98.9446 377.984 98.6165 377.79C98.2903 377.593 98.0382 377.318 97.8601 376.964C97.684 376.608 97.596 376.191 97.596 375.713C97.596 375.24 97.684 374.824 97.8601 374.464C98.0382 374.104 98.2863 373.823 98.6045 373.621C98.9246 373.418 99.2988 373.317 99.727 373.317C99.9871 373.317 100.239 373.36 100.483 373.446C100.727 373.533 100.947 373.668 101.141 373.852C101.335 374.036 101.488 374.275 101.6 374.569C101.712 374.861 101.768 375.216 101.768 375.635V375.953H98.1032V375.28H100.889C100.889 375.044 100.841 374.835 100.745 374.653C100.648 374.469 100.513 374.324 100.339 374.218C100.167 374.112 99.9651 374.059 99.733 374.059C99.4809 374.059 99.2608 374.121 99.0727 374.245C98.8866 374.367 98.7425 374.527 98.6405 374.725C98.5404 374.921 98.4904 375.134 98.4904 375.364V375.89C98.4904 376.198 98.5444 376.46 98.6525 376.676C98.7625 376.892 98.9156 377.057 99.1117 377.171C99.3078 377.283 99.5369 377.339 99.799 377.339C99.9691 377.339 100.124 377.315 100.264 377.267C100.404 377.217 100.525 377.143 100.627 377.045C100.729 376.947 100.808 376.826 100.862 376.682L101.711 376.835C101.643 377.085 101.521 377.304 101.345 377.492C101.171 377.679 100.952 377.824 100.687 377.928C100.425 378.03 100.126 378.081 99.79 378.081ZM104.916 373.377V374.098H102.398V373.377H104.916ZM103.073 372.273H103.97V376.634C103.97 376.808 103.996 376.939 104.048 377.027C104.1 377.113 104.167 377.172 104.249 377.204C104.333 377.234 104.425 377.249 104.523 377.249C104.595 377.249 104.658 377.244 104.712 377.234C104.766 377.224 104.808 377.216 104.838 377.21L105 377.952C104.948 377.972 104.874 377.992 104.778 378.012C104.682 378.034 104.562 378.046 104.418 378.048C104.181 378.052 103.961 378.01 103.757 377.922C103.553 377.834 103.388 377.698 103.262 377.513C103.136 377.329 103.073 377.098 103.073 376.82V372.273ZM107.846 378.081C107.392 378.081 107.001 377.984 106.672 377.79C106.346 377.593 106.094 377.318 105.916 376.964C105.74 376.608 105.652 376.191 105.652 375.713C105.652 375.24 105.74 374.824 105.916 374.464C106.094 374.104 106.342 373.823 106.66 373.621C106.981 373.418 107.355 373.317 107.783 373.317C108.043 373.317 108.295 373.36 108.539 373.446C108.783 373.533 109.002 373.668 109.197 373.852C109.391 374.036 109.544 374.275 109.656 374.569C109.768 374.861 109.824 375.216 109.824 375.635V375.953H106.159V375.28H108.944C108.944 375.044 108.896 374.835 108.8 374.653C108.704 374.469 108.569 374.324 108.395 374.218C108.223 374.112 108.021 374.059 107.789 374.059C107.537 374.059 107.317 374.121 107.129 374.245C106.942 374.367 106.798 374.527 106.696 374.725C106.596 374.921 106.546 375.134 106.546 375.364V375.89C106.546 376.198 106.6 376.46 106.708 376.676C106.818 376.892 106.972 377.057 107.168 377.171C107.364 377.283 107.593 377.339 107.855 377.339C108.025 377.339 108.18 377.315 108.32 377.267C108.46 377.217 108.581 377.143 108.683 377.045C108.785 376.947 108.863 376.826 108.917 376.682L109.767 376.835C109.699 377.085 109.577 377.304 109.401 377.492C109.227 377.679 109.007 377.824 108.743 377.928C108.481 378.03 108.182 378.081 107.846 378.081ZM113.128 377.988V371.841H115.32C115.798 371.841 116.194 371.928 116.508 372.102C116.822 372.276 117.057 372.514 117.213 372.816C117.37 373.116 117.448 373.454 117.448 373.831C117.448 374.209 117.369 374.549 117.21 374.851C117.054 375.151 116.818 375.389 116.502 375.565C116.188 375.74 115.793 375.827 115.317 375.827H113.81V375.04H115.233C115.535 375.04 115.78 374.988 115.968 374.884C116.156 374.778 116.294 374.634 116.382 374.452C116.47 374.27 116.514 374.063 116.514 373.831C116.514 373.599 116.47 373.392 116.382 373.212C116.294 373.032 116.155 372.891 115.965 372.789C115.777 372.687 115.529 372.636 115.221 372.636H114.056V377.988H113.128ZM118.463 377.988V373.377H119.33V374.11H119.378C119.462 373.862 119.61 373.667 119.822 373.525C120.037 373.38 120.279 373.308 120.549 373.308C120.605 373.308 120.671 373.31 120.747 373.314C120.825 373.318 120.886 373.323 120.93 373.329V374.188C120.894 374.178 120.83 374.167 120.738 374.155C120.646 374.141 120.554 374.134 120.462 374.134C120.25 374.134 120.061 374.179 119.895 374.269C119.73 374.357 119.6 374.48 119.504 374.638C119.408 374.794 119.36 374.972 119.36 375.172V377.988H118.463ZM123.483 378.081C123.051 378.081 122.674 377.982 122.352 377.784C122.03 377.585 121.78 377.308 121.602 376.952C121.424 376.596 121.334 376.18 121.334 375.704C121.334 375.225 121.424 374.807 121.602 374.449C121.78 374.091 122.03 373.813 122.352 373.615C122.674 373.416 123.051 373.317 123.483 373.317C123.916 373.317 124.293 373.416 124.615 373.615C124.937 373.813 125.187 374.091 125.365 374.449C125.543 374.807 125.633 375.225 125.633 375.704C125.633 376.18 125.543 376.596 125.365 376.952C125.187 377.308 124.937 377.585 124.615 377.784C124.293 377.982 123.916 378.081 123.483 378.081ZM123.486 377.327C123.767 377.327 123.999 377.253 124.183 377.105C124.367 376.957 124.503 376.76 124.591 376.514C124.681 376.268 124.726 375.997 124.726 375.701C124.726 375.406 124.681 375.136 124.591 374.89C124.503 374.642 124.367 374.443 124.183 374.293C123.999 374.143 123.767 374.068 123.486 374.068C123.204 374.068 122.97 374.143 122.784 374.293C122.6 374.443 122.463 374.642 122.373 374.89C122.285 375.136 122.241 375.406 122.241 375.701C122.241 375.997 122.285 376.268 122.373 376.514C122.463 376.76 122.6 376.957 122.784 377.105C122.97 377.253 123.204 377.327 123.486 377.327ZM128.828 373.377V374.098H126.223V373.377H128.828ZM126.937 377.988V372.843C126.937 372.555 127 372.316 127.127 372.126C127.253 371.934 127.42 371.791 127.628 371.697C127.836 371.601 128.062 371.553 128.306 371.553C128.486 371.553 128.64 371.568 128.768 371.598C128.896 371.626 128.991 371.652 129.053 371.676L128.843 372.402C128.801 372.39 128.747 372.376 128.681 372.36C128.615 372.342 128.535 372.333 128.441 372.333C128.223 372.333 128.067 372.387 127.973 372.495C127.881 372.603 127.835 372.759 127.835 372.963V377.988H126.937ZM129.754 377.988V373.377H130.652V377.988H129.754ZM130.208 372.666C130.051 372.666 129.917 372.614 129.805 372.51C129.695 372.404 129.64 372.278 129.64 372.132C129.64 371.984 129.695 371.858 129.805 371.754C129.917 371.648 130.051 371.595 130.208 371.595C130.364 371.595 130.497 371.648 130.607 371.754C130.719 371.858 130.775 371.984 130.775 372.132C130.775 372.278 130.719 372.404 130.607 372.51C130.497 372.614 130.364 372.666 130.208 372.666ZM132.756 371.841V377.988H131.859V371.841H132.756ZM135.951 378.081C135.497 378.081 135.105 377.984 134.777 377.79C134.451 377.593 134.199 377.318 134.021 376.964C133.845 376.608 133.757 376.191 133.757 375.713C133.757 375.24 133.845 374.824 134.021 374.464C134.199 374.104 134.447 373.823 134.765 373.621C135.085 373.418 135.46 373.317 135.888 373.317C136.148 373.317 136.4 373.36 136.644 373.446C136.888 373.533 137.107 373.668 137.301 373.852C137.496 374.036 137.649 374.275 137.761 374.569C137.873 374.861 137.929 375.216 137.929 375.635V375.953H134.264V375.28H137.049C137.049 375.044 137.001 374.835 136.905 374.653C136.809 374.469 136.674 374.324 136.5 374.218C136.328 374.112 136.126 374.059 135.894 374.059C135.642 374.059 135.422 374.121 135.233 374.245C135.047 374.367 134.903 374.527 134.801 374.725C134.701 374.921 134.651 375.134 134.651 375.364V375.89C134.651 376.198 134.705 376.46 134.813 376.676C134.923 376.892 135.076 377.057 135.272 377.171C135.469 377.283 135.698 377.339 135.96 377.339C136.13 377.339 136.285 377.315 136.425 377.267C136.565 377.217 136.686 377.143 136.788 377.045C136.89 376.947 136.968 376.826 137.022 376.682L137.872 376.835C137.804 377.085 137.682 377.304 137.506 377.492C137.331 377.679 137.112 377.824 136.848 377.928C136.586 378.03 136.287 378.081 135.951 378.081Z" fill="white"/>
<g filter="url(#filter1_b_1_2633)">
<rect x="12.1924" y="13" width="198.096" height="428.943" fill="#252525" fill-opacity="0.5"/>
</g>
<rect x="20.6427" y="160.383" width="181.192" height="99.312" rx="21.1302" fill="white"/>
<path d="M105.661 284.621H104.724C104.688 284.421 104.621 284.245 104.523 284.093C104.425 283.941 104.305 283.812 104.163 283.706C104.021 283.6 103.862 283.52 103.686 283.466C103.512 283.412 103.327 283.384 103.131 283.384C102.777 283.384 102.459 283.474 102.179 283.652C101.901 283.83 101.681 284.091 101.519 284.435C101.359 284.779 101.279 285.199 101.279 285.696C101.279 286.196 101.359 286.618 101.519 286.962C101.681 287.306 101.902 287.567 102.182 287.743C102.462 287.919 102.778 288.007 103.128 288.007C103.322 288.007 103.506 287.981 103.68 287.929C103.856 287.875 104.015 287.796 104.157 287.692C104.299 287.588 104.419 287.46 104.517 287.31C104.617 287.158 104.686 286.984 104.724 286.788L105.661 286.791C105.611 287.093 105.514 287.371 105.37 287.626C105.228 287.878 105.045 288.096 104.821 288.28C104.598 288.462 104.344 288.603 104.058 288.703C103.772 288.803 103.46 288.853 103.122 288.853C102.589 288.853 102.115 288.727 101.699 288.475C101.283 288.221 100.955 287.858 100.715 287.385C100.476 286.913 100.357 286.35 100.357 285.696C100.357 285.039 100.477 284.476 100.718 284.006C100.958 283.534 101.286 283.171 101.702 282.919C102.118 282.665 102.591 282.538 103.122 282.538C103.448 282.538 103.752 282.585 104.034 282.679C104.318 282.771 104.573 282.907 104.8 283.087C105.026 283.265 105.213 283.484 105.361 283.742C105.509 283.998 105.609 284.291 105.661 284.621ZM107.596 282.622V288.769H106.699V282.622H107.596ZM110.745 288.862C110.313 288.862 109.936 288.763 109.614 288.565C109.292 288.367 109.042 288.09 108.863 287.734C108.685 287.377 108.596 286.961 108.596 286.485C108.596 286.007 108.685 285.589 108.863 285.23C109.042 284.872 109.292 284.594 109.614 284.396C109.936 284.198 110.313 284.099 110.745 284.099C111.178 284.099 111.555 284.198 111.877 284.396C112.199 284.594 112.449 284.872 112.627 285.23C112.805 285.589 112.894 286.007 112.894 286.485C112.894 286.961 112.805 287.377 112.627 287.734C112.449 288.09 112.199 288.367 111.877 288.565C111.555 288.763 111.178 288.862 110.745 288.862ZM110.748 288.109C111.029 288.109 111.261 288.035 111.445 287.887C111.629 287.739 111.765 287.542 111.853 287.295C111.943 287.049 111.988 286.778 111.988 286.482C111.988 286.188 111.943 285.918 111.853 285.672C111.765 285.423 111.629 285.224 111.445 285.074C111.261 284.924 111.029 284.849 110.748 284.849C110.466 284.849 110.232 284.924 110.046 285.074C109.862 285.224 109.725 285.423 109.635 285.672C109.547 285.918 109.503 286.188 109.503 286.482C109.503 286.778 109.547 287.049 109.635 287.295C109.725 287.542 109.862 287.739 110.046 287.887C110.232 288.035 110.466 288.109 110.748 288.109ZM117.351 285.284L116.537 285.428C116.503 285.324 116.449 285.225 116.375 285.131C116.303 285.037 116.205 284.96 116.081 284.9C115.957 284.84 115.802 284.81 115.616 284.81C115.362 284.81 115.15 284.867 114.98 284.981C114.81 285.093 114.725 285.238 114.725 285.416C114.725 285.571 114.782 285.695 114.896 285.789C115.01 285.883 115.194 285.96 115.448 286.02L116.18 286.188C116.604 286.286 116.921 286.437 117.129 286.641C117.337 286.845 117.441 287.11 117.441 287.436C117.441 287.713 117.361 287.959 117.201 288.175C117.043 288.389 116.822 288.557 116.537 288.679C116.255 288.801 115.928 288.862 115.556 288.862C115.04 288.862 114.619 288.752 114.292 288.532C113.966 288.31 113.766 287.995 113.692 287.587L114.559 287.454C114.614 287.681 114.725 287.852 114.893 287.968C115.061 288.082 115.28 288.139 115.55 288.139C115.844 288.139 116.079 288.078 116.255 287.956C116.431 287.832 116.519 287.681 116.519 287.502C116.519 287.358 116.465 287.237 116.357 287.139C116.251 287.041 116.088 286.967 115.868 286.917L115.088 286.746C114.658 286.648 114.339 286.492 114.133 286.278C113.929 286.064 113.827 285.793 113.827 285.465C113.827 285.192 113.903 284.954 114.055 284.75C114.207 284.546 114.417 284.387 114.686 284.273C114.954 284.157 115.261 284.099 115.607 284.099C116.105 284.099 116.497 284.207 116.784 284.423C117.07 284.637 117.259 284.924 117.351 285.284ZM120.415 288.862C119.96 288.862 119.569 288.765 119.241 288.571C118.915 288.375 118.663 288.1 118.485 287.746C118.309 287.389 118.22 286.972 118.22 286.494C118.22 286.022 118.309 285.606 118.485 285.245C118.663 284.885 118.911 284.604 119.229 284.402C119.549 284.2 119.923 284.099 120.352 284.099C120.612 284.099 120.864 284.142 121.108 284.228C121.352 284.314 121.571 284.449 121.765 284.633C121.959 284.817 122.112 285.056 122.224 285.35C122.336 285.643 122.393 285.998 122.393 286.416V286.734H118.728V286.062H121.513C121.513 285.826 121.465 285.617 121.369 285.434C121.273 285.25 121.138 285.105 120.964 284.999C120.792 284.893 120.59 284.84 120.358 284.84C120.105 284.84 119.885 284.902 119.697 285.026C119.511 285.148 119.367 285.308 119.265 285.507C119.165 285.703 119.115 285.916 119.115 286.146V286.671C119.115 286.979 119.169 287.241 119.277 287.457C119.387 287.674 119.54 287.839 119.736 287.953C119.932 288.065 120.161 288.121 120.424 288.121C120.594 288.121 120.749 288.097 120.889 288.049C121.029 287.999 121.15 287.925 121.252 287.827C121.354 287.729 121.432 287.608 121.486 287.463L122.335 287.617C122.267 287.867 122.145 288.086 121.969 288.274C121.795 288.46 121.576 288.605 121.312 288.709C121.05 288.811 120.751 288.862 120.415 288.862Z" fill="white"/>
<path d="M123.123 291.391H99.8801" stroke="white" stroke-width="0.528256" stroke-linecap="round"/>
<rect x="89.3174" y="245.961" width="44.3563" height="27.7346" rx="13.8673" fill="#4FA4FB"/>
<path d="M107.648 256.681V262.828H106.796L103.671 258.32H103.614V262.828H102.687V256.681H103.545L106.673 261.195H106.73V256.681H107.648ZM110.916 262.921C110.462 262.921 110.071 262.824 109.743 262.63C109.416 262.434 109.164 262.159 108.986 261.805C108.81 261.448 108.722 261.031 108.722 260.553C108.722 260.081 108.81 259.665 108.986 259.304C109.164 258.944 109.412 258.663 109.731 258.461C110.051 258.259 110.425 258.158 110.853 258.158C111.113 258.158 111.365 258.201 111.609 258.287C111.854 258.373 112.073 258.508 112.267 258.692C112.461 258.876 112.614 259.115 112.726 259.409C112.838 259.702 112.894 260.057 112.894 260.475V260.793H109.229V260.121H112.015C112.015 259.885 111.967 259.676 111.871 259.493C111.774 259.309 111.639 259.164 111.465 259.058C111.293 258.952 111.091 258.899 110.859 258.899C110.607 258.899 110.387 258.961 110.199 259.085C110.013 259.207 109.869 259.367 109.767 259.565C109.666 259.762 109.616 259.975 109.616 260.205V260.73C109.616 261.038 109.67 261.3 109.779 261.516C109.889 261.733 110.042 261.898 110.238 262.012C110.434 262.124 110.663 262.18 110.925 262.18C111.095 262.18 111.25 262.156 111.39 262.108C111.53 262.058 111.651 261.984 111.753 261.886C111.856 261.788 111.934 261.666 111.988 261.522L112.837 261.675C112.769 261.926 112.647 262.145 112.471 262.333C112.297 262.519 112.078 262.664 111.814 262.768C111.551 262.87 111.252 262.921 110.916 262.921ZM114.491 258.218L115.508 260.013L116.535 258.218H117.516L116.079 260.523L117.528 262.828H116.547L115.508 261.105L114.473 262.828H113.488L114.923 260.523L113.506 258.218H114.491ZM120.59 258.218V258.938H118.072V258.218H120.59ZM118.747 257.113H119.644V261.474C119.644 261.648 119.67 261.78 119.722 261.868C119.774 261.954 119.841 262.013 119.923 262.045C120.007 262.075 120.099 262.09 120.197 262.09C120.269 262.09 120.332 262.085 120.386 262.075C120.44 262.065 120.482 262.057 120.512 262.051L120.674 262.792C120.622 262.812 120.548 262.832 120.452 262.852C120.356 262.874 120.236 262.886 120.092 262.888C119.855 262.892 119.635 262.85 119.431 262.762C119.227 262.674 119.062 262.538 118.936 262.354C118.81 262.17 118.747 261.939 118.747 261.66V257.113Z" fill="white"/>
<path d="M63.5438 195.381L62.2832 190.771H62.8504L63.8139 194.526H63.8589L64.8404 190.771H65.4707L66.4522 194.526H66.4972L67.4607 190.771H68.0279L66.7673 195.381H66.191L65.1736 191.707H65.1375L64.12 195.381H63.5438ZM69.7793 195.453C69.4461 195.453 69.1587 195.38 68.9171 195.232C68.677 195.084 68.4917 194.877 68.3611 194.611C68.232 194.344 68.1675 194.033 68.1675 193.679C68.1675 193.325 68.232 193.013 68.3611 192.743C68.4917 192.471 68.6732 192.26 68.9059 192.108C69.14 191.955 69.4131 191.878 69.7253 191.878C69.9053 191.878 70.0832 191.908 70.2588 191.968C70.4343 192.028 70.5942 192.126 70.7382 192.261C70.8823 192.395 70.9971 192.572 71.0827 192.792C71.1682 193.013 71.211 193.285 71.211 193.607V193.832H68.5457V193.373H70.6707C70.6707 193.178 70.6317 193.004 70.5537 192.851C70.4771 192.698 70.3676 192.577 70.225 192.488C70.0839 192.4 69.9173 192.356 69.7253 192.356C69.5136 192.356 69.3306 192.408 69.176 192.513C69.0229 192.617 68.9051 192.752 68.8226 192.918C68.74 193.085 68.6988 193.264 68.6988 193.454V193.76C68.6988 194.021 68.7438 194.243 68.8338 194.424C68.9254 194.604 69.0522 194.742 69.2143 194.836C69.3763 194.929 69.5647 194.976 69.7793 194.976C69.9188 194.976 70.0449 194.956 70.1575 194.917C70.2715 194.877 70.3698 194.817 70.4524 194.737C70.5349 194.656 70.5987 194.556 70.6437 194.436L71.1569 194.58C71.1029 194.754 71.0121 194.907 70.8846 195.039C70.757 195.169 70.5994 195.272 70.4118 195.345C70.2242 195.417 70.0134 195.453 69.7793 195.453ZM74.3332 193.301V195.381H73.802V190.771H74.3332V192.464H74.3783C74.4593 192.285 74.5809 192.143 74.7429 192.038C74.9065 191.932 75.1241 191.878 75.3957 191.878C75.6314 191.878 75.8377 191.926 76.0148 192.02C76.1919 192.113 76.3292 192.257 76.4267 192.45C76.5258 192.642 76.5753 192.887 76.5753 193.184V195.381H76.0441V193.22C76.0441 192.945 75.9728 192.733 75.8302 192.583C75.6891 192.431 75.4933 192.356 75.2427 192.356C75.0686 192.356 74.9125 192.392 74.7744 192.466C74.6379 192.539 74.5298 192.647 74.4503 192.788C74.3722 192.929 74.3332 193.1 74.3332 193.301ZM78.5647 195.462C78.3456 195.462 78.1468 195.421 77.9682 195.338C77.7896 195.254 77.6478 195.133 77.5427 194.976C77.4377 194.817 77.3851 194.625 77.3851 194.4C77.3851 194.201 77.4242 194.041 77.5022 193.918C77.5802 193.793 77.6845 193.696 77.8151 193.625C77.9457 193.555 78.0897 193.502 78.2473 193.468C78.4064 193.432 78.5662 193.403 78.7268 193.382C78.9369 193.355 79.1072 193.335 79.2378 193.321C79.3699 193.306 79.4659 193.282 79.5259 193.247C79.5875 193.213 79.6182 193.152 79.6182 193.067V193.049C79.6182 192.827 79.5574 192.654 79.4359 192.531C79.3158 192.408 79.1335 192.347 78.8889 192.347C78.6352 192.347 78.4364 192.402 78.2923 192.513C78.1483 192.624 78.047 192.743 77.9884 192.869L77.4842 192.689C77.5742 192.479 77.6943 192.315 77.8444 192.198C77.9959 192.079 78.161 191.997 78.3396 191.95C78.5197 191.902 78.6968 191.878 78.8709 191.878C78.9819 191.878 79.1095 191.892 79.2535 191.919C79.3991 191.944 79.5394 191.998 79.6745 192.079C79.8111 192.16 79.9244 192.282 80.0144 192.446C80.1045 192.609 80.1495 192.828 80.1495 193.103V195.381H79.6182V194.913H79.5912C79.5552 194.988 79.4952 195.068 79.4111 195.154C79.3271 195.239 79.2153 195.312 79.0757 195.372C78.9361 195.432 78.7658 195.462 78.5647 195.462ZM78.6458 194.985C78.8559 194.985 79.0329 194.944 79.177 194.861C79.3226 194.779 79.4321 194.672 79.5057 194.541C79.5807 194.411 79.6182 194.274 79.6182 194.129V193.643C79.5957 193.67 79.5462 193.695 79.4697 193.718C79.3946 193.739 79.3076 193.757 79.2085 193.774C79.111 193.789 79.0157 193.802 78.9226 193.814C78.8311 193.825 78.7568 193.834 78.6998 193.841C78.5617 193.859 78.4327 193.889 78.3126 193.929C78.194 193.968 78.098 194.027 78.0245 194.107C77.9524 194.185 77.9164 194.292 77.9164 194.427C77.9164 194.611 77.9847 194.751 78.1213 194.845C78.2593 194.938 78.4342 194.985 78.6458 194.985ZM83.8227 191.923L82.5441 195.381H82.0038L80.7252 191.923H81.3015L82.2559 194.679H82.292L83.2464 191.923H83.8227ZM85.8498 195.453C85.5166 195.453 85.2293 195.38 84.9876 195.232C84.7475 195.084 84.5622 194.877 84.4316 194.611C84.3026 194.344 84.238 194.033 84.238 193.679C84.238 193.325 84.3026 193.013 84.4316 192.743C84.5622 192.471 84.7438 192.26 84.9764 192.108C85.2105 191.955 85.4836 191.878 85.7958 191.878C85.9759 191.878 86.1537 191.908 86.3293 191.968C86.5049 192.028 86.6647 192.126 86.8088 192.261C86.9528 192.395 87.0676 192.572 87.1532 192.792C87.2387 193.013 87.2815 193.285 87.2815 193.607V193.832H84.6162V193.373H86.7412C86.7412 193.178 86.7022 193.004 86.6242 192.851C86.5476 192.698 86.4381 192.577 86.2955 192.488C86.1544 192.4 85.9879 192.356 85.7958 192.356C85.5842 192.356 85.4011 192.408 85.2465 192.513C85.0934 192.617 84.9756 192.752 84.8931 192.918C84.8105 193.085 84.7693 193.264 84.7693 193.454V193.76C84.7693 194.021 84.8143 194.243 84.9043 194.424C84.9959 194.604 85.1227 194.742 85.2848 194.836C85.4469 194.929 85.6352 194.976 85.8498 194.976C85.9894 194.976 86.1154 194.956 86.228 194.917C86.342 194.877 86.4403 194.817 86.5229 194.737C86.6054 194.656 86.6692 194.556 86.7142 194.436L87.2275 194.58C87.1734 194.754 87.0826 194.907 86.9551 195.039C86.8275 195.169 86.6699 195.272 86.4824 195.345C86.2948 195.417 86.0839 195.453 85.8498 195.453ZM92.3217 192.698L91.8444 192.833C91.8144 192.753 91.7702 192.676 91.7116 192.601C91.6546 192.524 91.5766 192.461 91.4775 192.412C91.3785 192.362 91.2517 192.338 91.0971 192.338C90.8855 192.338 90.7092 192.386 90.5681 192.484C90.4285 192.58 90.3587 192.702 90.3587 192.851C90.3587 192.983 90.4068 193.087 90.5028 193.164C90.5988 193.24 90.7489 193.304 90.953 193.355L91.4663 193.481C91.7754 193.556 92.0058 193.671 92.1574 193.826C92.3089 193.979 92.3847 194.176 92.3847 194.418C92.3847 194.616 92.3277 194.793 92.2136 194.949C92.1011 195.105 91.9435 195.228 91.7409 195.318C91.5383 195.408 91.3027 195.453 91.0341 195.453C90.6814 195.453 90.3895 195.377 90.1584 195.223C89.9273 195.07 89.781 194.847 89.7194 194.553L90.2237 194.427C90.2717 194.613 90.3625 194.752 90.496 194.845C90.6311 194.938 90.8074 194.985 91.0251 194.985C91.2727 194.985 91.4693 194.932 91.6148 194.827C91.7619 194.721 91.8354 194.593 91.8354 194.445C91.8354 194.325 91.7934 194.224 91.7094 194.143C91.6253 194.06 91.4963 193.999 91.3222 193.958L90.7459 193.823C90.4293 193.748 90.1967 193.632 90.0481 193.474C89.901 193.315 89.8275 193.116 89.8275 192.878C89.8275 192.683 89.8823 192.51 89.9918 192.36C90.1029 192.21 90.2537 192.092 90.4443 192.007C90.6364 191.921 90.854 191.878 91.0971 191.878C91.4393 191.878 91.7079 191.953 91.903 192.103C92.0996 192.254 92.2391 192.452 92.3217 192.698ZM94.6341 195.453C94.3009 195.453 94.0136 195.38 93.7719 195.232C93.5318 195.084 93.3465 194.877 93.2159 194.611C93.0869 194.344 93.0223 194.033 93.0223 193.679C93.0223 193.325 93.0869 193.013 93.2159 192.743C93.3465 192.471 93.5281 192.26 93.7607 192.108C93.9948 191.955 94.2679 191.878 94.5801 191.878C94.7602 191.878 94.938 191.908 95.1136 191.968C95.2892 192.028 95.449 192.126 95.5931 192.261C95.7371 192.395 95.8519 192.572 95.9375 192.792C96.023 193.013 96.0658 193.285 96.0658 193.607V193.832H93.4005V193.373H95.5255C95.5255 193.178 95.4865 193.004 95.4085 192.851C95.3319 192.698 95.2224 192.577 95.0798 192.488C94.9388 192.4 94.7722 192.356 94.5801 192.356C94.3685 192.356 94.1854 192.408 94.0308 192.513C93.8777 192.617 93.7599 192.752 93.6774 192.918C93.5949 193.085 93.5536 193.264 93.5536 193.454V193.76C93.5536 194.021 93.5986 194.243 93.6887 194.424C93.7802 194.604 93.907 194.742 94.0691 194.836C94.2312 194.929 94.4195 194.976 94.6341 194.976C94.7737 194.976 94.8997 194.956 95.0123 194.917C95.1263 194.877 95.2246 194.817 95.3072 194.737C95.3897 194.656 95.4535 194.556 95.4985 194.436L96.0118 194.58C95.9578 194.754 95.867 194.907 95.7394 195.039C95.6118 195.169 95.4543 195.272 95.2667 195.345C95.0791 195.417 94.8682 195.453 94.6341 195.453ZM97.4052 193.301V195.381H96.8739V191.923H97.3872V192.464H97.4322C97.5133 192.288 97.6363 192.147 97.8014 192.04C97.9665 191.932 98.1796 191.878 98.4407 191.878C98.6748 191.878 98.8797 191.926 99.0553 192.022C99.2308 192.117 99.3674 192.261 99.4649 192.455C99.5625 192.647 99.6113 192.89 99.6113 193.184V195.381H99.08V193.22C99.08 192.948 99.0095 192.737 98.8684 192.585C98.7273 192.432 98.5337 192.356 98.2876 192.356C98.118 192.356 97.9665 192.392 97.8329 192.466C97.7008 192.539 97.5965 192.647 97.52 192.788C97.4435 192.929 97.4052 193.1 97.4052 193.301ZM102.086 191.923V192.374H100.294V191.923H102.086ZM100.816 191.095H101.347V194.391C101.347 194.541 101.369 194.653 101.413 194.728C101.458 194.802 101.515 194.851 101.584 194.877C101.654 194.901 101.729 194.913 101.807 194.913C101.865 194.913 101.913 194.91 101.951 194.904C101.988 194.896 102.018 194.89 102.041 194.886L102.149 195.363C102.113 195.377 102.063 195.39 101.998 195.404C101.933 195.419 101.852 195.426 101.753 195.426C101.603 195.426 101.455 195.394 101.311 195.329C101.169 195.265 101.05 195.166 100.956 195.034C100.863 194.902 100.816 194.736 100.816 194.535V191.095ZM105.01 196.678C104.92 196.678 104.84 196.67 104.769 196.655C104.699 196.642 104.65 196.628 104.623 196.615L104.758 196.146C104.887 196.179 105.001 196.191 105.1 196.182C105.199 196.173 105.287 196.129 105.363 196.05C105.441 195.972 105.513 195.845 105.577 195.669L105.676 195.399L104.398 191.923H104.974L105.928 194.679H105.964L106.919 191.923H107.495L106.027 195.885C105.961 196.064 105.88 196.212 105.782 196.329C105.685 196.447 105.571 196.535 105.442 196.592C105.315 196.649 105.171 196.678 105.01 196.678ZM109.477 195.453C109.165 195.453 108.891 195.379 108.656 195.23C108.421 195.082 108.238 194.874 108.106 194.607C107.976 194.34 107.91 194.027 107.91 193.67C107.91 193.31 107.976 192.996 108.106 192.727C108.238 192.458 108.421 192.25 108.656 192.101C108.891 191.953 109.165 191.878 109.477 191.878C109.789 191.878 110.063 191.953 110.297 192.101C110.532 192.25 110.715 192.458 110.846 192.727C110.978 192.996 111.044 193.31 111.044 193.67C111.044 194.027 110.978 194.34 110.846 194.607C110.715 194.874 110.532 195.082 110.297 195.23C110.063 195.379 109.789 195.453 109.477 195.453ZM109.477 194.976C109.714 194.976 109.909 194.915 110.063 194.794C110.216 194.672 110.329 194.512 110.402 194.314C110.476 194.116 110.513 193.901 110.513 193.67C110.513 193.439 110.476 193.224 110.402 193.024C110.329 192.825 110.216 192.663 110.063 192.54C109.909 192.417 109.714 192.356 109.477 192.356C109.24 192.356 109.045 192.417 108.892 192.54C108.739 192.663 108.626 192.825 108.552 193.024C108.478 193.224 108.442 193.439 108.442 193.67C108.442 193.901 108.478 194.116 108.552 194.314C108.626 194.512 108.739 194.672 108.892 194.794C109.045 194.915 109.24 194.976 109.477 194.976ZM114.034 193.967V191.923H114.565V195.381H114.034V194.796H113.998C113.917 194.971 113.791 195.121 113.62 195.244C113.449 195.365 113.233 195.426 112.971 195.426C112.755 195.426 112.563 195.379 112.395 195.284C112.227 195.188 112.095 195.044 111.999 194.852C111.903 194.658 111.855 194.415 111.855 194.12V191.923H112.386V194.084C112.386 194.337 112.457 194.538 112.598 194.688C112.74 194.838 112.922 194.913 113.143 194.913C113.275 194.913 113.409 194.879 113.546 194.812C113.684 194.744 113.799 194.64 113.892 194.501C113.987 194.361 114.034 194.183 114.034 193.967ZM118.339 195.462C118.12 195.462 117.921 195.421 117.742 195.338C117.564 195.254 117.422 195.133 117.317 194.976C117.212 194.817 117.159 194.625 117.159 194.4C117.159 194.201 117.198 194.041 117.276 193.918C117.354 193.793 117.458 193.696 117.589 193.625C117.72 193.555 117.864 193.502 118.021 193.468C118.18 193.432 118.34 193.403 118.501 193.382C118.711 193.355 118.881 193.335 119.012 193.321C119.144 193.306 119.24 193.282 119.3 193.247C119.361 193.213 119.392 193.152 119.392 193.067V193.049C119.392 192.827 119.331 192.654 119.21 192.531C119.09 192.408 118.907 192.347 118.663 192.347C118.409 192.347 118.21 192.402 118.066 192.513C117.922 192.624 117.821 192.743 117.762 192.869L117.258 192.689C117.348 192.479 117.468 192.315 117.618 192.198C117.77 192.079 117.935 191.997 118.114 191.95C118.294 191.902 118.471 191.878 118.645 191.878C118.756 191.878 118.883 191.892 119.027 191.919C119.173 191.944 119.313 191.998 119.448 192.079C119.585 192.16 119.698 192.282 119.788 192.446C119.878 192.609 119.923 192.828 119.923 193.103V195.381H119.392V194.913H119.365C119.329 194.988 119.269 195.068 119.185 195.154C119.101 195.239 118.989 195.312 118.85 195.372C118.71 195.432 118.54 195.462 118.339 195.462ZM118.42 194.985C118.63 194.985 118.807 194.944 118.951 194.861C119.097 194.779 119.206 194.672 119.28 194.541C119.355 194.411 119.392 194.274 119.392 194.129V193.643C119.37 193.67 119.32 193.695 119.244 193.718C119.169 193.739 119.081 193.757 118.982 193.774C118.885 193.789 118.79 193.802 118.697 193.814C118.605 193.825 118.531 193.834 118.474 193.841C118.336 193.859 118.207 193.889 118.087 193.929C117.968 193.968 117.872 194.027 117.798 194.107C117.726 194.185 117.69 194.292 117.69 194.427C117.69 194.611 117.759 194.751 117.895 194.845C118.033 194.938 118.208 194.985 118.42 194.985ZM124.081 195.453C123.756 195.453 123.477 195.377 123.243 195.223C123.009 195.07 122.829 194.86 122.703 194.591C122.577 194.322 122.514 194.015 122.514 193.67C122.514 193.319 122.578 193.009 122.707 192.741C122.838 192.47 123.02 192.26 123.252 192.108C123.486 191.955 123.759 191.878 124.072 191.878C124.315 191.878 124.534 191.923 124.729 192.013C124.924 192.103 125.084 192.23 125.208 192.392C125.333 192.554 125.41 192.743 125.44 192.959H124.909C124.868 192.801 124.778 192.662 124.639 192.54C124.501 192.417 124.315 192.356 124.081 192.356C123.874 192.356 123.692 192.41 123.536 192.518C123.381 192.624 123.26 192.775 123.173 192.97C123.088 193.164 123.045 193.391 123.045 193.652C123.045 193.919 123.087 194.152 123.171 194.35C123.257 194.548 123.377 194.702 123.531 194.812C123.687 194.921 123.871 194.976 124.081 194.976C124.219 194.976 124.344 194.952 124.457 194.904C124.569 194.856 124.664 194.787 124.742 194.697C124.82 194.607 124.876 194.499 124.909 194.373H125.44C125.41 194.577 125.336 194.761 125.217 194.924C125.1 195.086 124.945 195.215 124.751 195.311C124.559 195.406 124.336 195.453 124.081 195.453ZM127.622 195.453C127.309 195.453 127.036 195.379 126.8 195.23C126.566 195.082 126.383 194.874 126.251 194.607C126.12 194.34 126.055 194.027 126.055 193.67C126.055 193.31 126.12 192.996 126.251 192.727C126.383 192.458 126.566 192.25 126.8 192.101C127.036 191.953 127.309 191.878 127.622 191.878C127.934 191.878 128.207 191.953 128.441 192.101C128.677 192.25 128.86 192.458 128.99 192.727C129.122 192.996 129.188 193.31 129.188 193.67C129.188 194.027 129.122 194.34 128.99 194.607C128.86 194.874 128.677 195.082 128.441 195.23C128.207 195.379 127.934 195.453 127.622 195.453ZM127.622 194.976C127.859 194.976 128.054 194.915 128.207 194.794C128.36 194.672 128.473 194.512 128.547 194.314C128.62 194.116 128.657 193.901 128.657 193.67C128.657 193.439 128.62 193.224 128.547 193.024C128.473 192.825 128.36 192.663 128.207 192.54C128.054 192.417 127.859 192.356 127.622 192.356C127.384 192.356 127.189 192.417 127.036 192.54C126.883 192.663 126.77 192.825 126.696 193.024C126.623 193.224 126.586 193.439 126.586 193.67C126.586 193.901 126.623 194.116 126.696 194.314C126.77 194.512 126.883 194.672 127.036 194.794C127.189 194.915 127.384 194.976 127.622 194.976ZM131.305 195.453C131.017 195.453 130.762 195.38 130.542 195.235C130.321 195.088 130.149 194.881 130.024 194.613C129.899 194.345 129.837 194.027 129.837 193.661C129.837 193.298 129.899 192.983 130.024 192.716C130.149 192.449 130.322 192.242 130.544 192.097C130.766 191.951 131.023 191.878 131.314 191.878C131.539 191.878 131.717 191.916 131.847 191.991C131.979 192.064 132.08 192.148 132.149 192.243C132.22 192.336 132.274 192.413 132.313 192.473H132.358V190.771H132.89V195.381H132.376V194.85H132.313C132.274 194.913 132.219 194.992 132.147 195.088C132.075 195.183 131.972 195.268 131.838 195.343C131.705 195.416 131.527 195.453 131.305 195.453ZM131.377 194.976C131.59 194.976 131.77 194.92 131.917 194.809C132.064 194.697 132.176 194.541 132.253 194.343C132.329 194.144 132.367 193.913 132.367 193.652C132.367 193.394 132.33 193.168 132.255 192.975C132.18 192.78 132.069 192.628 131.922 192.52C131.775 192.41 131.593 192.356 131.377 192.356C131.152 192.356 130.964 192.413 130.814 192.529C130.666 192.643 130.554 192.798 130.479 192.995C130.405 193.19 130.368 193.409 130.368 193.652C130.368 193.898 130.406 194.122 130.481 194.323C130.558 194.523 130.67 194.682 130.819 194.8C130.969 194.917 131.155 194.976 131.377 194.976ZM135.386 195.453C135.053 195.453 134.766 195.38 134.524 195.232C134.284 195.084 134.099 194.877 133.968 194.611C133.839 194.344 133.774 194.033 133.774 193.679C133.774 193.325 133.839 193.013 133.968 192.743C134.099 192.471 134.28 192.26 134.513 192.108C134.747 191.955 135.02 191.878 135.332 191.878C135.512 191.878 135.69 191.908 135.866 191.968C136.041 192.028 136.201 192.126 136.345 192.261C136.489 192.395 136.604 192.572 136.69 192.792C136.775 193.013 136.818 193.285 136.818 193.607V193.832H134.153V193.373H136.278C136.278 193.178 136.239 193.004 136.161 192.851C136.084 192.698 135.974 192.577 135.832 192.488C135.691 192.4 135.524 192.356 135.332 192.356C135.121 192.356 134.937 192.408 134.783 192.513C134.63 192.617 134.512 192.752 134.429 192.918C134.347 193.085 134.306 193.264 134.306 193.454V193.76C134.306 194.021 134.351 194.243 134.441 194.424C134.532 194.604 134.659 194.742 134.821 194.836C134.983 194.929 135.172 194.976 135.386 194.976C135.526 194.976 135.652 194.956 135.764 194.917C135.878 194.877 135.977 194.817 136.059 194.737C136.142 194.656 136.206 194.556 136.251 194.436L136.764 194.58C136.71 194.754 136.619 194.907 136.491 195.039C136.364 195.169 136.206 195.272 136.019 195.345C135.831 195.417 135.62 195.453 135.386 195.453ZM138.418 194.751L138.382 194.994C138.357 195.165 138.318 195.348 138.265 195.543C138.214 195.738 138.161 195.922 138.105 196.095C138.05 196.267 138.004 196.405 137.968 196.507H137.563C137.582 196.411 137.608 196.284 137.639 196.126C137.671 195.969 137.703 195.792 137.734 195.597C137.767 195.404 137.794 195.205 137.815 195.003L137.842 194.751H138.418ZM141.185 196.678V191.923H141.699V192.473H141.762C141.801 192.413 141.855 192.336 141.924 192.243C141.994 192.148 142.095 192.064 142.226 191.991C142.358 191.916 142.536 191.878 142.761 191.878C143.052 191.878 143.309 191.951 143.531 192.097C143.753 192.242 143.927 192.449 144.051 192.716C144.176 192.983 144.238 193.298 144.238 193.661C144.238 194.027 144.176 194.345 144.051 194.613C143.927 194.881 143.754 195.088 143.533 195.235C143.313 195.38 143.058 195.453 142.77 195.453C142.548 195.453 142.37 195.416 142.237 195.343C142.103 195.268 142 195.183 141.928 195.088C141.856 194.992 141.801 194.913 141.762 194.85H141.717V196.678H141.185ZM141.708 193.652C141.708 193.913 141.746 194.144 141.823 194.343C141.899 194.541 142.011 194.697 142.158 194.809C142.305 194.92 142.485 194.976 142.698 194.976C142.92 194.976 143.106 194.917 143.254 194.8C143.404 194.682 143.517 194.523 143.592 194.323C143.668 194.122 143.707 193.898 143.707 193.652C143.707 193.409 143.669 193.19 143.594 192.995C143.521 192.798 143.409 192.643 143.259 192.529C143.11 192.413 142.923 192.356 142.698 192.356C142.482 192.356 142.301 192.41 142.153 192.52C142.006 192.628 141.895 192.78 141.82 192.975C141.745 193.168 141.708 193.394 141.708 193.652ZM145.58 190.771V195.381H145.048V190.771H145.58ZM148.002 195.453C147.669 195.453 147.382 195.38 147.14 195.232C146.9 195.084 146.715 194.877 146.584 194.611C146.455 194.344 146.391 194.033 146.391 193.679C146.391 193.325 146.455 193.013 146.584 192.743C146.715 192.471 146.896 192.26 147.129 192.108C147.363 191.955 147.636 191.878 147.948 191.878C148.128 191.878 148.306 191.908 148.482 191.968C148.657 192.028 148.817 192.126 148.961 192.261C149.105 192.395 149.22 192.572 149.306 192.792C149.391 193.013 149.434 193.285 149.434 193.607V193.832H146.769V193.373H148.894C148.894 193.178 148.855 193.004 148.777 192.851C148.7 192.698 148.591 192.577 148.448 192.488C148.307 192.4 148.14 192.356 147.948 192.356C147.737 192.356 147.554 192.408 147.399 192.513C147.246 192.617 147.128 192.752 147.046 192.918C146.963 193.085 146.922 193.264 146.922 193.454V193.76C146.922 194.021 146.967 194.243 147.057 194.424C147.148 194.604 147.275 194.742 147.437 194.836C147.599 194.929 147.788 194.976 148.002 194.976C148.142 194.976 148.268 194.956 148.381 194.917C148.495 194.877 148.593 194.817 148.675 194.737C148.758 194.656 148.822 194.556 148.867 194.436L149.38 194.58C149.326 194.754 149.235 194.907 149.108 195.039C148.98 195.169 148.823 195.272 148.635 195.345C148.447 195.417 148.236 195.453 148.002 195.453ZM151.26 195.462C151.041 195.462 150.842 195.421 150.663 195.338C150.485 195.254 150.343 195.133 150.238 194.976C150.133 194.817 150.08 194.625 150.08 194.4C150.08 194.201 150.119 194.041 150.197 193.918C150.275 193.793 150.38 193.696 150.51 193.625C150.641 193.555 150.785 193.502 150.942 193.468C151.101 193.432 151.261 193.403 151.422 193.382C151.632 193.355 151.802 193.335 151.933 193.321C152.065 193.306 152.161 193.282 152.221 193.247C152.282 193.213 152.313 193.152 152.313 193.067V193.049C152.313 192.827 152.252 192.654 152.131 192.531C152.011 192.408 151.828 192.347 151.584 192.347C151.33 192.347 151.131 192.402 150.987 192.513C150.843 192.624 150.742 192.743 150.683 192.869L150.179 192.689C150.269 192.479 150.389 192.315 150.539 192.198C150.691 192.079 150.856 191.997 151.035 191.95C151.215 191.902 151.392 191.878 151.566 191.878C151.677 191.878 151.804 191.892 151.949 191.919C152.094 191.944 152.234 191.998 152.369 192.079C152.506 192.16 152.619 192.282 152.709 192.446C152.799 192.609 152.844 192.828 152.844 193.103V195.381H152.313V194.913H152.286C152.25 194.988 152.19 195.068 152.106 195.154C152.022 195.239 151.91 195.312 151.771 195.372C151.631 195.432 151.461 195.462 151.26 195.462ZM151.341 194.985C151.551 194.985 151.728 194.944 151.872 194.861C152.018 194.779 152.127 194.672 152.201 194.541C152.276 194.411 152.313 194.274 152.313 194.129V193.643C152.291 193.67 152.241 193.695 152.165 193.718C152.09 193.739 152.003 193.757 151.903 193.774C151.806 193.789 151.711 193.802 151.618 193.814C151.526 193.825 151.452 193.834 151.395 193.841C151.257 193.859 151.128 193.889 151.008 193.929C150.889 193.968 150.793 194.027 150.719 194.107C150.647 194.185 150.611 194.292 150.611 194.427C150.611 194.611 150.68 194.751 150.816 194.845C150.954 194.938 151.129 194.985 151.341 194.985ZM156.263 192.698L155.786 192.833C155.756 192.753 155.712 192.676 155.653 192.601C155.596 192.524 155.518 192.461 155.419 192.412C155.32 192.362 155.193 192.338 155.039 192.338C154.827 192.338 154.651 192.386 154.51 192.484C154.37 192.58 154.3 192.702 154.3 192.851C154.3 192.983 154.348 193.087 154.444 193.164C154.54 193.24 154.691 193.304 154.895 193.355L155.408 193.481C155.717 193.556 155.947 193.671 156.099 193.826C156.251 193.979 156.326 194.176 156.326 194.418C156.326 194.616 156.269 194.793 156.155 194.949C156.043 195.105 155.885 195.228 155.683 195.318C155.48 195.408 155.244 195.453 154.976 195.453C154.623 195.453 154.331 195.377 154.1 195.223C153.869 195.07 153.723 194.847 153.661 194.553L154.165 194.427C154.213 194.613 154.304 194.752 154.438 194.845C154.573 194.938 154.749 194.985 154.967 194.985C155.214 194.985 155.411 194.932 155.556 194.827C155.704 194.721 155.777 194.593 155.777 194.445C155.777 194.325 155.735 194.224 155.651 194.143C155.567 194.06 155.438 193.999 155.264 193.958L154.688 193.823C154.371 193.748 154.138 193.632 153.99 193.474C153.843 193.315 153.769 193.116 153.769 192.878C153.769 192.683 153.824 192.51 153.933 192.36C154.044 192.21 154.195 192.092 154.386 192.007C154.578 191.921 154.796 191.878 155.039 191.878C155.381 191.878 155.649 191.953 155.845 192.103C156.041 192.254 156.181 192.452 156.263 192.698ZM158.576 195.453C158.243 195.453 157.955 195.38 157.714 195.232C157.473 195.084 157.288 194.877 157.158 194.611C157.028 194.344 156.964 194.033 156.964 193.679C156.964 193.325 157.028 193.013 157.158 192.743C157.288 192.471 157.47 192.26 157.702 192.108C157.936 191.955 158.21 191.878 158.522 191.878C158.702 191.878 158.88 191.908 159.055 191.968C159.231 192.028 159.391 192.126 159.535 192.261C159.679 192.395 159.794 192.572 159.879 192.792C159.965 193.013 160.007 193.285 160.007 193.607V193.832H157.342V193.373H159.467C159.467 193.178 159.428 193.004 159.35 192.851C159.274 192.698 159.164 192.577 159.021 192.488C158.88 192.4 158.714 192.356 158.522 192.356C158.31 192.356 158.127 192.408 157.972 192.513C157.819 192.617 157.702 192.752 157.619 192.918C157.536 193.085 157.495 193.264 157.495 193.454V193.76C157.495 194.021 157.54 194.243 157.63 194.424C157.722 194.604 157.849 194.742 158.011 194.836C158.173 194.929 158.361 194.976 158.576 194.976C158.715 194.976 158.841 194.956 158.954 194.917C159.068 194.877 159.166 194.817 159.249 194.737C159.331 194.656 159.395 194.556 159.44 194.436L159.953 194.58C159.899 194.754 159.809 194.907 159.681 195.039C159.553 195.169 159.396 195.272 159.208 195.345C159.021 195.417 158.81 195.453 158.576 195.453ZM92.6593 204.453C92.3262 204.453 92.0388 204.38 91.7972 204.232C91.5571 204.084 91.3717 203.877 91.2412 203.611C91.1121 203.344 91.0476 203.033 91.0476 202.679C91.0476 202.325 91.1121 202.013 91.2412 201.743C91.3717 201.471 91.5533 201.26 91.7859 201.108C92.02 200.955 92.2932 200.878 92.6053 200.878C92.7854 200.878 92.9632 200.908 93.1388 200.968C93.3144 201.028 93.4742 201.126 93.6183 201.261C93.7624 201.395 93.8772 201.572 93.9627 201.792C94.0483 202.013 94.091 202.285 94.091 202.607V202.832H91.4257V202.373H93.5508C93.5508 202.178 93.5118 202.004 93.4337 201.851C93.3572 201.698 93.2476 201.577 93.1051 201.488C92.964 201.4 92.7974 201.356 92.6053 201.356C92.3937 201.356 92.2106 201.408 92.0561 201.513C91.903 201.617 91.7852 201.752 91.7026 201.918C91.6201 202.085 91.5788 202.264 91.5788 202.454V202.76C91.5788 203.021 91.6238 203.243 91.7139 203.424C91.8054 203.604 91.9322 203.742 92.0943 203.836C92.2564 203.929 92.4447 203.976 92.6593 203.976C92.7989 203.976 92.925 203.956 93.0375 203.917C93.1516 203.877 93.2499 203.817 93.3324 203.737C93.415 203.656 93.4787 203.556 93.5238 203.436L94.037 203.58C93.983 203.754 93.8922 203.907 93.7646 204.039C93.6371 204.169 93.4795 204.272 93.2919 204.345C93.1043 204.417 92.8935 204.453 92.6593 204.453ZM95.4304 202.301V204.381H94.8992V200.923H95.4124V201.464H95.4574C95.5385 201.288 95.6615 201.147 95.8266 201.04C95.9917 200.932 96.2048 200.878 96.4659 200.878C96.7 200.878 96.9049 200.926 97.0805 201.022C97.2561 201.117 97.3926 201.261 97.4902 201.455C97.5877 201.647 97.6365 201.89 97.6365 202.184V204.381H97.1052V202.22C97.1052 201.948 97.0347 201.737 96.8936 201.585C96.7526 201.432 96.559 201.356 96.3129 201.356C96.1433 201.356 95.9917 201.392 95.8581 201.466C95.7261 201.539 95.6218 201.647 95.5452 201.788C95.4687 201.929 95.4304 202.1 95.4304 202.301ZM100.111 200.923V201.374H98.3191V200.923H100.111ZM98.8414 200.095H99.3727V203.391C99.3727 203.541 99.3944 203.653 99.4379 203.728C99.483 203.802 99.54 203.851 99.609 203.877C99.6796 203.901 99.7538 203.913 99.8319 203.913C99.8904 203.913 99.9384 203.91 99.9759 203.904C100.013 203.896 100.043 203.89 100.066 203.886L100.174 204.363C100.138 204.377 100.088 204.39 100.023 204.404C99.9587 204.419 99.8769 204.426 99.7778 204.426C99.6278 204.426 99.4807 204.394 99.3366 204.329C99.1941 204.265 99.0755 204.166 98.981 204.034C98.8879 203.902 98.8414 203.736 98.8414 203.535V200.095ZM102.323 204.453C101.99 204.453 101.702 204.38 101.461 204.232C101.22 204.084 101.035 203.877 100.905 203.611C100.775 203.344 100.711 203.033 100.711 202.679C100.711 202.325 100.775 202.013 100.905 201.743C101.035 201.471 101.217 201.26 101.449 201.108C101.683 200.955 101.957 200.878 102.269 200.878C102.449 200.878 102.627 200.908 102.802 200.968C102.978 201.028 103.138 201.126 103.282 201.261C103.426 201.395 103.541 201.572 103.626 201.792C103.712 202.013 103.754 202.285 103.754 202.607V202.832H101.089V202.373H103.214C103.214 202.178 103.175 202.004 103.097 201.851C103.021 201.698 102.911 201.577 102.768 201.488C102.627 201.4 102.461 201.356 102.269 201.356C102.057 201.356 101.874 201.408 101.719 201.513C101.566 201.617 101.449 201.752 101.366 201.918C101.283 202.085 101.242 202.264 101.242 202.454V202.76C101.242 203.021 101.287 203.243 101.377 203.424C101.469 203.604 101.596 203.742 101.758 203.836C101.92 203.929 102.108 203.976 102.323 203.976C102.462 203.976 102.588 203.956 102.701 203.917C102.815 203.877 102.913 203.817 102.996 203.737C103.078 203.656 103.142 203.556 103.187 203.436L103.7 203.58C103.646 203.754 103.556 203.907 103.428 204.039C103.3 204.169 103.143 204.272 102.955 204.345C102.768 204.417 102.557 204.453 102.323 204.453ZM104.563 204.381V200.923H105.076V201.446H105.112C105.175 201.275 105.289 201.136 105.454 201.029C105.619 200.923 105.805 200.869 106.012 200.869C106.051 200.869 106.1 200.87 106.159 200.872C106.217 200.873 106.261 200.875 106.291 200.878V201.419C106.273 201.414 106.232 201.407 106.168 201.398C106.105 201.388 106.038 201.383 105.967 201.383C105.799 201.383 105.649 201.418 105.517 201.488C105.386 201.557 105.283 201.653 105.206 201.777C105.131 201.898 105.094 202.037 105.094 202.193V204.381H104.563ZM108.704 204.381V200.923H109.235V204.381H108.704ZM108.974 200.347C108.871 200.347 108.781 200.312 108.706 200.241C108.633 200.171 108.596 200.086 108.596 199.987C108.596 199.888 108.633 199.803 108.706 199.733C108.781 199.662 108.871 199.627 108.974 199.627C109.078 199.627 109.166 199.662 109.24 199.733C109.315 199.803 109.352 199.888 109.352 199.987C109.352 200.086 109.315 200.171 109.24 200.241C109.166 200.312 109.078 200.347 108.974 200.347ZM111.712 200.923V201.374H109.92V200.923H111.712ZM110.442 200.095H110.974V203.391C110.974 203.541 110.995 203.653 111.039 203.728C111.084 203.802 111.141 203.851 111.21 203.877C111.281 203.901 111.355 203.913 111.433 203.913C111.491 203.913 111.539 203.91 111.577 203.904C111.614 203.896 111.644 203.89 111.667 203.886L111.775 204.363C111.739 204.377 111.689 204.39 111.624 204.404C111.56 204.419 111.478 204.426 111.379 204.426C111.229 204.426 111.082 204.394 110.938 204.329C110.795 204.265 110.676 204.166 110.582 204.034C110.489 203.902 110.442 203.736 110.442 203.535V200.095ZM114.366 204.381V199.771H114.897V201.473H114.942C114.981 201.413 115.035 201.336 115.104 201.243C115.175 201.148 115.275 201.064 115.406 200.991C115.538 200.916 115.717 200.878 115.942 200.878C116.233 200.878 116.49 200.951 116.712 201.097C116.934 201.242 117.107 201.449 117.232 201.716C117.356 201.983 117.419 202.298 117.419 202.661C117.419 203.027 117.356 203.345 117.232 203.613C117.107 203.881 116.935 204.088 116.714 204.235C116.493 204.38 116.239 204.453 115.951 204.453C115.729 204.453 115.551 204.416 115.417 204.343C115.284 204.268 115.181 204.183 115.109 204.088C115.037 203.992 114.981 203.913 114.942 203.85H114.879V204.381H114.366ZM114.888 202.652C114.888 202.913 114.927 203.144 115.003 203.343C115.08 203.541 115.191 203.697 115.339 203.809C115.486 203.92 115.666 203.976 115.879 203.976C116.101 203.976 116.286 203.917 116.435 203.8C116.585 203.682 116.697 203.523 116.772 203.323C116.849 203.122 116.887 202.898 116.887 202.652C116.887 202.409 116.85 202.19 116.775 201.995C116.701 201.798 116.589 201.643 116.439 201.529C116.291 201.413 116.104 201.356 115.879 201.356C115.663 201.356 115.481 201.41 115.334 201.52C115.187 201.628 115.076 201.78 115.001 201.975C114.926 202.168 114.888 202.394 114.888 202.652ZM119.681 204.453C119.348 204.453 119.06 204.38 118.819 204.232C118.579 204.084 118.393 203.877 118.263 203.611C118.134 203.344 118.069 203.033 118.069 202.679C118.069 202.325 118.134 202.013 118.263 201.743C118.393 201.471 118.575 201.26 118.807 201.108C119.042 200.955 119.315 200.878 119.627 200.878C119.807 200.878 119.985 200.908 120.16 200.968C120.336 201.028 120.496 201.126 120.64 201.261C120.784 201.395 120.899 201.572 120.984 201.792C121.07 202.013 121.113 202.285 121.113 202.607V202.832H118.447V202.373H120.572C120.572 202.178 120.533 202.004 120.455 201.851C120.379 201.698 120.269 201.577 120.127 201.488C119.985 201.4 119.819 201.356 119.627 201.356C119.415 201.356 119.232 201.408 119.078 201.513C118.924 201.617 118.807 201.752 118.724 201.918C118.642 202.085 118.6 202.264 118.6 202.454V202.76C118.6 203.021 118.645 203.243 118.735 203.424C118.827 203.604 118.954 203.742 119.116 203.836C119.278 203.929 119.466 203.976 119.681 203.976C119.82 203.976 119.946 203.956 120.059 203.917C120.173 203.877 120.271 203.817 120.354 203.737C120.436 203.656 120.5 203.556 120.545 203.436L121.059 203.58C121.004 203.754 120.914 203.907 120.786 204.039C120.659 204.169 120.501 204.272 120.313 204.345C120.126 204.417 119.915 204.453 119.681 204.453ZM122.452 199.771V204.381H121.921V199.771H122.452ZM124.83 204.453C124.517 204.453 124.244 204.379 124.008 204.23C123.774 204.082 123.591 203.874 123.459 203.607C123.328 203.34 123.263 203.027 123.263 202.67C123.263 202.31 123.328 201.996 123.459 201.727C123.591 201.458 123.774 201.25 124.008 201.101C124.244 200.953 124.517 200.878 124.83 200.878C125.142 200.878 125.415 200.953 125.649 201.101C125.885 201.25 126.068 201.458 126.198 201.727C126.33 201.996 126.396 202.31 126.396 202.67C126.396 203.027 126.33 203.34 126.198 203.607C126.068 203.874 125.885 204.082 125.649 204.23C125.415 204.379 125.142 204.453 124.83 204.453ZM124.83 203.976C125.067 203.976 125.262 203.915 125.415 203.794C125.568 203.672 125.681 203.512 125.755 203.314C125.828 203.116 125.865 202.901 125.865 202.67C125.865 202.439 125.828 202.224 125.755 202.024C125.681 201.825 125.568 201.663 125.415 201.54C125.262 201.417 125.067 201.356 124.83 201.356C124.593 201.356 124.397 201.417 124.244 201.54C124.091 201.663 123.978 201.825 123.904 202.024C123.831 202.224 123.794 202.439 123.794 202.67C123.794 202.901 123.831 203.116 123.904 203.314C123.978 203.512 124.091 203.672 124.244 203.794C124.397 203.915 124.593 203.976 124.83 203.976ZM127.873 204.381L126.82 200.923H127.378L128.125 203.571H128.161L128.9 200.923H129.467L130.196 203.562H130.232L130.98 200.923H131.538L130.484 204.381H129.962L129.206 201.725H129.152L128.395 204.381H127.873Z" fill="#333333"/>
<path d="M97.9823 178.047C97.9507 177.752 97.8179 177.523 97.5838 177.359C97.352 177.194 97.0503 177.112 96.6789 177.112C96.4178 177.112 96.1938 177.151 96.0069 177.23C95.8201 177.309 95.6772 177.416 95.5781 177.551C95.4791 177.686 95.4284 177.84 95.4262 178.014C95.4262 178.158 95.4588 178.283 95.5241 178.388C95.5916 178.494 95.6828 178.584 95.7976 178.659C95.9124 178.731 96.0396 178.791 96.1791 178.841C96.3187 178.89 96.4594 178.932 96.6012 178.966L97.2495 179.128C97.5107 179.189 97.7617 179.271 98.0025 179.374C98.2456 179.478 98.4629 179.608 98.6542 179.766C98.8478 179.924 99.0009 180.114 99.1134 180.337C99.226 180.56 99.2823 180.821 99.2823 181.12C99.2823 181.525 99.1787 181.882 98.9716 182.19C98.7645 182.497 98.4651 182.736 98.0734 182.91C97.684 183.081 97.2124 183.166 96.6586 183.166C96.1206 183.166 95.6535 183.083 95.2573 182.916C94.8634 182.75 94.555 182.507 94.3321 182.187C94.1115 181.867 93.9922 181.478 93.9742 181.019H95.2067C95.2247 181.26 95.299 181.46 95.4295 181.62C95.5601 181.78 95.7301 181.899 95.9394 181.978C96.151 182.057 96.3874 182.096 96.6485 182.096C96.9209 182.096 97.1595 182.055 97.3643 181.974C97.5714 181.891 97.7335 181.776 97.8506 181.63C97.9676 181.481 98.0273 181.308 98.0295 181.11C98.0273 180.93 97.9744 180.781 97.8708 180.664C97.7673 180.545 97.6221 180.446 97.4353 180.367C97.2507 180.286 97.0346 180.214 96.7869 180.151L96.0002 179.948C95.4307 179.802 94.9804 179.58 94.6495 179.283C94.3209 178.984 94.1565 178.586 94.1565 178.091C94.1565 177.684 94.2668 177.327 94.4874 177.021C94.7103 176.715 95.0131 176.477 95.3958 176.308C95.7784 176.137 96.2118 176.052 96.6958 176.052C97.1865 176.052 97.6165 176.137 97.9856 176.308C98.3571 176.477 98.6486 176.712 98.8602 177.014C99.0718 177.313 99.181 177.658 99.1877 178.047H97.9823ZM100.345 183.062V177.875H101.567V183.062H100.345ZM100.96 177.139C100.766 177.139 100.599 177.075 100.46 176.947C100.32 176.816 100.251 176.66 100.251 176.477C100.251 176.293 100.32 176.136 100.46 176.008C100.599 175.877 100.766 175.812 100.96 175.812C101.155 175.812 101.322 175.877 101.459 176.008C101.599 176.136 101.669 176.293 101.669 176.477C101.669 176.66 101.599 176.816 101.459 176.947C101.322 177.075 101.155 177.139 100.96 177.139ZM105.08 185.115C104.641 185.115 104.264 185.055 103.949 184.936C103.634 184.819 103.38 184.661 103.189 184.463C102.998 184.265 102.865 184.045 102.791 183.805L103.891 183.538C103.941 183.639 104.013 183.739 104.107 183.838C104.202 183.94 104.329 184.023 104.489 184.088C104.651 184.156 104.855 184.189 105.1 184.189C105.447 184.189 105.734 184.105 105.961 183.936C106.189 183.77 106.302 183.495 106.302 183.112V182.13H106.242C106.178 182.256 106.086 182.385 105.965 182.518C105.845 182.651 105.687 182.762 105.489 182.852C105.293 182.942 105.046 182.987 104.749 182.987C104.351 182.987 103.989 182.894 103.665 182.707C103.343 182.518 103.087 182.237 102.895 181.863C102.706 181.487 102.612 181.017 102.612 180.452C102.612 179.882 102.706 179.401 102.895 179.01C103.087 178.616 103.344 178.317 103.669 178.115C103.993 177.91 104.354 177.808 104.752 177.808C105.056 177.808 105.306 177.859 105.502 177.963C105.7 178.064 105.858 178.187 105.975 178.331C106.092 178.473 106.181 178.607 106.242 178.733H106.309V177.875H107.515V183.146C107.515 183.59 107.409 183.956 107.197 184.247C106.985 184.537 106.696 184.754 106.329 184.899C105.962 185.043 105.546 185.115 105.08 185.115ZM105.09 182.028C105.349 182.028 105.57 181.965 105.752 181.839C105.934 181.713 106.073 181.532 106.167 181.296C106.262 181.059 106.309 180.776 106.309 180.445C106.309 180.118 106.262 179.832 106.167 179.587C106.075 179.342 105.938 179.152 105.755 179.016C105.575 178.879 105.353 178.81 105.09 178.81C104.818 178.81 104.59 178.881 104.408 179.023C104.226 179.165 104.088 179.36 103.996 179.607C103.904 179.853 103.858 180.132 103.858 180.445C103.858 180.762 103.904 181.04 103.996 181.279C104.091 181.515 104.229 181.7 104.411 181.833C104.596 181.963 104.822 182.028 105.09 182.028ZM109.99 180.023V183.062H108.767V177.875H109.936V178.756H109.996C110.116 178.466 110.306 178.235 110.567 178.064C110.83 177.893 111.156 177.808 111.543 177.808C111.901 177.808 112.213 177.884 112.478 178.037C112.746 178.19 112.953 178.412 113.099 178.702C113.248 178.993 113.321 179.345 113.319 179.759V183.062H112.097V179.948C112.097 179.602 112.007 179.33 111.826 179.135C111.649 178.939 111.402 178.841 111.087 178.841C110.873 178.841 110.683 178.888 110.516 178.983C110.352 179.075 110.223 179.209 110.128 179.384C110.036 179.56 109.99 179.773 109.99 180.023ZM121.333 176.146H122.586V180.664C122.586 181.159 122.469 181.595 122.235 181.971C122.003 182.347 121.677 182.641 121.256 182.852C120.835 183.062 120.343 183.166 119.78 183.166C119.215 183.166 118.722 183.062 118.301 182.852C117.88 182.641 117.554 182.347 117.322 181.971C117.09 181.595 116.974 181.159 116.974 180.664V176.146H118.227V180.56C118.227 180.848 118.29 181.104 118.416 181.329C118.544 181.555 118.724 181.731 118.956 181.86C119.188 181.986 119.463 182.049 119.78 182.049C120.098 182.049 120.372 181.986 120.604 181.86C120.838 181.731 121.018 181.555 121.144 181.329C121.27 181.104 121.333 180.848 121.333 180.56V176.146ZM123.894 185.007V177.875H125.096V178.733H125.167C125.23 178.607 125.319 178.473 125.433 178.331C125.548 178.187 125.704 178.064 125.899 177.963C126.095 177.859 126.345 177.808 126.649 177.808C127.05 177.808 127.411 177.91 127.733 178.115C128.057 178.317 128.314 178.618 128.503 179.016C128.694 179.413 128.79 179.899 128.79 180.475C128.79 181.045 128.696 181.529 128.51 181.927C128.323 182.326 128.068 182.629 127.746 182.839C127.425 183.048 127.06 183.153 126.652 183.153C126.355 183.153 126.109 183.103 125.913 183.004C125.717 182.905 125.56 182.786 125.44 182.646C125.323 182.505 125.232 182.371 125.167 182.245H125.116V185.007H123.894ZM125.092 180.468C125.092 180.804 125.14 181.098 125.234 181.35C125.331 181.602 125.469 181.799 125.65 181.941C125.832 182.08 126.052 182.15 126.311 182.15C126.582 182.15 126.808 182.078 126.99 181.934C127.172 181.788 127.31 181.588 127.402 181.336C127.497 181.082 127.544 180.793 127.544 180.468C127.544 180.146 127.498 179.861 127.405 179.611C127.313 179.361 127.176 179.165 126.993 179.023C126.811 178.881 126.584 178.81 126.311 178.81C126.05 178.81 125.829 178.879 125.646 179.016C125.464 179.154 125.325 179.346 125.231 179.594C125.139 179.841 125.092 180.133 125.092 180.468Z" fill="#333333"/>
<path d="M84.0352 231.698H105.165" stroke="#DEDDDD" stroke-width="0.528256" stroke-linecap="round"/>
<path d="M50.2273 231.698H71.3575" stroke="#DEDDDD" stroke-width="0.528256" stroke-linecap="round"/>
<path d="M151.652 231.698H172.782" stroke="#DEDDDD" stroke-width="0.528256" stroke-linecap="round"/>
<path d="M117.844 231.698H138.975" stroke="#DEDDDD" stroke-width="0.528256" stroke-linecap="round"/>
</g>
</g>
<defs>
<filter id="filter0_d_1_2633" x="0.191406" y="0" width="222.096" height="452.943" filterUnits="userSpaceOnUse" color-interpolation-filters="sRGB">
<feFlood flood-opacity="0" result="BackgroundImageFix"/>
<feColorMatrix in="SourceAlpha" type="matrix" values="0 0 0 0 0 0 0 0 0 0 0 0 0 0 0 0 0 0 127 0" result="hardAlpha"/>
<feOffset dy="-1"/>
<feGaussianBlur stdDeviation="6"/>
<feComposite in2="hardAlpha" operator="out"/>
<feColorMatrix type="matrix" values="0 0 0 0 0 0 0 0 0 0 0 0 0 0 0 0 0 0 0.12 0"/>
<feBlend mode="normal" in2="BackgroundImageFix" result="effect1_dropShadow_1_2633"/>
<feBlend mode="normal" in="SourceGraphic" in2="effect1_dropShadow_1_2633" result="shape"/>
</filter>
<filter id="filter1_b_1_2633" x="10.0794" y="10.887" width="202.322" height="433.17" filterUnits="userSpaceOnUse" color-interpolation-filters="sRGB">
<feFlood flood-opacity="0" result="BackgroundImageFix"/>
<feGaussianBlur in="BackgroundImageFix" stdDeviation="1.05651"/>
<feComposite in2="SourceAlpha" operator="in" result="effect1_backgroundBlur_1_2633"/>
<feBlend mode="normal" in="SourceGraphic" in2="effect1_backgroundBlur_1_2633" result="shape"/>
</filter>
<clipPath id="clip0_1_2633">
<rect x="12.1914" y="13" width="198.096" height="428.943" rx="20" fill="white"/>
</clipPath>
</defs>
</svg>
