<svg width="223" height="453" viewBox="0 0 223 453" fill="none" xmlns="http://www.w3.org/2000/svg">
<g filter="url(#filter0_d_1_2596)">
<g clip-path="url(#clip0_1_2596)">
<rect x="12.0957" y="13" width="198.096" height="428.943" rx="20" fill="white"/>
<rect width="198.096" height="67.0884" transform="matrix(1 0 0 -1 12.0948 441.944)" fill="#333333"/>
<path d="M12.095 12.9999H210.191V384.892C210.191 397.729 199.784 408.135 186.948 408.135H35.3382C22.5013 408.135 12.095 397.729 12.095 384.892V12.9999Z" fill="white"/>
<path opacity="0.35" fill-rule="evenodd" clip-rule="evenodd" d="M199.133 22.6848H192.019C191.615 22.6848 191.345 22.6852 191.136 22.7022C190.934 22.7187 190.838 22.7482 190.774 22.7807C190.608 22.8651 190.473 22.9998 190.389 23.1655C190.356 23.2293 190.327 23.326 190.31 23.5282C190.293 23.7366 190.293 24.0072 190.293 24.4104V25.8895C190.293 26.2927 190.293 26.5633 190.31 26.7717C190.327 26.9739 190.356 27.0706 190.389 27.1344C190.473 27.3001 190.608 27.4348 190.774 27.5192C190.838 27.5517 190.934 27.5812 191.136 27.5977C191.345 27.6147 191.615 27.6151 192.019 27.6151H199.133C199.536 27.6151 199.806 27.6147 200.015 27.5977C200.217 27.5812 200.314 27.5517 200.377 27.5192C200.543 27.4348 200.678 27.3001 200.762 27.1344C200.795 27.0706 200.824 26.9739 200.841 26.7717C200.858 26.5633 200.858 26.2927 200.858 25.8895V24.4104C200.858 24.0072 200.858 23.7366 200.841 23.5282C200.824 23.326 200.795 23.2293 200.762 23.1655C200.678 22.9998 200.543 22.8651 200.377 22.7807C200.314 22.7482 200.217 22.7187 200.015 22.7022C199.806 22.6852 199.536 22.6848 199.133 22.6848ZM189.918 22.9257C189.765 23.227 189.765 23.6215 189.765 24.4104V25.8895C189.765 26.6785 189.765 27.0729 189.918 27.3743C190.053 27.6393 190.269 27.8548 190.534 27.9899C190.835 28.1434 191.23 28.1434 192.019 28.1434H199.133C199.921 28.1434 200.316 28.1434 200.617 27.9899C200.882 27.8548 201.098 27.6393 201.233 27.3743C201.386 27.0729 201.386 26.6785 201.386 25.8895V24.4104C201.386 23.6215 201.386 23.227 201.233 22.9257C201.098 22.6606 200.882 22.4451 200.617 22.31C200.316 22.1565 199.921 22.1565 199.133 22.1565H192.019C191.23 22.1565 190.835 22.1565 190.534 22.31C190.269 22.4451 190.053 22.6606 189.918 22.9257Z" fill="black"/>
<path opacity="0.4" d="M201.914 24.0935V26.2065C202.339 26.0276 202.616 25.6113 202.616 25.15C202.616 24.6888 202.339 24.2725 201.914 24.0935Z" fill="black"/>
<path d="M190.821 24.3399C190.821 23.9454 190.821 23.7481 190.898 23.5975C190.966 23.465 191.073 23.3572 191.206 23.2897C191.357 23.2129 191.554 23.2129 191.948 23.2129H199.203C199.598 23.2129 199.795 23.2129 199.945 23.2897C200.078 23.3572 200.186 23.465 200.253 23.5975C200.33 23.7481 200.33 23.9454 200.33 24.3399V25.9598C200.33 26.3543 200.33 26.5515 200.253 26.7022C200.186 26.8347 200.078 26.9425 199.945 27.01C199.795 27.0868 199.598 27.0868 199.203 27.0868H191.948C191.554 27.0868 191.357 27.0868 191.206 27.01C191.073 26.9425 190.966 26.8347 190.898 26.7022C190.821 26.5515 190.821 26.3543 190.821 25.9598V24.3399Z" fill="black"/>
<path fill-rule="evenodd" clip-rule="evenodd" d="M183.074 23.362C184.249 23.362 185.379 23.8132 186.231 24.6223C186.295 24.6847 186.398 24.6839 186.461 24.6205L187.074 24.0023C187.106 23.9701 187.124 23.9265 187.124 23.8811C187.123 23.8358 187.105 23.7924 187.073 23.7606C184.837 21.62 181.31 21.62 179.075 23.7606C179.042 23.7924 179.024 23.8358 179.024 23.8811C179.023 23.9265 179.041 23.9701 179.073 24.0023L179.686 24.6205C179.75 24.684 179.852 24.6848 179.916 24.6223C180.768 23.8131 181.899 23.3619 183.074 23.362ZM183.074 25.3733C183.72 25.3733 184.342 25.6131 184.821 26.0461C184.886 26.1076 184.988 26.1063 185.051 26.0431L185.663 25.4249C185.695 25.3925 185.713 25.3485 185.713 25.3028C185.712 25.2571 185.694 25.2134 185.661 25.1817C184.203 23.827 181.946 23.827 180.488 25.1817C180.455 25.2134 180.437 25.2571 180.436 25.3028C180.436 25.3485 180.454 25.3925 180.486 25.4249L181.098 26.0431C181.161 26.1063 181.263 26.1076 181.328 26.0461C181.806 25.6134 182.429 25.3736 183.074 25.3733ZM184.301 26.7266C184.302 26.7725 184.283 26.8167 184.251 26.8488L183.191 27.9169C183.16 27.9483 183.118 27.966 183.074 27.966C183.03 27.966 182.987 27.9483 182.956 27.9169L181.897 26.8488C181.864 26.8166 181.846 26.7724 181.847 26.7266C181.848 26.6808 181.868 26.6373 181.902 26.6066C182.578 26.0349 183.569 26.0349 184.246 26.6066C184.28 26.6374 184.3 26.6808 184.301 26.7266Z" fill="black"/>
<path fill-rule="evenodd" clip-rule="evenodd" d="M175.854 22.3327H175.325C175.034 22.3327 174.797 22.5692 174.797 22.8609V27.4391C174.797 27.7309 175.034 27.9674 175.325 27.9674H175.854C176.145 27.9674 176.382 27.7309 176.382 27.4391V22.8609C176.382 22.5692 176.145 22.3327 175.854 22.3327ZM172.86 23.5652H173.389C173.68 23.5652 173.917 23.8018 173.917 24.0935V27.4391C173.917 27.7309 173.68 27.9674 173.389 27.9674H172.86C172.569 27.9674 172.332 27.7309 172.332 27.4391V24.0935C172.332 23.8018 172.569 23.5652 172.86 23.5652ZM170.923 24.7978H170.395C170.103 24.7978 169.867 25.0344 169.867 25.3261V27.4391C169.867 27.7309 170.103 27.9674 170.395 27.9674H170.923C171.215 27.9674 171.452 27.7309 171.452 27.4391V25.3261C171.452 25.0344 171.215 24.7978 170.923 24.7978ZM168.458 25.8544H167.93C167.638 25.8544 167.402 26.0909 167.402 26.3826V27.4391C167.402 27.7309 167.638 27.9674 167.93 27.9674H168.458C168.75 27.9674 168.986 27.7309 168.986 27.4391V26.3826C168.986 26.0909 168.75 25.8544 168.458 25.8544Z" fill="black"/>
<path d="M31.6808 27.9265C33.1007 27.9265 33.9442 26.8161 33.9442 24.9318C33.9442 23.0824 33.0466 22.0687 31.7118 22.0687C30.4969 22.0687 29.6379 22.8851 29.6379 24.0265C29.6379 25.0982 30.4118 25.8798 31.4757 25.8798C32.1296 25.8798 32.6597 25.578 32.9228 25.0479H32.9885C32.9769 26.3595 32.5088 27.1101 31.6924 27.1101C31.2126 27.1101 30.8296 26.847 30.7097 26.4214H29.7153C29.8778 27.3307 30.6594 27.9265 31.6808 27.9265ZM31.7156 25.1098C31.0656 25.1098 30.6168 24.6533 30.6168 23.9955C30.6168 23.3649 31.0888 22.8812 31.7195 22.8812C32.3502 22.8812 32.8222 23.3726 32.8222 24.0149C32.8222 24.6494 32.3618 25.1098 31.7156 25.1098Z" fill="black"/>
<path d="M35.6088 25.0286C35.9764 25.0286 36.2278 24.7693 36.2278 24.4289C36.2278 24.0845 35.9764 23.8292 35.6088 23.8292C35.2451 23.8292 34.9897 24.0845 34.9897 24.4289C34.9897 24.7693 35.2451 25.0286 35.6088 25.0286ZM35.6088 27.8685C35.9764 27.8685 36.2278 27.6092 36.2278 27.2649C36.2278 26.9244 35.9764 26.6652 35.6088 26.6652C35.2451 26.6652 34.9897 26.9244 34.9897 27.2649C34.9897 27.6092 35.2451 27.8685 35.6088 27.8685Z" fill="black"/>
<path d="M39.8811 27.7911H40.8368V26.7193H41.5913V25.8952H40.8368V22.208H39.4285C38.6701 23.361 37.877 24.6455 37.1534 25.903V26.7193H39.8811V27.7911ZM38.0782 25.8604C38.6237 24.9125 39.2698 23.8795 39.8424 23.005H39.8966V25.9184H38.0782V25.8604Z" fill="black"/>
<path d="M43.7511 27.7911H44.7493V22.208H43.755L42.2963 23.2333V24.1735L43.6853 23.1908H43.7511V27.7911Z" fill="black"/>
<path d="M95.5333 42.8592H96.3775L97.8452 46.4429H97.8992L99.3669 42.8592H100.211V47.4694H99.5493V44.1333H99.5065L98.1469 47.4626H97.5976L96.2379 44.131H96.1952V47.4694H95.5333V42.8592ZM101.594 48.766C101.493 48.766 101.402 48.7578 101.319 48.7413C101.237 48.7263 101.175 48.7097 101.135 48.6917L101.297 48.1402C101.42 48.1732 101.529 48.1875 101.625 48.183C101.721 48.1785 101.806 48.1425 101.88 48.0749C101.955 48.0074 102.021 47.8971 102.078 47.744L102.161 47.5144L100.896 44.0117H101.616L102.492 46.695H102.528L103.404 44.0117H104.126L102.701 47.9309C102.635 48.111 102.551 48.2633 102.449 48.3878C102.347 48.5139 102.226 48.6084 102.085 48.6715C101.943 48.7345 101.78 48.766 101.594 48.766ZM106.491 47.4694V42.8592H108.134C108.492 42.8592 108.79 42.9245 109.025 43.055C109.261 43.1856 109.437 43.3642 109.554 43.5908C109.671 43.8159 109.73 44.0695 109.73 44.3516C109.73 44.6353 109.671 44.8904 109.552 45.117C109.435 45.3421 109.258 45.5207 109.021 45.6528C108.785 45.7833 108.489 45.8486 108.132 45.8486H107.002V45.2588H108.069C108.295 45.2588 108.479 45.2198 108.62 45.1418C108.761 45.0622 108.865 44.9542 108.931 44.8176C108.997 44.681 109.03 44.5257 109.03 44.3516C109.03 44.1776 108.997 44.023 108.931 43.8879C108.865 43.7529 108.76 43.647 108.618 43.5705C108.477 43.494 108.291 43.4557 108.06 43.4557H107.186V47.4694H106.491ZM110.491 47.4694V44.0117H111.142V44.561H111.178C111.241 44.3749 111.352 44.2286 111.511 44.122C111.672 44.014 111.853 43.96 112.056 43.96C112.098 43.96 112.147 43.9615 112.204 43.9645C112.263 43.9675 112.309 43.9712 112.342 43.9757V44.6195C112.315 44.612 112.267 44.6038 112.198 44.5948C112.129 44.5843 112.06 44.579 111.99 44.579C111.831 44.579 111.69 44.6128 111.565 44.6803C111.442 44.7463 111.344 44.8386 111.272 44.9572C111.2 45.0742 111.164 45.2078 111.164 45.3579V47.4694H110.491ZM114.257 47.5392C113.933 47.5392 113.65 47.4649 113.408 47.3163C113.166 47.1678 112.979 46.9599 112.845 46.6928C112.712 46.4256 112.645 46.1135 112.645 45.7563C112.645 45.3976 112.712 45.084 112.845 44.8154C112.979 44.5467 113.166 44.3381 113.408 44.1896C113.65 44.041 113.933 43.9667 114.257 43.9667C114.581 43.9667 114.864 44.041 115.105 44.1896C115.347 44.3381 115.535 44.5467 115.668 44.8154C115.802 45.084 115.869 45.3976 115.869 45.7563C115.869 46.1135 115.802 46.4256 115.668 46.6928C115.535 46.9599 115.347 47.1678 115.105 47.3163C114.864 47.4649 114.581 47.5392 114.257 47.5392ZM114.259 46.9742C114.469 46.9742 114.643 46.9186 114.781 46.8076C114.919 46.6965 115.021 46.5487 115.087 46.3641C115.155 46.1795 115.189 45.9762 115.189 45.7541C115.189 45.5335 115.155 45.3309 115.087 45.1463C115.021 44.9602 114.919 44.8109 114.781 44.6983C114.643 44.5858 114.469 44.5295 114.259 44.5295C114.047 44.5295 113.872 44.5858 113.732 44.6983C113.594 44.8109 113.491 44.9602 113.424 45.1463C113.358 45.3309 113.325 45.5335 113.325 45.7541C113.325 45.9762 113.358 46.1795 113.424 46.3641C113.491 46.5487 113.594 46.6965 113.732 46.8076C113.872 46.9186 114.047 46.9742 114.259 46.9742ZM118.265 44.0117V44.552H116.311V44.0117H118.265ZM116.847 47.4694V43.611C116.847 43.3949 116.894 43.2156 116.989 43.073C117.084 42.929 117.209 42.8217 117.365 42.7511C117.521 42.6791 117.691 42.6431 117.874 42.6431C118.009 42.6431 118.124 42.6543 118.22 42.6768C118.316 42.6978 118.388 42.7173 118.434 42.7354L118.277 43.2801C118.245 43.2711 118.205 43.2606 118.155 43.2486C118.106 43.2351 118.046 43.2283 117.975 43.2283C117.811 43.2283 117.694 43.2689 117.624 43.3499C117.555 43.4309 117.52 43.548 117.52 43.7011V47.4694H116.847ZM118.96 47.4694V44.0117H119.633V47.4694H118.96ZM119.3 43.4782C119.183 43.4782 119.082 43.4392 118.998 43.3612C118.916 43.2816 118.874 43.1871 118.874 43.0775C118.874 42.9665 118.916 42.8719 118.998 42.7939C119.082 42.7143 119.183 42.6746 119.3 42.6746C119.417 42.6746 119.517 42.7143 119.599 42.7939C119.683 42.8719 119.725 42.9665 119.725 43.0775C119.725 43.1871 119.683 43.2816 119.599 43.3612C119.517 43.4392 119.417 43.4782 119.3 43.4782ZM121.212 42.8592V47.4694H120.538V42.8592H121.212ZM123.607 47.5392C123.267 47.5392 122.973 47.4664 122.727 47.3208C122.482 47.1738 122.293 46.9674 122.16 46.7018C122.028 46.4346 121.962 46.1217 121.962 45.7631C121.962 45.4089 122.028 45.0968 122.16 44.8266C122.293 44.5565 122.479 44.3456 122.718 44.1941C122.958 44.0425 123.239 43.9667 123.56 43.9667C123.755 43.9667 123.944 43.999 124.127 44.0635C124.31 44.128 124.475 44.2293 124.62 44.3674C124.766 44.5055 124.881 44.6848 124.965 44.9054C125.049 45.1245 125.091 45.3909 125.091 45.7045V45.9432H122.342V45.4389H124.431C124.431 45.2618 124.395 45.105 124.323 44.9684C124.251 44.8304 124.15 44.7216 124.019 44.642C123.89 44.5625 123.739 44.5227 123.564 44.5227C123.375 44.5227 123.21 44.5692 123.069 44.6623C122.93 44.7538 122.822 44.8739 122.745 45.0225C122.67 45.1695 122.633 45.3294 122.633 45.5019V45.8959C122.633 46.127 122.673 46.3236 122.754 46.4857C122.837 46.6478 122.951 46.7716 123.098 46.8571C123.246 46.9411 123.417 46.9832 123.614 46.9832C123.742 46.9832 123.858 46.9652 123.963 46.9291C124.068 46.8916 124.159 46.8361 124.235 46.7626C124.312 46.689 124.37 46.5982 124.411 46.4902L125.048 46.605C124.997 46.7926 124.905 46.9569 124.773 47.098C124.643 47.2375 124.478 47.3463 124.28 47.4244C124.084 47.5009 123.859 47.5392 123.607 47.5392Z" fill="#333333"/>
<path d="M165.965 426.644V420.497H168.156C168.635 420.497 169.031 420.584 169.345 420.758C169.659 420.932 169.894 421.17 170.05 421.473C170.206 421.773 170.284 422.111 170.284 422.487C170.284 422.865 170.205 423.205 170.047 423.508C169.891 423.808 169.655 424.046 169.339 424.222C169.025 424.396 168.63 424.483 168.153 424.483H166.647V423.697H168.069C168.372 423.697 168.617 423.645 168.805 423.541C168.993 423.434 169.131 423.29 169.219 423.108C169.307 422.926 169.351 422.719 169.351 422.487C169.351 422.255 169.307 422.049 169.219 421.869C169.131 421.689 168.992 421.548 168.802 421.446C168.614 421.343 168.366 421.292 168.057 421.292H166.893V426.644H165.965ZM171.3 426.644V422.034H172.167V422.766H172.215C172.299 422.518 172.447 422.323 172.659 422.181C172.873 422.037 173.116 421.965 173.386 421.965C173.442 421.965 173.508 421.967 173.584 421.971C173.662 421.975 173.723 421.98 173.767 421.986V422.844C173.731 422.834 173.667 422.823 173.575 422.811C173.483 422.797 173.391 422.79 173.299 422.79C173.087 422.79 172.897 422.835 172.731 422.925C172.567 423.013 172.437 423.136 172.341 423.294C172.245 423.45 172.197 423.629 172.197 423.829V426.644H171.3ZM176.32 426.737C175.888 426.737 175.511 426.638 175.189 426.44C174.867 426.242 174.617 425.965 174.438 425.609C174.26 425.252 174.171 424.836 174.171 424.36C174.171 423.882 174.26 423.464 174.438 423.105C174.617 422.747 174.867 422.469 175.189 422.271C175.511 422.073 175.888 421.974 176.32 421.974C176.753 421.974 177.13 422.073 177.452 422.271C177.774 422.469 178.024 422.747 178.202 423.105C178.38 423.464 178.469 423.882 178.469 424.36C178.469 424.836 178.38 425.252 178.202 425.609C178.024 425.965 177.774 426.242 177.452 426.44C177.13 426.638 176.753 426.737 176.32 426.737ZM176.323 425.984C176.604 425.984 176.836 425.91 177.02 425.762C177.204 425.614 177.34 425.416 177.428 425.17C177.518 424.924 177.563 424.653 177.563 424.357C177.563 424.063 177.518 423.793 177.428 423.547C177.34 423.298 177.204 423.099 177.02 422.949C176.836 422.799 176.604 422.724 176.323 422.724C176.041 422.724 175.807 422.799 175.621 422.949C175.437 423.099 175.3 423.298 175.21 423.547C175.122 423.793 175.078 424.063 175.078 424.357C175.078 424.653 175.122 424.924 175.21 425.17C175.3 425.416 175.437 425.614 175.621 425.762C175.807 425.91 176.041 425.984 176.323 425.984ZM181.665 422.034V422.754H179.06V422.034H181.665ZM179.774 426.644V421.5C179.774 421.211 179.837 420.972 179.963 420.782C180.089 420.59 180.257 420.447 180.465 420.353C180.673 420.257 180.899 420.209 181.143 420.209C181.323 420.209 181.477 420.224 181.605 420.254C181.733 420.282 181.828 420.308 181.89 420.332L181.68 421.058C181.638 421.046 181.584 421.032 181.518 421.016C181.452 420.998 181.372 420.989 181.278 420.989C181.06 420.989 180.904 421.043 180.81 421.151C180.718 421.259 180.672 421.416 180.672 421.62V426.644H179.774ZM182.591 426.644V422.034H183.489V426.644H182.591ZM183.044 421.322C182.888 421.322 182.754 421.27 182.642 421.166C182.532 421.06 182.477 420.934 182.477 420.788C182.477 420.64 182.532 420.514 182.642 420.41C182.754 420.304 182.888 420.251 183.044 420.251C183.2 420.251 183.334 420.304 183.444 420.41C183.556 420.514 183.612 420.64 183.612 420.788C183.612 420.934 183.556 421.06 183.444 421.166C183.334 421.27 183.2 421.322 183.044 421.322ZM185.593 420.497V426.644H184.696V420.497H185.593ZM188.788 426.737C188.333 426.737 187.942 426.64 187.614 426.446C187.288 426.25 187.036 425.975 186.858 425.621C186.682 425.264 186.594 424.847 186.594 424.369C186.594 423.897 186.682 423.481 186.858 423.12C187.036 422.76 187.284 422.479 187.602 422.277C187.922 422.075 188.296 421.974 188.725 421.974C188.985 421.974 189.237 422.017 189.481 422.103C189.725 422.189 189.944 422.324 190.138 422.508C190.332 422.692 190.485 422.931 190.598 423.225C190.71 423.518 190.766 423.873 190.766 424.291V424.609H187.101V423.937H189.886C189.886 423.701 189.838 423.492 189.742 423.309C189.646 423.125 189.511 422.98 189.337 422.874C189.165 422.768 188.963 422.715 188.731 422.715C188.479 422.715 188.258 422.777 188.07 422.901C187.884 423.023 187.74 423.183 187.638 423.381C187.538 423.578 187.488 423.791 187.488 424.021V424.546C187.488 424.854 187.542 425.116 187.65 425.332C187.76 425.549 187.913 425.714 188.109 425.828C188.305 425.94 188.535 425.996 188.797 425.996C188.967 425.996 189.122 425.972 189.262 425.924C189.402 425.874 189.523 425.8 189.625 425.702C189.727 425.604 189.805 425.482 189.859 425.338L190.709 425.491C190.641 425.742 190.518 425.961 190.342 426.149C190.168 426.335 189.949 426.48 189.685 426.584C189.423 426.686 189.124 426.737 188.788 426.737Z" fill="white"/>
<path d="M37.9905 418.616L35.1432 420.835C34.6677 421.204 34.2821 421.992 34.2821 422.588V426.503C34.2821 427.728 35.2805 428.732 36.5061 428.732H42.6233C43.8488 428.732 44.8472 427.728 44.8472 426.508V422.662C44.8472 422.023 44.4193 421.204 43.8964 420.84L40.6317 418.553C39.8922 418.035 38.7036 418.061 37.9905 418.616Z" stroke="white" stroke-width="0.792383" stroke-linecap="round" stroke-linejoin="round"/>
<path d="M153.73 423.867C153.693 423.862 153.646 423.862 153.603 423.867C152.674 423.835 151.934 423.074 151.934 422.139C151.934 421.183 152.705 420.407 153.667 420.407C154.623 420.407 155.4 421.183 155.4 422.139C155.394 423.074 154.66 423.835 153.73 423.867Z" stroke="white" stroke-width="0.792383" stroke-linecap="round" stroke-linejoin="round"/>
<path d="M157.227 427.353C156.287 428.214 155.04 428.737 153.667 428.737C152.294 428.737 151.047 428.214 150.107 427.353C150.159 426.857 150.476 426.371 151.042 425.99C152.489 425.029 154.856 425.029 156.292 425.99C156.858 426.371 157.175 426.857 157.227 427.353Z" stroke="white" stroke-width="0.792383" stroke-linecap="round" stroke-linejoin="round"/>
<path d="M153.667 428.737C156.584 428.737 158.95 426.372 158.95 423.455C158.95 420.537 156.584 418.172 153.667 418.172C150.749 418.172 148.384 420.537 148.384 423.455C148.384 426.372 150.749 428.737 153.667 428.737Z" stroke="white" stroke-width="0.792383" stroke-linecap="round" stroke-linejoin="round"/>
<path d="M73.1723 421.601C74.213 417.026 80.9905 417.031 82.0259 421.606C82.6334 424.289 80.9641 426.561 79.5008 427.966C78.439 428.991 76.7592 428.991 75.6921 427.966C74.2341 426.561 72.5648 424.284 73.1723 421.601Z" stroke="white" stroke-width="0.792383"/>
<path d="M76.1464 423.191L76.9387 423.983L79.0518 421.87" stroke="white" stroke-width="0.792383" stroke-linecap="round" stroke-linejoin="round"/>
<path d="M110.351 423.777H119.332" stroke="white" stroke-width="0.792383" stroke-miterlimit="10" stroke-linecap="round" stroke-linejoin="round"/>
<path d="M119.332 422.546V426.323C119.316 427.829 118.904 428.209 117.335 428.209H112.348C110.753 428.209 110.351 427.813 110.351 426.239V422.546C110.351 421.12 110.684 420.66 111.936 420.586C112.063 420.581 112.2 420.576 112.348 420.576H117.335C118.93 420.576 119.332 420.972 119.332 422.546Z" stroke="white" stroke-width="0.792383" stroke-linecap="round" stroke-linejoin="round"/>
<path d="M120.916 420.671V424.363C120.916 425.79 120.584 426.249 119.332 426.323V422.546C119.332 420.972 118.93 420.576 117.335 420.576H112.348C112.2 420.576 112.063 420.581 111.936 420.586C111.952 419.081 112.364 418.7 113.933 418.7H118.92C120.515 418.7 120.916 419.097 120.916 420.671Z" stroke="white" stroke-width="0.792383" stroke-linecap="round" stroke-linejoin="round"/>
<path d="M112.068 426.524H112.977" stroke="white" stroke-width="0.792383" stroke-miterlimit="10" stroke-linecap="round" stroke-linejoin="round"/>
<path d="M114.107 426.524H115.924" stroke="white" stroke-width="0.792383" stroke-miterlimit="10" stroke-linecap="round" stroke-linejoin="round"/>
<rect x="82.8809" y="213.737" width="57.3563" height="27.7346" rx="13.8673" fill="#333333"/>
<path d="M99.5869 226.072C99.5549 225.788 99.4228 225.568 99.1907 225.412C98.9586 225.254 98.6665 225.175 98.3143 225.175C98.0622 225.175 97.8441 225.215 97.66 225.295C97.4759 225.373 97.3328 225.481 97.2308 225.619C97.1307 225.755 97.0807 225.91 97.0807 226.084C97.0807 226.23 97.1147 226.356 97.1827 226.462C97.2528 226.568 97.3438 226.657 97.4559 226.73C97.5699 226.8 97.692 226.859 97.8221 226.907C97.9521 226.953 98.0772 226.991 98.1972 227.021L98.7975 227.177C98.9936 227.225 99.1947 227.29 99.4008 227.372C99.6069 227.454 99.798 227.562 99.9741 227.696C100.15 227.83 100.292 227.996 100.4 228.194C100.51 228.392 100.565 228.629 100.565 228.906C100.565 229.254 100.475 229.563 100.295 229.833C100.117 230.103 99.858 230.316 99.5179 230.472C99.1797 230.628 98.7705 230.706 98.2903 230.706C97.8301 230.706 97.4319 230.633 97.0957 230.487C96.7595 230.341 96.4964 230.134 96.3063 229.866C96.1162 229.596 96.0112 229.276 95.9912 228.906H96.9216C96.9396 229.128 97.0117 229.313 97.1377 229.461C97.2658 229.607 97.4289 229.716 97.627 229.788C97.8271 229.858 98.0462 229.893 98.2843 229.893C98.5464 229.893 98.7795 229.852 98.9836 229.77C99.1897 229.686 99.3518 229.57 99.4699 229.422C99.5879 229.272 99.6469 229.097 99.6469 228.897C99.6469 228.714 99.5949 228.565 99.4909 228.449C99.3888 228.333 99.2497 228.237 99.0737 228.161C98.8996 228.085 98.7025 228.018 98.4824 227.96L97.756 227.762C97.2638 227.628 96.8736 227.431 96.5855 227.171C96.2993 226.911 96.1562 226.566 96.1562 226.138C96.1562 225.784 96.2523 225.475 96.4444 225.211C96.6365 224.947 96.8966 224.742 97.2248 224.595C97.5529 224.447 97.9231 224.373 98.3353 224.373C98.7515 224.373 99.1187 224.446 99.4368 224.592C99.757 224.739 100.009 224.94 100.193 225.196C100.377 225.45 100.473 225.742 100.481 226.072H99.5869ZM101.602 230.604V225.994H102.499V230.604H101.602ZM102.055 225.283C101.899 225.283 101.765 225.231 101.653 225.127C101.543 225.021 101.488 224.895 101.488 224.749C101.488 224.6 101.543 224.474 101.653 224.37C101.765 224.264 101.899 224.211 102.055 224.211C102.211 224.211 102.344 224.264 102.454 224.37C102.566 224.474 102.622 224.6 102.622 224.749C102.622 224.895 102.566 225.021 102.454 225.127C102.344 225.231 102.211 225.283 102.055 225.283ZM105.639 232.429C105.273 232.429 104.958 232.381 104.694 232.285C104.432 232.189 104.218 232.062 104.052 231.904C103.885 231.746 103.761 231.573 103.679 231.385L104.451 231.067C104.505 231.155 104.577 231.248 104.667 231.346C104.759 231.446 104.883 231.531 105.039 231.601C105.197 231.671 105.4 231.706 105.648 231.706C105.989 231.706 106.27 231.623 106.492 231.457C106.714 231.293 106.825 231.031 106.825 230.67V229.764H106.768C106.714 229.862 106.636 229.971 106.534 230.091C106.434 230.211 106.296 230.315 106.12 230.403C105.943 230.491 105.714 230.535 105.432 230.535C105.068 230.535 104.74 230.45 104.448 230.28C104.158 230.108 103.928 229.855 103.757 229.521C103.589 229.185 103.505 228.771 103.505 228.281C103.505 227.791 103.588 227.371 103.754 227.021C103.923 226.67 104.153 226.402 104.445 226.216C104.737 226.028 105.068 225.934 105.438 225.934C105.724 225.934 105.955 225.982 106.132 226.078C106.308 226.172 106.445 226.282 106.543 226.408C106.643 226.534 106.72 226.645 106.774 226.742H106.84V225.994H107.719V230.706C107.719 231.103 107.627 231.428 107.443 231.682C107.259 231.936 107.01 232.124 106.696 232.246C106.384 232.368 106.032 232.429 105.639 232.429ZM105.63 229.791C105.888 229.791 106.107 229.731 106.285 229.611C106.465 229.489 106.601 229.315 106.693 229.089C106.787 228.861 106.834 228.587 106.834 228.269C106.834 227.959 106.788 227.686 106.696 227.45C106.604 227.214 106.469 227.03 106.291 226.898C106.113 226.764 105.892 226.696 105.63 226.696C105.36 226.696 105.135 226.767 104.955 226.907C104.775 227.045 104.639 227.233 104.547 227.471C104.457 227.709 104.412 227.975 104.412 228.269C104.412 228.571 104.458 228.837 104.55 229.065C104.642 229.293 104.778 229.471 104.958 229.599C105.14 229.727 105.364 229.791 105.63 229.791ZM109.82 227.867V230.604H108.923V225.994H109.784V226.745H109.841C109.947 226.5 110.114 226.304 110.34 226.156C110.568 226.008 110.855 225.934 111.201 225.934C111.515 225.934 111.79 226 112.026 226.132C112.263 226.262 112.446 226.456 112.576 226.715C112.706 226.973 112.771 227.292 112.771 227.672V230.604H111.873V227.78C111.873 227.446 111.786 227.185 111.612 226.997C111.438 226.807 111.199 226.712 110.895 226.712C110.687 226.712 110.502 226.757 110.34 226.847C110.18 226.937 110.052 227.069 109.958 227.243C109.866 227.415 109.82 227.623 109.82 227.867ZM120.236 224.457H121.167V228.5C121.167 228.931 121.066 229.312 120.863 229.644C120.661 229.974 120.377 230.234 120.011 230.424C119.645 230.612 119.216 230.706 118.723 230.706C118.233 230.706 117.805 230.612 117.439 230.424C117.073 230.234 116.788 229.974 116.586 229.644C116.384 229.312 116.283 228.931 116.283 228.5V224.457H117.211V228.425C117.211 228.703 117.272 228.951 117.394 229.167C117.518 229.383 117.693 229.553 117.919 229.677C118.145 229.799 118.413 229.86 118.723 229.86C119.036 229.86 119.305 229.799 119.531 229.677C119.759 229.553 119.933 229.383 120.053 229.167C120.175 228.951 120.236 228.703 120.236 228.425V224.457ZM122.443 232.333V225.994H123.319V226.742H123.394C123.446 226.645 123.521 226.534 123.62 226.408C123.718 226.282 123.854 226.172 124.028 226.078C124.202 225.982 124.432 225.934 124.718 225.934C125.09 225.934 125.422 226.028 125.715 226.216C126.007 226.404 126.236 226.675 126.402 227.03C126.57 227.384 126.654 227.81 126.654 228.308C126.654 228.807 126.571 229.234 126.405 229.59C126.239 229.944 126.011 230.217 125.721 230.409C125.43 230.599 125.099 230.694 124.727 230.694C124.447 230.694 124.218 230.647 124.04 230.553C123.864 230.459 123.726 230.349 123.626 230.223C123.525 230.097 123.448 229.985 123.394 229.887H123.34V232.333H122.443ZM123.322 228.299C123.322 228.623 123.369 228.908 123.463 229.152C123.558 229.396 123.694 229.587 123.872 229.725C124.05 229.861 124.268 229.929 124.526 229.929C124.794 229.929 125.018 229.858 125.198 229.716C125.378 229.572 125.514 229.377 125.606 229.131C125.701 228.885 125.748 228.607 125.748 228.299C125.748 227.995 125.702 227.722 125.609 227.48C125.519 227.238 125.383 227.047 125.201 226.907C125.021 226.767 124.796 226.696 124.526 226.696C124.266 226.696 124.046 226.764 123.866 226.898C123.688 227.032 123.553 227.219 123.46 227.459C123.368 227.699 123.322 227.979 123.322 228.299Z" fill="white"/>
<rect x="71.26" y="361.12" width="80.3563" height="27.7346" rx="13.8673" fill="#333333"/>
<path d="M86.6033 377.988H84.6133V371.841H86.6663C87.2686 371.841 87.7858 371.964 88.2181 372.21C88.6503 372.454 88.9814 372.805 89.2115 373.264C89.4437 373.72 89.5597 374.267 89.5597 374.905C89.5597 375.546 89.4427 376.096 89.2085 376.556C88.9764 377.016 88.6403 377.37 88.2 377.619C87.7598 377.865 87.2276 377.988 86.6033 377.988ZM85.5408 377.177H86.5523C87.0205 377.177 87.4097 377.089 87.7198 376.913C88.03 376.735 88.2621 376.478 88.4162 376.142C88.5702 375.804 88.6473 375.392 88.6473 374.905C88.6473 374.423 88.5702 374.014 88.4162 373.678C88.2641 373.342 88.037 373.086 87.7348 372.912C87.4327 372.738 87.0575 372.651 86.6093 372.651H85.5408V377.177ZM92.6279 378.081C92.1737 378.081 91.7825 377.984 91.4544 377.79C91.1282 377.594 90.8761 377.318 90.698 376.964C90.5219 376.608 90.4339 376.191 90.4339 375.713C90.4339 375.24 90.5219 374.824 90.698 374.464C90.8761 374.104 91.1242 373.823 91.4424 373.621C91.7625 373.419 92.1367 373.318 92.5649 373.318C92.825 373.318 93.0772 373.361 93.3213 373.447C93.5654 373.533 93.7845 373.668 93.9786 373.852C94.1727 374.036 94.3258 374.275 94.4378 374.569C94.5499 374.861 94.6059 375.216 94.6059 375.635V375.953H90.9411V375.28H93.7265C93.7265 375.044 93.6784 374.835 93.5824 374.653C93.4864 374.469 93.3513 374.324 93.1772 374.218C93.0051 374.112 92.803 374.059 92.5709 374.059C92.3188 374.059 92.0987 374.121 91.9106 374.245C91.7245 374.367 91.5804 374.527 91.4784 374.725C91.3783 374.921 91.3283 375.134 91.3283 375.365V375.89C91.3283 376.198 91.3823 376.46 91.4904 376.676C91.6004 376.892 91.7535 377.057 91.9496 377.171C92.1457 377.283 92.3748 377.339 92.6369 377.339C92.807 377.339 92.9621 377.315 93.1022 377.267C93.2422 377.217 93.3633 377.143 93.4653 377.045C93.5674 376.947 93.6454 376.826 93.6995 376.682L94.5489 376.835C94.4808 377.085 94.3588 377.304 94.1827 377.493C94.0086 377.679 93.7895 377.824 93.5254 377.928C93.2632 378.03 92.9641 378.081 92.6279 378.081ZM96.4991 371.841V377.988H95.6016V371.841H96.4991ZM99.6934 378.081C99.2391 378.081 98.848 377.984 98.5198 377.79C98.1936 377.594 97.9415 377.318 97.7634 376.964C97.5873 376.608 97.4993 376.191 97.4993 375.713C97.4993 375.24 97.5873 374.824 97.7634 374.464C97.9415 374.104 98.1896 373.823 98.5078 373.621C98.8279 373.419 99.2021 373.318 99.6303 373.318C99.8905 373.318 100.143 373.361 100.387 373.447C100.631 373.533 100.85 373.668 101.044 373.852C101.238 374.036 101.391 374.275 101.503 374.569C101.615 374.861 101.671 375.216 101.671 375.635V375.953H98.0065V375.28H100.792C100.792 375.044 100.744 374.835 100.648 374.653C100.552 374.469 100.417 374.324 100.243 374.218C100.071 374.112 99.8684 374.059 99.6363 374.059C99.3842 374.059 99.1641 374.121 98.976 374.245C98.7899 374.367 98.6459 374.527 98.5438 374.725C98.4438 374.921 98.3937 375.134 98.3937 375.365V375.89C98.3937 376.198 98.4478 376.46 98.5558 376.676C98.6659 376.892 98.8189 377.057 99.015 377.171C99.2111 377.283 99.4402 377.339 99.7024 377.339C99.8724 377.339 100.028 377.315 100.168 377.267C100.308 377.217 100.429 377.143 100.531 377.045C100.633 376.947 100.711 376.826 100.765 376.682L101.614 376.835C101.546 377.085 101.424 377.304 101.248 377.493C101.074 377.679 100.855 377.824 100.591 377.928C100.329 378.03 100.03 378.081 99.6934 378.081ZM104.819 373.378V374.098H102.301V373.378H104.819ZM102.976 372.273H103.874V376.634C103.874 376.808 103.9 376.939 103.952 377.027C104.004 377.113 104.071 377.172 104.153 377.204C104.237 377.234 104.328 377.249 104.426 377.249C104.498 377.249 104.561 377.244 104.615 377.234C104.669 377.224 104.711 377.216 104.741 377.21L104.903 377.952C104.851 377.972 104.777 377.992 104.681 378.012C104.585 378.034 104.465 378.046 104.321 378.048C104.085 378.052 103.865 378.01 103.661 377.922C103.456 377.834 103.291 377.698 103.165 377.514C103.039 377.329 102.976 377.098 102.976 376.82V372.273ZM107.749 378.081C107.295 378.081 106.904 377.984 106.576 377.79C106.25 377.594 105.997 377.318 105.819 376.964C105.643 376.608 105.555 376.191 105.555 375.713C105.555 375.24 105.643 374.824 105.819 374.464C105.997 374.104 106.246 373.823 106.564 373.621C106.884 373.419 107.258 373.318 107.686 373.318C107.946 373.318 108.198 373.361 108.443 373.447C108.687 373.533 108.906 373.668 109.1 373.852C109.294 374.036 109.447 374.275 109.559 374.569C109.671 374.861 109.727 375.216 109.727 375.635V375.953H106.062V375.28H108.848C108.848 375.044 108.8 374.835 108.704 374.653C108.608 374.469 108.473 374.324 108.299 374.218C108.126 374.112 107.924 374.059 107.692 374.059C107.44 374.059 107.22 374.121 107.032 374.245C106.846 374.367 106.702 374.527 106.6 374.725C106.5 374.921 106.45 375.134 106.45 375.365V375.89C106.45 376.198 106.504 376.46 106.612 376.676C106.722 376.892 106.875 377.057 107.071 377.171C107.267 377.283 107.496 377.339 107.758 377.339C107.928 377.339 108.083 377.315 108.223 377.267C108.364 377.217 108.485 377.143 108.587 377.045C108.689 376.947 108.767 376.826 108.821 376.682L109.67 376.835C109.602 377.085 109.48 377.304 109.304 377.493C109.13 377.679 108.911 377.824 108.647 377.928C108.385 378.03 108.085 378.081 107.749 378.081ZM113.032 377.988V371.841H115.223C115.701 371.841 116.097 371.928 116.411 372.102C116.726 372.276 116.961 372.514 117.117 372.816C117.273 373.116 117.351 373.455 117.351 373.831C117.351 374.209 117.272 374.549 117.114 374.851C116.958 375.151 116.722 375.39 116.405 375.566C116.091 375.74 115.696 375.827 115.22 375.827H113.713V375.04H115.136C115.438 375.04 115.683 374.988 115.871 374.884C116.059 374.778 116.197 374.634 116.285 374.452C116.373 374.27 116.417 374.063 116.417 373.831C116.417 373.599 116.373 373.393 116.285 373.212C116.197 373.032 116.058 372.891 115.868 372.789C115.68 372.687 115.432 372.636 115.124 372.636H113.959V377.988H113.032ZM118.366 377.988V373.378H119.234V374.11H119.282C119.366 373.862 119.514 373.667 119.726 373.525C119.94 373.381 120.182 373.309 120.452 373.309C120.508 373.309 120.574 373.311 120.65 373.315C120.728 373.319 120.789 373.324 120.833 373.33V374.188C120.797 374.178 120.733 374.167 120.641 374.155C120.549 374.141 120.457 374.134 120.365 374.134C120.153 374.134 119.964 374.179 119.798 374.269C119.634 374.357 119.504 374.48 119.408 374.638C119.312 374.794 119.264 374.972 119.264 375.172V377.988H118.366ZM123.387 378.081C122.955 378.081 122.577 377.982 122.255 377.784C121.933 377.586 121.683 377.308 121.505 376.952C121.327 376.596 121.238 376.18 121.238 375.704C121.238 375.225 121.327 374.807 121.505 374.449C121.683 374.091 121.933 373.813 122.255 373.615C122.577 373.417 122.955 373.318 123.387 373.318C123.819 373.318 124.196 373.417 124.518 373.615C124.841 373.813 125.091 374.091 125.269 374.449C125.447 374.807 125.536 375.225 125.536 375.704C125.536 376.18 125.447 376.596 125.269 376.952C125.091 377.308 124.841 377.586 124.518 377.784C124.196 377.982 123.819 378.081 123.387 378.081ZM123.39 377.327C123.67 377.327 123.902 377.253 124.086 377.105C124.27 376.957 124.406 376.76 124.494 376.514C124.584 376.268 124.629 375.997 124.629 375.701C124.629 375.407 124.584 375.136 124.494 374.89C124.406 374.642 124.27 374.443 124.086 374.293C123.902 374.143 123.67 374.068 123.39 374.068C123.108 374.068 122.874 374.143 122.687 374.293C122.503 374.443 122.366 374.642 122.276 374.89C122.188 375.136 122.144 375.407 122.144 375.701C122.144 375.997 122.188 376.268 122.276 376.514C122.366 376.76 122.503 376.957 122.687 377.105C122.874 377.253 123.108 377.327 123.39 377.327ZM128.732 373.378V374.098H126.126V373.378H128.732ZM126.841 377.988V372.843C126.841 372.555 126.904 372.316 127.03 372.126C127.156 371.934 127.323 371.791 127.531 371.697C127.739 371.601 127.965 371.553 128.209 371.553C128.389 371.553 128.544 371.568 128.672 371.598C128.8 371.626 128.895 371.652 128.957 371.676L128.747 372.402C128.705 372.39 128.651 372.376 128.585 372.36C128.519 372.342 128.439 372.333 128.344 372.333C128.126 372.333 127.97 372.387 127.876 372.495C127.784 372.603 127.738 372.759 127.738 372.963V377.988H126.841ZM129.658 377.988V373.378H130.555V377.988H129.658ZM130.111 372.666C129.955 372.666 129.821 372.614 129.709 372.51C129.599 372.404 129.544 372.278 129.544 372.132C129.544 371.984 129.599 371.858 129.709 371.754C129.821 371.648 129.955 371.595 130.111 371.595C130.267 371.595 130.4 371.648 130.51 371.754C130.622 371.858 130.678 371.984 130.678 372.132C130.678 372.278 130.622 372.404 130.51 372.51C130.4 372.614 130.267 372.666 130.111 372.666ZM132.66 371.841V377.988H131.762V371.841H132.66ZM135.854 378.081C135.4 378.081 135.009 377.984 134.681 377.79C134.354 377.594 134.102 377.318 133.924 376.964C133.748 376.608 133.66 376.191 133.66 375.713C133.66 375.24 133.748 374.824 133.924 374.464C134.102 374.104 134.35 373.823 134.669 373.621C134.989 373.419 135.363 373.318 135.791 373.318C136.051 373.318 136.303 373.361 136.547 373.447C136.792 373.533 137.011 373.668 137.205 373.852C137.399 374.036 137.552 374.275 137.664 374.569C137.776 374.861 137.832 375.216 137.832 375.635V375.953H134.167V375.28H136.953C136.953 375.044 136.905 374.835 136.809 374.653C136.713 374.469 136.577 374.324 136.403 374.218C136.231 374.112 136.029 374.059 135.797 374.059C135.545 374.059 135.325 374.121 135.137 374.245C134.951 374.367 134.807 374.527 134.705 374.725C134.604 374.921 134.554 375.134 134.554 375.365V375.89C134.554 376.198 134.608 376.46 134.717 376.676C134.827 376.892 134.98 377.057 135.176 377.171C135.372 377.283 135.601 377.339 135.863 377.339C136.033 377.339 136.188 377.315 136.328 377.267C136.468 377.217 136.589 377.143 136.692 377.045C136.794 376.947 136.872 376.826 136.926 376.682L137.775 376.835C137.707 377.085 137.585 377.304 137.409 377.493C137.235 377.679 137.016 377.824 136.752 377.928C136.489 378.03 136.19 378.081 135.854 378.081Z" fill="white"/>
<g filter="url(#filter1_b_1_2596)">
<rect x="12.095" y="12.9999" width="198.096" height="428.943" fill="#252525" fill-opacity="0.5"/>
</g>
<rect x="20.5466" y="160.383" width="181.192" height="99.312" rx="21.1302" fill="white"/>
<path d="M105.565 284.621H104.628C104.592 284.421 104.525 284.245 104.427 284.093C104.329 283.941 104.209 283.812 104.067 283.706C103.925 283.6 103.766 283.52 103.59 283.466C103.416 283.412 103.231 283.385 103.035 283.385C102.68 283.385 102.363 283.474 102.083 283.652C101.805 283.83 101.585 284.091 101.423 284.435C101.263 284.779 101.183 285.199 101.183 285.696C101.183 286.196 101.263 286.618 101.423 286.962C101.585 287.306 101.806 287.567 102.086 287.743C102.366 287.919 102.681 288.007 103.032 288.007C103.226 288.007 103.41 287.981 103.584 287.929C103.76 287.875 103.919 287.796 104.061 287.692C104.203 287.588 104.323 287.461 104.421 287.31C104.521 287.158 104.59 286.984 104.628 286.788L105.565 286.791C105.515 287.093 105.418 287.371 105.274 287.626C105.132 287.878 104.948 288.096 104.724 288.28C104.502 288.462 104.248 288.603 103.962 288.703C103.676 288.803 103.364 288.853 103.026 288.853C102.493 288.853 102.019 288.727 101.603 288.475C101.187 288.221 100.858 287.858 100.618 287.385C100.38 286.913 100.261 286.35 100.261 285.696C100.261 285.039 100.381 284.476 100.621 284.006C100.861 283.534 101.19 283.171 101.606 282.919C102.022 282.665 102.495 282.538 103.026 282.538C103.352 282.538 103.656 282.585 103.938 282.679C104.222 282.771 104.477 282.907 104.703 283.087C104.929 283.266 105.117 283.484 105.265 283.742C105.413 283.998 105.513 284.291 105.565 284.621ZM107.5 282.622V288.769H106.602V282.622H107.5ZM110.649 288.862C110.217 288.862 109.84 288.763 109.518 288.565C109.195 288.367 108.945 288.09 108.767 287.734C108.589 287.377 108.5 286.961 108.5 286.485C108.5 286.007 108.589 285.589 108.767 285.23C108.945 284.872 109.195 284.594 109.518 284.396C109.84 284.198 110.217 284.099 110.649 284.099C111.081 284.099 111.459 284.198 111.781 284.396C112.103 284.594 112.353 284.872 112.531 285.23C112.709 285.589 112.798 286.007 112.798 286.485C112.798 286.961 112.709 287.377 112.531 287.734C112.353 288.09 112.103 288.367 111.781 288.565C111.459 288.763 111.081 288.862 110.649 288.862ZM110.652 288.109C110.932 288.109 111.164 288.035 111.349 287.887C111.533 287.739 111.669 287.542 111.757 287.295C111.847 287.049 111.892 286.778 111.892 286.482C111.892 286.188 111.847 285.918 111.757 285.672C111.669 285.424 111.533 285.224 111.349 285.074C111.164 284.924 110.932 284.849 110.652 284.849C110.37 284.849 110.136 284.924 109.95 285.074C109.766 285.224 109.629 285.424 109.539 285.672C109.451 285.918 109.407 286.188 109.407 286.482C109.407 286.778 109.451 287.049 109.539 287.295C109.629 287.542 109.766 287.739 109.95 287.887C110.136 288.035 110.37 288.109 110.652 288.109ZM117.255 285.284L116.441 285.429C116.407 285.324 116.353 285.225 116.279 285.131C116.207 285.037 116.109 284.96 115.985 284.9C115.861 284.84 115.706 284.81 115.52 284.81C115.266 284.81 115.054 284.867 114.883 284.981C114.713 285.093 114.628 285.238 114.628 285.417C114.628 285.571 114.685 285.695 114.799 285.789C114.914 285.883 115.098 285.96 115.352 286.02L116.084 286.188C116.508 286.286 116.824 286.437 117.033 286.641C117.241 286.845 117.345 287.11 117.345 287.437C117.345 287.713 117.265 287.959 117.105 288.175C116.946 288.389 116.725 288.557 116.441 288.679C116.159 288.801 115.832 288.862 115.46 288.862C114.944 288.862 114.522 288.752 114.196 288.532C113.87 288.31 113.67 287.995 113.596 287.587L114.463 287.455C114.517 287.681 114.628 287.852 114.796 287.968C114.965 288.082 115.184 288.139 115.454 288.139C115.748 288.139 115.983 288.078 116.159 287.956C116.335 287.832 116.423 287.681 116.423 287.503C116.423 287.358 116.369 287.237 116.261 287.139C116.155 287.041 115.992 286.967 115.772 286.917L114.992 286.746C114.561 286.648 114.243 286.492 114.037 286.278C113.833 286.064 113.731 285.793 113.731 285.465C113.731 285.192 113.807 284.954 113.959 284.75C114.111 284.546 114.321 284.387 114.589 284.273C114.857 284.157 115.165 284.099 115.511 284.099C116.009 284.099 116.401 284.207 116.687 284.423C116.974 284.637 117.163 284.924 117.255 285.284ZM120.318 288.862C119.864 288.862 119.473 288.765 119.145 288.571C118.819 288.375 118.567 288.1 118.388 287.746C118.212 287.389 118.124 286.972 118.124 286.494C118.124 286.022 118.212 285.606 118.388 285.245C118.567 284.885 118.815 284.604 119.133 284.402C119.453 284.2 119.827 284.099 120.255 284.099C120.515 284.099 120.768 284.142 121.012 284.228C121.256 284.314 121.475 284.449 121.669 284.633C121.863 284.817 122.016 285.056 122.128 285.351C122.24 285.643 122.296 285.998 122.296 286.416V286.734H118.632V286.062H121.417C121.417 285.826 121.369 285.617 121.273 285.435C121.177 285.25 121.042 285.105 120.868 284.999C120.696 284.893 120.493 284.84 120.261 284.84C120.009 284.84 119.789 284.902 119.601 285.026C119.415 285.148 119.271 285.308 119.169 285.507C119.069 285.703 119.019 285.916 119.019 286.146V286.671C119.019 286.979 119.073 287.241 119.181 287.458C119.291 287.674 119.444 287.839 119.64 287.953C119.836 288.065 120.065 288.121 120.327 288.121C120.497 288.121 120.653 288.097 120.793 288.049C120.933 287.999 121.054 287.925 121.156 287.827C121.258 287.729 121.336 287.608 121.39 287.464L122.239 287.617C122.171 287.867 122.049 288.086 121.873 288.274C121.699 288.46 121.48 288.605 121.216 288.709C120.954 288.811 120.655 288.862 120.318 288.862Z" fill="white"/>
<path d="M123.027 291.391H99.7839" stroke="white" stroke-width="0.528256" stroke-linecap="round"/>
<rect x="89.2195" y="245.961" width="44.3563" height="27.7346" rx="13.8673" fill="#4FA4FB"/>
<path d="M107.55 256.681V262.828H106.698L103.574 258.32H103.517V262.828H102.589V256.681H103.447L106.575 261.195H106.632V256.681H107.55ZM110.818 262.921C110.364 262.921 109.973 262.824 109.645 262.63C109.319 262.434 109.066 262.159 108.888 261.805C108.712 261.448 108.624 261.031 108.624 260.553C108.624 260.081 108.712 259.665 108.888 259.304C109.066 258.944 109.315 258.663 109.633 258.461C109.953 258.259 110.327 258.158 110.755 258.158C111.015 258.158 111.268 258.201 111.512 258.287C111.756 258.373 111.975 258.508 112.169 258.692C112.363 258.876 112.516 259.115 112.628 259.409C112.74 259.702 112.796 260.057 112.796 260.475V260.793H109.131V260.121H111.917C111.917 259.885 111.869 259.676 111.773 259.494C111.677 259.309 111.542 259.164 111.368 259.058C111.195 258.952 110.993 258.899 110.761 258.899C110.509 258.899 110.289 258.961 110.101 259.085C109.915 259.207 109.771 259.367 109.669 259.566C109.569 259.762 109.519 259.975 109.519 260.205V260.73C109.519 261.038 109.573 261.3 109.681 261.516C109.791 261.733 109.944 261.898 110.14 262.012C110.336 262.124 110.565 262.18 110.827 262.18C110.997 262.18 111.152 262.156 111.293 262.108C111.433 262.058 111.554 261.984 111.656 261.886C111.758 261.788 111.836 261.667 111.89 261.522L112.739 261.676C112.671 261.926 112.549 262.145 112.373 262.333C112.199 262.519 111.98 262.664 111.716 262.768C111.454 262.87 111.154 262.921 110.818 262.921ZM114.393 258.218L115.411 260.013L116.437 258.218H117.418L115.981 260.523L117.431 262.828H116.449L115.411 261.105L114.375 262.828H113.391L114.825 260.523L113.409 258.218H114.393ZM120.492 258.218V258.938H117.974V258.218H120.492ZM118.649 257.113H119.547V261.474C119.547 261.649 119.573 261.78 119.625 261.868C119.677 261.954 119.744 262.013 119.826 262.045C119.91 262.075 120.001 262.09 120.099 262.09C120.171 262.09 120.234 262.085 120.288 262.075C120.342 262.065 120.384 262.057 120.414 262.051L120.576 262.792C120.524 262.812 120.45 262.832 120.354 262.852C120.258 262.874 120.138 262.886 119.994 262.888C119.758 262.892 119.538 262.85 119.333 262.762C119.129 262.674 118.964 262.538 118.838 262.354C118.712 262.17 118.649 261.939 118.649 261.661V257.113Z" fill="white"/>
<path d="M62.8371 195.381V190.771H64.3948C64.7565 190.771 65.0522 190.836 65.2818 190.967C65.5129 191.096 65.684 191.27 65.795 191.491C65.9061 191.712 65.9616 191.958 65.9616 192.229C65.9616 192.501 65.9061 192.748 65.795 192.97C65.6855 193.192 65.5159 193.369 65.2863 193.501C65.0567 193.632 64.7625 193.697 64.4038 193.697H63.2873V193.202H64.3858C64.6334 193.202 64.8323 193.159 64.9824 193.074C65.1324 192.988 65.2412 192.873 65.3088 192.727C65.3778 192.58 65.4123 192.414 65.4123 192.229C65.4123 192.045 65.3778 191.88 65.3088 191.734C65.2412 191.589 65.1317 191.475 64.9801 191.392C64.8285 191.308 64.6274 191.266 64.3768 191.266H63.3953V195.381H62.8371ZM67.3201 190.771V195.381H66.7889V190.771H67.3201ZM69.7429 195.453C69.4097 195.453 69.1223 195.379 68.8807 195.232C68.6406 195.084 68.4552 194.877 68.3247 194.611C68.1956 194.344 68.1311 194.033 68.1311 193.679C68.1311 193.325 68.1956 193.013 68.3247 192.743C68.4552 192.471 68.6368 192.259 68.8694 192.108C69.1035 191.955 69.3767 191.878 69.6888 191.878C69.8689 191.878 70.0468 191.908 70.2223 191.968C70.3979 192.028 70.5578 192.126 70.7018 192.261C70.8459 192.395 70.9607 192.572 71.0462 192.792C71.1318 193.013 71.1745 193.284 71.1745 193.607V193.832H68.5093V193.373H70.6343C70.6343 193.178 70.5953 193.004 70.5172 192.851C70.4407 192.698 70.3311 192.577 70.1886 192.488C70.0475 192.4 69.8809 192.356 69.6888 192.356C69.4772 192.356 69.2941 192.408 69.1396 192.513C68.9865 192.617 68.8687 192.752 68.7861 192.918C68.7036 193.085 68.6623 193.263 68.6623 193.454V193.76C68.6623 194.021 68.7074 194.243 68.7974 194.424C68.8889 194.604 69.0158 194.742 69.1778 194.836C69.3399 194.929 69.5283 194.976 69.7429 194.976C69.8824 194.976 70.0085 194.956 70.121 194.917C70.2351 194.877 70.3334 194.817 70.4159 194.737C70.4985 194.656 70.5623 194.556 70.6073 194.436L71.1205 194.58C71.0665 194.754 70.9757 194.907 70.8481 195.039C70.7206 195.169 70.563 195.271 70.3754 195.345C70.1878 195.417 69.977 195.453 69.7429 195.453ZM73.0002 195.462C72.7811 195.462 72.5822 195.421 72.4036 195.338C72.2251 195.254 72.0832 195.133 71.9782 194.976C71.8731 194.817 71.8206 194.625 71.8206 194.4C71.8206 194.201 71.8596 194.041 71.9377 193.918C72.0157 193.793 72.12 193.696 72.2506 193.625C72.3811 193.555 72.5252 193.502 72.6828 193.468C72.8419 193.432 73.0017 193.403 73.1623 193.382C73.3724 193.355 73.5427 193.335 73.6733 193.321C73.8053 193.306 73.9014 193.281 73.9614 193.247C74.0229 193.212 74.0537 193.152 74.0537 193.067V193.049C74.0537 192.827 73.9929 192.654 73.8714 192.531C73.7513 192.408 73.569 192.347 73.3243 192.347C73.0707 192.347 72.8719 192.402 72.7278 192.513C72.5837 192.624 72.4824 192.743 72.4239 192.869L71.9197 192.689C72.0097 192.479 72.1298 192.315 72.2798 192.198C72.4314 192.079 72.5965 191.997 72.7751 191.95C72.9552 191.902 73.1322 191.878 73.3063 191.878C73.4174 191.878 73.5449 191.892 73.689 191.919C73.8346 191.944 73.9749 191.998 74.11 192.079C74.2465 192.16 74.3598 192.282 74.4499 192.446C74.5399 192.609 74.5849 192.828 74.5849 193.103V195.381H74.0537V194.913H74.0267C73.9907 194.988 73.9306 195.068 73.8466 195.154C73.7626 195.239 73.6507 195.312 73.5112 195.372C73.3716 195.432 73.2013 195.462 73.0002 195.462ZM73.0812 194.985C73.2913 194.985 73.4684 194.944 73.6125 194.861C73.758 194.778 73.8676 194.672 73.9411 194.541C74.0162 194.411 74.0537 194.273 74.0537 194.129V193.643C74.0312 193.67 73.9817 193.695 73.9051 193.717C73.8301 193.738 73.743 193.757 73.644 193.774C73.5464 193.789 73.4511 193.802 73.3581 193.814C73.2666 193.825 73.1923 193.834 73.1352 193.841C72.9972 193.859 72.8681 193.889 72.7481 193.929C72.6295 193.968 72.5335 194.027 72.4599 194.107C72.3879 194.185 72.3519 194.291 72.3519 194.427C72.3519 194.611 72.4202 194.751 72.5567 194.845C72.6948 194.938 72.8696 194.985 73.0812 194.985ZM78.0038 192.698L77.5266 192.833C77.4965 192.753 77.4523 192.676 77.3937 192.601C77.3367 192.524 77.2587 192.461 77.1596 192.412C77.0606 192.362 76.9338 192.338 76.7792 192.338C76.5676 192.338 76.3913 192.386 76.2502 192.484C76.1106 192.58 76.0408 192.702 76.0408 192.851C76.0408 192.983 76.0889 193.087 76.1849 193.164C76.281 193.24 76.431 193.304 76.6351 193.355L77.1484 193.481C77.4575 193.556 77.6879 193.671 77.8395 193.825C77.991 193.979 78.0668 194.176 78.0668 194.418C78.0668 194.616 78.0098 194.793 77.8957 194.949C77.7832 195.105 77.6256 195.228 77.423 195.318C77.2204 195.408 76.9848 195.453 76.7162 195.453C76.3635 195.453 76.0716 195.376 75.8405 195.223C75.6094 195.07 75.4631 194.847 75.4015 194.553L75.9058 194.427C75.9538 194.613 76.0446 194.752 76.1782 194.845C76.3132 194.938 76.4896 194.985 76.7072 194.985C76.9548 194.985 77.1514 194.932 77.2969 194.827C77.444 194.721 77.5176 194.593 77.5176 194.445C77.5176 194.324 77.4755 194.224 77.3915 194.143C77.3075 194.06 77.1784 193.999 77.0043 193.958L76.428 193.823C76.1114 193.748 75.8788 193.632 75.7302 193.474C75.5831 193.315 75.5096 193.116 75.5096 192.878C75.5096 192.683 75.5644 192.51 75.6739 192.36C75.785 192.21 75.9358 192.092 76.1264 192.007C76.3185 191.921 76.5361 191.878 76.7792 191.878C77.1214 191.878 77.39 191.953 77.5851 192.103C77.7817 192.253 77.9212 192.452 78.0038 192.698ZM80.3162 195.453C79.9831 195.453 79.6957 195.379 79.4541 195.232C79.2139 195.084 79.0286 194.877 78.898 194.611C78.769 194.344 78.7044 194.033 78.7044 193.679C78.7044 193.325 78.769 193.013 78.898 192.743C79.0286 192.471 79.2102 192.259 79.4428 192.108C79.6769 191.955 79.95 191.878 80.2622 191.878C80.4423 191.878 80.6201 191.908 80.7957 191.968C80.9713 192.028 81.1311 192.126 81.2752 192.261C81.4193 192.395 81.5341 192.572 81.6196 192.792C81.7051 193.013 81.7479 193.284 81.7479 193.607V193.832H79.0826V193.373H81.2077C81.2077 193.178 81.1686 193.004 81.0906 192.851C81.0141 192.698 80.9045 192.577 80.7619 192.488C80.6209 192.4 80.4543 192.356 80.2622 192.356C80.0506 192.356 79.8675 192.408 79.7129 192.513C79.5599 192.617 79.442 192.752 79.3595 192.918C79.277 193.085 79.2357 193.263 79.2357 193.454V193.76C79.2357 194.021 79.2807 194.243 79.3708 194.424C79.4623 194.604 79.5891 194.742 79.7512 194.836C79.9133 194.929 80.1016 194.976 80.3162 194.976C80.4558 194.976 80.5818 194.956 80.6944 194.917C80.8085 194.877 80.9068 194.817 80.9893 194.737C81.0718 194.656 81.1356 194.556 81.1806 194.436L81.6939 194.58C81.6399 194.754 81.5491 194.907 81.4215 195.039C81.2939 195.169 81.1364 195.271 80.9488 195.345C80.7612 195.417 80.5503 195.453 80.3162 195.453ZM85.7886 195.453C85.4555 195.453 85.1681 195.379 84.9264 195.232C84.6863 195.084 84.501 194.877 84.3704 194.611C84.2414 194.344 84.1768 194.033 84.1768 193.679C84.1768 193.325 84.2414 193.013 84.3704 192.743C84.501 192.471 84.6826 192.259 84.9152 192.108C85.1493 191.955 85.4224 191.878 85.7346 191.878C85.9147 191.878 86.0925 191.908 86.2681 191.968C86.4437 192.028 86.6035 192.126 86.7476 192.261C86.8917 192.395 87.0065 192.572 87.092 192.792C87.1775 193.013 87.2203 193.284 87.2203 193.607V193.832H84.555V193.373H86.68C86.68 193.178 86.641 193.004 86.563 192.851C86.4865 192.698 86.3769 192.577 86.2343 192.488C86.0933 192.4 85.9267 192.356 85.7346 192.356C85.523 192.356 85.3399 192.408 85.1853 192.513C85.0323 192.617 84.9144 192.752 84.8319 192.918C84.7494 193.085 84.7081 193.263 84.7081 193.454V193.76C84.7081 194.021 84.7531 194.243 84.8432 194.424C84.9347 194.604 85.0615 194.742 85.2236 194.836C85.3857 194.929 85.574 194.976 85.7886 194.976C85.9282 194.976 86.0542 194.956 86.1668 194.917C86.2809 194.877 86.3792 194.817 86.4617 194.737C86.5442 194.656 86.608 194.556 86.653 194.436L87.1663 194.58C87.1123 194.754 87.0215 194.907 86.8939 195.039C86.7663 195.169 86.6088 195.271 86.4212 195.345C86.2336 195.417 86.0227 195.453 85.7886 195.453ZM88.5597 193.301V195.381H88.0285V191.923H88.5417V192.464H88.5867C88.6678 192.288 88.7908 192.147 88.9559 192.04C89.121 191.932 89.3341 191.878 89.5952 191.878C89.8293 191.878 90.0342 191.926 90.2098 192.022C90.3853 192.117 90.5219 192.261 90.6195 192.455C90.717 192.647 90.7658 192.89 90.7658 193.184V195.381H90.2345V193.22C90.2345 192.948 90.164 192.737 90.0229 192.585C89.8818 192.432 89.6883 192.356 89.4421 192.356C89.2726 192.356 89.121 192.392 88.9874 192.466C88.8554 192.539 88.7511 192.647 88.6745 192.788C88.598 192.929 88.5597 193.1 88.5597 193.301ZM93.2403 191.923V192.374H91.4484V191.923H93.2403ZM91.9707 191.095H92.5019V194.391C92.5019 194.541 92.5237 194.653 92.5672 194.728C92.6122 194.802 92.6693 194.851 92.7383 194.877C92.8088 194.901 92.8831 194.913 92.9611 194.913C93.0197 194.913 93.0677 194.91 93.1052 194.904C93.1427 194.896 93.1728 194.89 93.1953 194.886L93.3033 195.363C93.2673 195.376 93.217 195.39 93.1525 195.403C93.088 195.418 93.0062 195.426 92.9071 195.426C92.757 195.426 92.61 195.394 92.4659 195.329C92.3233 195.265 92.2048 195.166 92.1102 195.034C92.0172 194.902 91.9707 194.736 91.9707 194.535V191.095ZM95.452 195.453C95.1188 195.453 94.8314 195.379 94.5898 195.232C94.3497 195.084 94.1644 194.877 94.0338 194.611C93.9047 194.344 93.8402 194.033 93.8402 193.679C93.8402 193.325 93.9047 193.013 94.0338 192.743C94.1644 192.471 94.3459 192.259 94.5786 192.108C94.8127 191.955 95.0858 191.878 95.398 191.878C95.578 191.878 95.7559 191.908 95.9315 191.968C96.107 192.028 96.2669 192.126 96.4109 192.261C96.555 192.395 96.6698 192.572 96.7554 192.792C96.8409 193.013 96.8837 193.284 96.8837 193.607V193.832H94.2184V193.373H96.3434C96.3434 193.178 96.3044 193.004 96.2264 192.851C96.1498 192.698 96.0403 192.577 95.8977 192.488C95.7566 192.4 95.59 192.356 95.398 192.356C95.1864 192.356 95.0033 192.408 94.8487 192.513C94.6956 192.617 94.5778 192.752 94.4953 192.918C94.4127 193.085 94.3715 193.263 94.3715 193.454V193.76C94.3715 194.021 94.4165 194.243 94.5065 194.424C94.5981 194.604 94.7249 194.742 94.887 194.836C95.049 194.929 95.2374 194.976 95.452 194.976C95.5915 194.976 95.7176 194.956 95.8302 194.917C95.9442 194.877 96.0425 194.817 96.1251 194.737C96.2076 194.656 96.2714 194.556 96.3164 194.436L96.8296 194.58C96.7756 194.754 96.6848 194.907 96.5573 195.039C96.4297 195.169 96.2721 195.271 96.0845 195.345C95.8969 195.417 95.6861 195.453 95.452 195.453ZM97.6918 195.381V191.923H98.2051V192.446H98.2411C98.3041 192.274 98.4182 192.136 98.5832 192.029C98.7483 191.923 98.9344 191.869 99.1415 191.869C99.1805 191.869 99.2293 191.87 99.2878 191.872C99.3464 191.873 99.3906 191.875 99.4206 191.878V192.419C99.4026 192.414 99.3614 192.407 99.2968 192.398C99.2338 192.388 99.167 192.383 99.0965 192.383C98.9284 192.383 98.7783 192.418 98.6463 192.488C98.5157 192.557 98.4122 192.653 98.3356 192.776C98.2606 192.898 98.2231 193.037 98.2231 193.193V195.381H97.6918ZM102.175 196.678C102.085 196.678 102.005 196.67 101.935 196.655C101.864 196.642 101.815 196.628 101.788 196.615L101.923 196.146C102.052 196.179 102.166 196.191 102.265 196.182C102.365 196.173 102.452 196.129 102.529 196.05C102.607 195.972 102.678 195.845 102.743 195.669L102.842 195.399L101.563 191.923H102.139L103.094 194.679H103.13L104.084 191.923H104.661L103.193 195.885C103.127 196.064 103.045 196.212 102.948 196.329C102.85 196.447 102.737 196.535 102.608 196.592C102.48 196.649 102.336 196.678 102.175 196.678ZM106.643 195.453C106.331 195.453 106.057 195.379 105.821 195.23C105.587 195.082 105.404 194.874 105.272 194.607C105.141 194.339 105.076 194.027 105.076 193.67C105.076 193.31 105.141 192.996 105.272 192.727C105.404 192.458 105.587 192.25 105.821 192.101C106.057 191.953 106.331 191.878 106.643 191.878C106.955 191.878 107.228 191.953 107.462 192.101C107.698 192.25 107.881 192.458 108.011 192.727C108.143 192.996 108.209 193.31 108.209 193.67C108.209 194.027 108.143 194.339 108.011 194.607C107.881 194.874 107.698 195.082 107.462 195.23C107.228 195.379 106.955 195.453 106.643 195.453ZM106.643 194.976C106.88 194.976 107.075 194.915 107.228 194.793C107.381 194.672 107.494 194.512 107.568 194.314C107.641 194.116 107.678 193.901 107.678 193.67C107.678 193.439 107.641 193.224 107.568 193.024C107.494 192.824 107.381 192.663 107.228 192.54C107.075 192.417 106.88 192.356 106.643 192.356C106.406 192.356 106.21 192.417 106.057 192.54C105.904 192.663 105.791 192.824 105.718 193.024C105.644 193.224 105.607 193.439 105.607 193.67C105.607 193.901 105.644 194.116 105.718 194.314C105.791 194.512 105.904 194.672 106.057 194.793C106.21 194.915 106.406 194.976 106.643 194.976ZM111.199 193.967V191.923H111.731V195.381H111.199V194.796H111.163C111.082 194.971 110.956 195.121 110.785 195.244C110.614 195.365 110.398 195.426 110.137 195.426C109.921 195.426 109.729 195.379 109.561 195.284C109.393 195.188 109.261 195.044 109.164 194.852C109.068 194.658 109.02 194.415 109.02 194.12V191.923H109.552V194.084C109.552 194.336 109.622 194.538 109.763 194.688C109.906 194.838 110.087 194.913 110.308 194.913C110.44 194.913 110.574 194.879 110.711 194.811C110.849 194.744 110.965 194.64 111.058 194.501C111.152 194.361 111.199 194.183 111.199 193.967ZM112.704 195.381V191.923H113.217V192.446H113.253C113.316 192.274 113.43 192.136 113.595 192.029C113.76 191.923 113.946 191.869 114.153 191.869C114.192 191.869 114.241 191.87 114.3 191.872C114.358 191.873 114.403 191.875 114.433 191.878V192.419C114.415 192.414 114.373 192.407 114.309 192.398C114.246 192.388 114.179 192.383 114.108 192.383C113.94 192.383 113.79 192.418 113.658 192.488C113.528 192.557 113.424 192.653 113.348 192.776C113.273 192.898 113.235 193.037 113.235 193.193V195.381H112.704ZM116.917 195.381V190.771H118.475C118.837 190.771 119.132 190.836 119.362 190.967C119.593 191.096 119.764 191.27 119.875 191.491C119.986 191.712 120.042 191.958 120.042 192.229C120.042 192.501 119.986 192.748 119.875 192.97C119.766 193.192 119.596 193.369 119.366 193.501C119.137 193.632 118.843 193.697 118.484 193.697H117.367V193.202H118.466C118.714 193.202 118.912 193.159 119.063 193.074C119.213 192.988 119.321 192.873 119.389 192.727C119.458 192.58 119.492 192.414 119.492 192.229C119.492 192.045 119.458 191.88 119.389 191.734C119.321 191.589 119.212 191.475 119.06 191.392C118.909 191.308 118.708 191.266 118.457 191.266H117.476V195.381H116.917ZM121.4 193.301V195.381H120.869V190.771H121.4V192.464H121.445C121.526 192.285 121.648 192.143 121.81 192.038C121.974 191.932 122.191 191.878 122.463 191.878C122.698 191.878 122.905 191.926 123.082 192.02C123.259 192.113 123.396 192.256 123.494 192.45C123.593 192.642 123.642 192.887 123.642 193.184V195.381H123.111V193.22C123.111 192.945 123.04 192.733 122.897 192.583C122.756 192.431 122.56 192.356 122.31 192.356C122.136 192.356 121.98 192.392 121.841 192.466C121.705 192.539 121.597 192.647 121.517 192.788C121.439 192.929 121.4 193.1 121.4 193.301ZM126.019 195.453C125.707 195.453 125.433 195.379 125.197 195.23C124.963 195.082 124.78 194.874 124.648 194.607C124.517 194.339 124.452 194.027 124.452 193.67C124.452 193.31 124.517 192.996 124.648 192.727C124.78 192.458 124.963 192.25 125.197 192.101C125.433 191.953 125.707 191.878 126.019 191.878C126.331 191.878 126.604 191.953 126.838 192.101C127.074 192.25 127.257 192.458 127.388 192.727C127.52 192.996 127.586 193.31 127.586 193.67C127.586 194.027 127.52 194.339 127.388 194.607C127.257 194.874 127.074 195.082 126.838 195.23C126.604 195.379 126.331 195.453 126.019 195.453ZM126.019 194.976C126.256 194.976 126.451 194.915 126.604 194.793C126.757 194.672 126.871 194.512 126.944 194.314C127.018 194.116 127.054 193.901 127.054 193.67C127.054 193.439 127.018 193.224 126.944 193.024C126.871 192.824 126.757 192.663 126.604 192.54C126.451 192.417 126.256 192.356 126.019 192.356C125.782 192.356 125.587 192.417 125.434 192.54C125.281 192.663 125.167 192.824 125.094 193.024C125.02 193.224 124.983 193.439 124.983 193.67C124.983 193.901 125.02 194.116 125.094 194.314C125.167 194.512 125.281 194.672 125.434 194.793C125.587 194.915 125.782 194.976 126.019 194.976ZM128.928 193.301V195.381H128.397V191.923H128.91V192.464H128.955C129.036 192.288 129.159 192.147 129.324 192.04C129.489 191.932 129.702 191.878 129.963 191.878C130.198 191.878 130.402 191.926 130.578 192.022C130.754 192.117 130.89 192.261 130.988 192.455C131.085 192.647 131.134 192.89 131.134 193.184V195.381H130.603V193.22C130.603 192.948 130.532 192.737 130.391 192.585C130.25 192.432 130.056 192.356 129.81 192.356C129.641 192.356 129.489 192.392 129.356 192.466C129.224 192.539 129.119 192.647 129.043 192.788C128.966 192.929 128.928 193.1 128.928 193.301ZM133.554 195.453C133.221 195.453 132.934 195.379 132.692 195.232C132.452 195.084 132.267 194.877 132.136 194.611C132.007 194.344 131.943 194.033 131.943 193.679C131.943 193.325 132.007 193.013 132.136 192.743C132.267 192.471 132.448 192.259 132.681 192.108C132.915 191.955 133.188 191.878 133.5 191.878C133.681 191.878 133.858 191.908 134.034 191.968C134.21 192.028 134.369 192.126 134.513 192.261C134.658 192.395 134.772 192.572 134.858 192.792C134.943 193.013 134.986 193.284 134.986 193.607V193.832H132.321V193.373H134.446C134.446 193.178 134.407 193.004 134.329 192.851C134.252 192.698 134.143 192.577 134 192.488C133.859 192.4 133.693 192.356 133.5 192.356C133.289 192.356 133.106 192.408 132.951 192.513C132.798 192.617 132.68 192.752 132.598 192.918C132.515 193.085 132.474 193.263 132.474 193.454V193.76C132.474 194.021 132.519 194.243 132.609 194.424C132.701 194.604 132.827 194.742 132.989 194.836C133.152 194.929 133.34 194.976 133.554 194.976C133.694 194.976 133.82 194.956 133.933 194.917C134.047 194.877 134.145 194.817 134.228 194.737C134.31 194.656 134.374 194.556 134.419 194.436L134.932 194.58C134.878 194.754 134.787 194.907 134.66 195.039C134.532 195.169 134.375 195.271 134.187 195.345C133.999 195.417 133.789 195.453 133.554 195.453ZM138.108 193.301V195.381H137.577V191.923H138.09V192.464H138.135C138.216 192.288 138.34 192.147 138.505 192.04C138.67 191.932 138.883 191.878 139.144 191.878C139.378 191.878 139.583 191.926 139.758 192.022C139.934 192.117 140.071 192.261 140.168 192.455C140.266 192.647 140.314 192.89 140.314 193.184V195.381H139.783V193.22C139.783 192.948 139.713 192.737 139.572 192.585C139.431 192.432 139.237 192.356 138.991 192.356C138.821 192.356 138.67 192.392 138.536 192.466C138.404 192.539 138.3 192.647 138.223 192.788C138.147 192.929 138.108 193.1 138.108 193.301ZM143.464 193.967V191.923H143.996V195.381H143.464V194.796H143.428C143.347 194.971 143.221 195.121 143.05 195.244C142.879 195.365 142.663 195.426 142.402 195.426C142.186 195.426 141.994 195.379 141.826 195.284C141.657 195.188 141.525 195.044 141.429 194.852C141.333 194.658 141.285 194.415 141.285 194.12V191.923H141.817V194.084C141.817 194.336 141.887 194.538 142.028 194.688C142.171 194.838 142.352 194.913 142.573 194.913C142.705 194.913 142.839 194.879 142.976 194.811C143.114 194.744 143.229 194.64 143.323 194.501C143.417 194.361 143.464 194.183 143.464 193.967ZM144.969 195.381V191.923H145.482V192.464H145.527C145.599 192.279 145.715 192.136 145.876 192.034C146.036 191.93 146.229 191.878 146.454 191.878C146.682 191.878 146.872 191.93 147.024 192.034C147.177 192.136 147.296 192.279 147.382 192.464H147.418C147.506 192.285 147.639 192.143 147.816 192.038C147.993 191.932 148.206 191.878 148.453 191.878C148.762 191.878 149.015 191.975 149.212 192.169C149.409 192.361 149.507 192.66 149.507 193.067V195.381H148.976V193.067C148.976 192.812 148.906 192.629 148.766 192.52C148.627 192.41 148.462 192.356 148.273 192.356C148.03 192.356 147.842 192.429 147.708 192.576C147.575 192.722 147.508 192.906 147.508 193.13V195.381H146.968V193.013C146.968 192.816 146.904 192.658 146.776 192.538C146.649 192.416 146.484 192.356 146.283 192.356C146.145 192.356 146.016 192.392 145.896 192.466C145.778 192.539 145.681 192.641 145.608 192.772C145.536 192.901 145.5 193.05 145.5 193.22V195.381H144.969ZM150.55 195.381V190.771H151.081V192.473H151.126C151.165 192.413 151.22 192.336 151.289 192.243C151.359 192.148 151.46 192.064 151.59 191.991C151.722 191.916 151.901 191.878 152.126 191.878C152.417 191.878 152.674 191.951 152.896 192.097C153.118 192.242 153.291 192.449 153.416 192.716C153.54 192.983 153.603 193.298 153.603 193.661C153.603 194.027 153.54 194.345 153.416 194.613C153.291 194.88 153.119 195.088 152.898 195.235C152.677 195.38 152.423 195.453 152.135 195.453C151.913 195.453 151.735 195.416 151.601 195.343C151.468 195.268 151.365 195.183 151.293 195.088C151.221 194.992 151.165 194.913 151.126 194.85H151.063V195.381H150.55ZM151.072 193.652C151.072 193.913 151.111 194.144 151.187 194.343C151.264 194.541 151.376 194.697 151.523 194.809C151.67 194.92 151.85 194.976 152.063 194.976C152.285 194.976 152.47 194.917 152.619 194.8C152.769 194.682 152.882 194.523 152.957 194.323C153.033 194.122 153.071 193.898 153.071 193.652C153.071 193.409 153.034 193.19 152.959 192.995C152.885 192.798 152.774 192.643 152.623 192.529C152.475 192.413 152.288 192.356 152.063 192.356C151.847 192.356 151.665 192.41 151.518 192.52C151.371 192.628 151.26 192.779 151.185 192.975C151.11 193.168 151.072 193.394 151.072 193.652ZM155.865 195.453C155.532 195.453 155.244 195.379 155.003 195.232C154.763 195.084 154.577 194.877 154.447 194.611C154.318 194.344 154.253 194.033 154.253 193.679C154.253 193.325 154.318 193.013 154.447 192.743C154.577 192.471 154.759 192.259 154.992 192.108C155.226 191.955 155.499 191.878 155.811 191.878C155.991 191.878 156.169 191.908 156.344 191.968C156.52 192.028 156.68 192.126 156.824 192.261C156.968 192.395 157.083 192.572 157.168 192.792C157.254 193.013 157.297 193.284 157.297 193.607V193.832H154.631V193.373H156.756C156.756 193.178 156.717 193.004 156.639 192.851C156.563 192.698 156.453 192.577 156.311 192.488C156.17 192.4 156.003 192.356 155.811 192.356C155.599 192.356 155.416 192.408 155.262 192.513C155.109 192.617 154.991 192.752 154.908 192.918C154.826 193.085 154.784 193.263 154.784 193.454V193.76C154.784 194.021 154.83 194.243 154.92 194.424C155.011 194.604 155.138 194.742 155.3 194.836C155.462 194.929 155.65 194.976 155.865 194.976C156.005 194.976 156.131 194.956 156.243 194.917C156.357 194.877 156.456 194.817 156.538 194.737C156.621 194.656 156.684 194.556 156.729 194.436L157.243 194.58C157.189 194.754 157.098 194.907 156.97 195.039C156.843 195.169 156.685 195.271 156.498 195.345C156.31 195.417 156.099 195.453 155.865 195.453ZM158.105 195.381V191.923H158.618V192.446H158.654C158.717 192.274 158.831 192.136 158.996 192.029C159.161 191.923 159.347 191.869 159.555 191.869C159.594 191.869 159.642 191.87 159.701 191.872C159.759 191.873 159.804 191.875 159.834 191.878V192.419C159.816 192.414 159.774 192.407 159.71 192.398C159.647 192.388 159.58 192.383 159.51 192.383C159.341 192.383 159.191 192.418 159.059 192.488C158.929 192.557 158.825 192.653 158.749 192.776C158.674 192.898 158.636 193.037 158.636 193.193V195.381H158.105Z" fill="#333333"/>
<path d="M97.8861 178.047C97.8546 177.752 97.7217 177.523 97.4876 177.358C97.2558 177.194 96.9541 177.112 96.5827 177.112C96.3216 177.112 96.0976 177.151 95.9107 177.23C95.7239 177.309 95.581 177.416 95.4819 177.551C95.3829 177.686 95.3322 177.84 95.33 178.014C95.33 178.158 95.3626 178.283 95.4279 178.388C95.4954 178.494 95.5866 178.584 95.7014 178.658C95.8162 178.73 95.9434 178.791 96.083 178.841C96.2225 178.89 96.3632 178.932 96.505 178.966L97.1533 179.128C97.4145 179.189 97.6655 179.271 97.9063 179.374C98.1495 179.478 98.3667 179.608 98.558 179.766C98.7516 179.924 98.9047 180.114 99.0172 180.337C99.1298 180.559 99.1861 180.821 99.1861 181.12C99.1861 181.525 99.0825 181.882 98.8754 182.19C98.6683 182.497 98.3689 182.736 97.9772 182.91C97.5878 183.081 97.1162 183.166 96.5624 183.166C96.0244 183.166 95.5573 183.083 95.1611 182.916C94.7672 182.75 94.4588 182.507 94.2359 182.187C94.0153 181.867 93.896 181.478 93.878 181.019H95.1105C95.1285 181.26 95.2028 181.46 95.3333 181.62C95.4639 181.78 95.6339 181.899 95.8432 181.978C96.0548 182.056 96.2912 182.096 96.5523 182.096C96.8247 182.096 97.0633 182.055 97.2681 181.974C97.4752 181.891 97.6373 181.776 97.7544 181.63C97.8714 181.481 97.9311 181.308 97.9333 181.11C97.9311 180.93 97.8782 180.781 97.7746 180.664C97.6711 180.545 97.5259 180.446 97.3391 180.367C97.1545 180.286 96.9384 180.214 96.6907 180.151L95.904 179.948C95.3345 179.802 94.8842 179.58 94.5533 179.283C94.2247 178.984 94.0603 178.586 94.0603 178.091C94.0603 177.684 94.1707 177.327 94.3913 177.021C94.6141 176.715 94.9169 176.477 95.2996 176.308C95.6823 176.137 96.1156 176.052 96.5996 176.052C97.0903 176.052 97.5203 176.137 97.8895 176.308C98.2609 176.477 98.5524 176.712 98.764 177.014C98.9756 177.313 99.0848 177.658 99.0915 178.047H97.8861ZM100.249 183.062V177.875H101.471V183.062H100.249ZM100.863 177.139C100.67 177.139 100.503 177.075 100.364 176.946C100.224 176.816 100.154 176.659 100.154 176.477C100.154 176.293 100.224 176.136 100.364 176.008C100.503 175.877 100.67 175.812 100.863 175.812C101.059 175.812 101.226 175.877 101.363 176.008C101.503 176.136 101.573 176.293 101.573 176.477C101.573 176.659 101.503 176.816 101.363 176.946C101.226 177.075 101.059 177.139 100.863 177.139ZM104.984 185.115C104.545 185.115 104.168 185.055 103.853 184.936C103.537 184.819 103.284 184.661 103.093 184.463C102.901 184.265 102.769 184.045 102.694 183.804L103.795 183.538C103.845 183.639 103.917 183.739 104.011 183.838C104.106 183.939 104.233 184.023 104.393 184.088C104.555 184.156 104.759 184.189 105.004 184.189C105.351 184.189 105.638 184.105 105.865 183.936C106.092 183.77 106.206 183.495 106.206 183.112V182.13H106.145C106.082 182.256 105.99 182.385 105.868 182.518C105.749 182.651 105.59 182.762 105.392 182.852C105.196 182.942 104.95 182.987 104.653 182.987C104.254 182.987 103.893 182.894 103.569 182.707C103.247 182.518 102.99 182.237 102.799 181.863C102.61 181.487 102.515 181.016 102.515 180.451C102.515 179.882 102.61 179.401 102.799 179.01C102.99 178.616 103.248 178.317 103.572 178.115C103.896 177.91 104.258 177.808 104.656 177.808C104.96 177.808 105.21 177.859 105.406 177.963C105.604 178.064 105.762 178.187 105.879 178.331C105.996 178.473 106.085 178.607 106.145 178.733H106.213V177.875H107.418V183.146C107.418 183.589 107.313 183.956 107.101 184.247C106.889 184.537 106.6 184.754 106.233 184.898C105.866 185.043 105.45 185.115 104.984 185.115ZM104.994 182.028C105.253 182.028 105.473 181.965 105.656 181.839C105.838 181.713 105.976 181.532 106.071 181.296C106.166 181.059 106.213 180.776 106.213 180.445C106.213 180.118 106.166 179.832 106.071 179.587C105.979 179.342 105.841 179.151 105.659 179.016C105.479 178.879 105.257 178.81 104.994 178.81C104.722 178.81 104.494 178.881 104.312 179.023C104.129 179.165 103.992 179.36 103.9 179.607C103.808 179.853 103.761 180.132 103.761 180.445C103.761 180.762 103.808 181.04 103.9 181.279C103.994 181.515 104.133 181.7 104.315 181.832C104.5 181.963 104.726 182.028 104.994 182.028ZM109.893 180.023V183.062H108.671V177.875H109.839V178.756H109.9C110.019 178.466 110.21 178.235 110.471 178.064C110.734 177.893 111.059 177.808 111.447 177.808C111.805 177.808 112.116 177.884 112.382 178.037C112.65 178.19 112.857 178.412 113.003 178.702C113.152 178.993 113.225 179.345 113.223 179.759V183.062H112V179.948C112 179.602 111.91 179.33 111.73 179.135C111.552 178.939 111.306 178.841 110.991 178.841C110.777 178.841 110.587 178.888 110.42 178.983C110.256 179.075 110.126 179.209 110.032 179.384C109.94 179.56 109.893 179.773 109.893 180.023ZM121.237 176.146H122.49V180.664C122.49 181.159 122.373 181.595 122.139 181.971C121.907 182.347 121.58 182.641 121.16 182.852C120.739 183.062 120.247 183.166 119.684 183.166C119.119 183.166 118.626 183.062 118.205 182.852C117.784 182.641 117.458 182.347 117.226 181.971C116.994 181.595 116.878 181.159 116.878 180.664V176.146H118.131V180.559C118.131 180.848 118.194 181.104 118.32 181.329C118.448 181.554 118.628 181.731 118.86 181.859C119.092 181.986 119.367 182.049 119.684 182.049C120.001 182.049 120.276 181.986 120.508 181.859C120.742 181.731 120.922 181.554 121.048 181.329C121.174 181.104 121.237 180.848 121.237 180.559V176.146ZM123.798 185.007V177.875H125V178.733H125.071C125.134 178.607 125.222 178.473 125.337 178.331C125.452 178.187 125.607 178.064 125.803 177.963C125.999 177.859 126.249 177.808 126.553 177.808C126.954 177.808 127.315 177.91 127.637 178.115C127.961 178.317 128.218 178.618 128.407 179.016C128.598 179.413 128.694 179.899 128.694 180.475C128.694 181.045 128.6 181.529 128.413 181.927C128.227 182.325 127.972 182.629 127.65 182.839C127.328 183.048 126.964 183.153 126.556 183.153C126.259 183.153 126.013 183.103 125.817 183.004C125.621 182.905 125.463 182.786 125.344 182.646C125.227 182.504 125.136 182.37 125.071 182.244H125.02V185.007H123.798ZM124.996 180.468C124.996 180.804 125.043 181.097 125.138 181.35C125.235 181.602 125.373 181.799 125.553 181.941C125.736 182.08 125.956 182.15 126.215 182.15C126.485 182.15 126.712 182.078 126.894 181.934C127.076 181.787 127.214 181.588 127.306 181.336C127.4 181.082 127.448 180.792 127.448 180.468C127.448 180.146 127.402 179.861 127.309 179.611C127.217 179.361 127.08 179.165 126.897 179.023C126.715 178.881 126.488 178.81 126.215 178.81C125.954 178.81 125.732 178.879 125.55 179.016C125.368 179.154 125.229 179.346 125.135 179.594C125.042 179.841 124.996 180.133 124.996 180.468Z" fill="#333333"/>
<rect x="37.7151" y="210.304" width="146.855" height="22.715" rx="11.3575" stroke="#E8E8E8" stroke-width="0.528256"/>
<path d="M50.6877 223.907V219.296H52.2454C52.6071 219.296 52.9027 219.362 53.1323 219.492C53.3635 219.621 53.5345 219.796 53.6456 220.017C53.7566 220.237 53.8122 220.483 53.8122 220.755C53.8122 221.027 53.7566 221.274 53.6456 221.496C53.536 221.718 53.3665 221.895 53.1368 222.027C52.9072 222.158 52.6131 222.223 52.2544 222.223H51.1379V221.728H52.2364C52.484 221.728 52.6829 221.685 52.833 221.599C52.983 221.514 53.0918 221.398 53.1594 221.253C53.2284 221.106 53.2629 220.94 53.2629 220.755C53.2629 220.571 53.2284 220.405 53.1594 220.26C53.0918 220.114 52.9823 220 52.8307 219.918C52.6791 219.834 52.478 219.792 52.2274 219.792H51.2459V223.907H50.6877ZM55.1707 221.827V223.907H54.6395V219.296H55.1707V220.989H55.2157C55.2968 220.811 55.4183 220.669 55.5804 220.564C55.744 220.457 55.9616 220.404 56.2332 220.404C56.4688 220.404 56.6752 220.451 56.8523 220.546C57.0294 220.639 57.1667 220.782 57.2642 220.976C57.3633 221.168 57.4128 221.412 57.4128 221.71V223.907H56.8815V221.746C56.8815 221.471 56.8103 221.259 56.6677 221.109C56.5266 220.957 56.3308 220.881 56.0801 220.881C55.9061 220.881 55.75 220.918 55.6119 220.991C55.4754 221.065 55.3673 221.172 55.2878 221.313C55.2097 221.454 55.1707 221.626 55.1707 221.827ZM59.7894 223.979C59.4772 223.979 59.2033 223.904 58.9677 223.756C58.7336 223.607 58.5505 223.399 58.4185 223.132C58.2879 222.865 58.2226 222.553 58.2226 222.196C58.2226 221.836 58.2879 221.521 58.4185 221.253C58.5505 220.984 58.7336 220.775 58.9677 220.627C59.2033 220.478 59.4772 220.404 59.7894 220.404C60.1015 220.404 60.3747 220.478 60.6088 220.627C60.8444 220.775 61.0275 220.984 61.158 221.253C61.2901 221.521 61.3561 221.836 61.3561 222.196C61.3561 222.553 61.2901 222.865 61.158 223.132C61.0275 223.399 60.8444 223.607 60.6088 223.756C60.3747 223.904 60.1015 223.979 59.7894 223.979ZM59.7894 223.501C60.0265 223.501 60.2216 223.441 60.3747 223.319C60.5277 223.198 60.641 223.038 60.7146 222.84C60.7881 222.642 60.8249 222.427 60.8249 222.196C60.8249 221.965 60.7881 221.749 60.7146 221.55C60.641 221.35 60.5277 221.189 60.3747 221.066C60.2216 220.943 60.0265 220.881 59.7894 220.881C59.5523 220.881 59.3572 220.943 59.2041 221.066C59.051 221.189 58.9377 221.35 58.8642 221.55C58.7906 221.749 58.7539 221.965 58.7539 222.196C58.7539 222.427 58.7906 222.642 58.8642 222.84C58.9377 223.038 59.051 223.198 59.2041 223.319C59.3572 223.441 59.5523 223.501 59.7894 223.501ZM62.6983 221.827V223.907H62.1671V220.449H62.6803V220.989H62.7254C62.8064 220.814 62.9295 220.673 63.0945 220.566C63.2596 220.458 63.4727 220.404 63.7338 220.404C63.968 220.404 64.1728 220.452 64.3484 220.548C64.524 220.643 64.6605 220.787 64.7581 220.98C64.8556 221.172 64.9044 221.415 64.9044 221.71V223.907H64.3732V221.746C64.3732 221.474 64.3026 221.262 64.1616 221.111C64.0205 220.958 63.8269 220.881 63.5808 220.881C63.4112 220.881 63.2596 220.918 63.1261 220.991C62.994 221.065 62.8897 221.172 62.8132 221.313C62.7366 221.454 62.6983 221.626 62.6983 221.827ZM67.3249 223.979C66.9917 223.979 66.7043 223.905 66.4627 223.758C66.2226 223.609 66.0373 223.402 65.9067 223.137C65.7777 222.87 65.7131 222.559 65.7131 222.205C65.7131 221.851 65.7777 221.538 65.9067 221.268C66.0373 220.997 66.2189 220.785 66.4515 220.634C66.6856 220.48 66.9587 220.404 67.2709 220.404C67.451 220.404 67.6288 220.434 67.8044 220.494C67.98 220.554 68.1398 220.652 68.2839 220.787C68.4279 220.92 68.5427 221.097 68.6283 221.318C68.7138 221.538 68.7566 221.81 68.7566 222.133V222.358H66.0913V221.899H68.2163C68.2163 221.704 68.1773 221.529 68.0993 221.376C68.0227 221.223 67.9132 221.103 67.7706 221.014C67.6295 220.925 67.463 220.881 67.2709 220.881C67.0593 220.881 66.8762 220.934 66.7216 221.039C66.5685 221.142 66.4507 221.277 66.3682 221.444C66.2856 221.611 66.2444 221.789 66.2444 221.98V222.286C66.2444 222.547 66.2894 222.768 66.3794 222.95C66.471 223.13 66.5978 223.267 66.7599 223.362C66.922 223.455 67.1103 223.501 67.3249 223.501C67.4645 223.501 67.5905 223.482 67.7031 223.443C67.8171 223.402 67.9154 223.342 67.998 223.263C68.0805 223.182 68.1443 223.081 68.1893 222.961L68.7026 223.105C68.6485 223.279 68.5577 223.432 68.4302 223.564C68.3026 223.695 68.145 223.797 67.9575 223.871C67.7699 223.943 67.559 223.979 67.3249 223.979ZM75.0754 219.296V223.907H74.5351L72.0229 220.287H71.9779V223.907H71.4196V219.296H71.9599L74.4811 222.925H74.5261V219.296H75.0754ZM78.2995 222.493V220.449H78.8308V223.907H78.2995V223.321H78.2635C78.1825 223.497 78.0564 223.646 77.8853 223.769C77.7142 223.891 77.4981 223.952 77.237 223.952C77.0209 223.952 76.8288 223.904 76.6607 223.81C76.4926 223.714 76.3606 223.57 76.2645 223.378C76.1685 223.184 76.1205 222.94 76.1205 222.646V220.449H76.6517V222.61C76.6517 222.862 76.7223 223.063 76.8633 223.213C77.0059 223.363 77.1875 223.438 77.4081 223.438C77.5402 223.438 77.6745 223.405 77.811 223.337C77.9491 223.27 78.0647 223.166 78.1577 223.026C78.2522 222.887 78.2995 222.709 78.2995 222.493ZM79.8038 223.907V220.449H80.3171V220.989H80.3621C80.4341 220.805 80.5504 220.661 80.711 220.559C80.8716 220.456 81.0644 220.404 81.2895 220.404C81.5176 220.404 81.7075 220.456 81.8591 220.559C82.0121 220.661 82.1314 220.805 82.217 220.989H82.253C82.3415 220.811 82.4744 220.669 82.6514 220.564C82.8285 220.457 83.0409 220.404 83.2885 220.404C83.5976 220.404 83.8505 220.501 84.0471 220.694C84.2437 220.886 84.342 221.186 84.342 221.592V223.907H83.8107V221.592C83.8107 221.337 83.741 221.155 83.6014 221.045C83.4618 220.936 83.2975 220.881 83.1084 220.881C82.8653 220.881 82.677 220.955 82.5434 221.102C82.4098 221.247 82.343 221.432 82.343 221.656V223.907H81.8028V221.538C81.8028 221.342 81.739 221.184 81.6114 221.063C81.4839 220.942 81.3195 220.881 81.1184 220.881C80.9804 220.881 80.8513 220.918 80.7313 220.991C80.6127 221.065 80.5167 221.167 80.4431 221.298C80.3711 221.427 80.3351 221.576 80.3351 221.746V223.907H79.8038ZM85.3854 223.907V219.296H85.9166V220.998H85.9617C86.0007 220.938 86.0547 220.862 86.1237 220.769C86.1943 220.674 86.2948 220.59 86.4254 220.516C86.5575 220.441 86.736 220.404 86.9611 220.404C87.2523 220.404 87.5089 220.477 87.731 220.622C87.9531 220.768 88.1265 220.974 88.251 221.241C88.3756 221.508 88.4379 221.824 88.4379 222.187C88.4379 222.553 88.3756 222.87 88.251 223.139C88.1265 223.406 87.9539 223.613 87.7333 223.76C87.5127 223.906 87.2583 223.979 86.9702 223.979C86.748 223.979 86.5702 223.942 86.4366 223.868C86.3031 223.793 86.2003 223.709 86.1282 223.614C86.0562 223.518 86.0007 223.438 85.9617 223.375H85.8986V223.907H85.3854ZM85.9076 222.178C85.9076 222.439 85.9459 222.669 86.0224 222.869C86.099 223.067 86.2108 223.222 86.3579 223.335C86.5049 223.446 86.685 223.501 86.8981 223.501C87.1202 223.501 87.3056 223.443 87.4541 223.326C87.6042 223.207 87.7168 223.048 87.7918 222.849C87.8683 222.648 87.9066 222.424 87.9066 222.178C87.9066 221.935 87.8691 221.716 87.794 221.52C87.7205 221.324 87.6087 221.169 87.4586 221.054C87.3101 220.939 87.1232 220.881 86.8981 220.881C86.682 220.881 86.5004 220.936 86.3534 221.045C86.2063 221.154 86.0952 221.305 86.0202 221.5C85.9452 221.694 85.9076 221.92 85.9076 222.178ZM90.7002 223.979C90.367 223.979 90.0797 223.905 89.838 223.758C89.5979 223.609 89.4126 223.402 89.282 223.137C89.153 222.87 89.0884 222.559 89.0884 222.205C89.0884 221.851 89.153 221.538 89.282 221.268C89.4126 220.997 89.5942 220.785 89.8268 220.634C90.0609 220.48 90.334 220.404 90.6462 220.404C90.8263 220.404 91.0041 220.434 91.1797 220.494C91.3553 220.554 91.5151 220.652 91.6592 220.787C91.8032 220.92 91.918 221.097 92.0036 221.318C92.0891 221.538 92.1319 221.81 92.1319 222.133V222.358H89.4666V221.899H91.5916C91.5916 221.704 91.5526 221.529 91.4746 221.376C91.398 221.223 91.2885 221.103 91.1459 221.014C91.0049 220.925 90.8383 220.881 90.6462 220.881C90.4346 220.881 90.2515 220.934 90.0969 221.039C89.9438 221.142 89.826 221.277 89.7435 221.444C89.661 221.611 89.6197 221.789 89.6197 221.98V222.286C89.6197 222.547 89.6647 222.768 89.7547 222.95C89.8463 223.13 89.9731 223.267 90.1352 223.362C90.2973 223.455 90.4856 223.501 90.7002 223.501C90.8398 223.501 90.9658 223.482 91.0784 223.443C91.1924 223.402 91.2907 223.342 91.3733 223.263C91.4558 223.182 91.5196 223.081 91.5646 222.961L92.0779 223.105C92.0238 223.279 91.933 223.432 91.8055 223.564C91.6779 223.695 91.5204 223.797 91.3328 223.871C91.1452 223.943 90.9343 223.979 90.7002 223.979ZM92.94 223.907V220.449H93.4533V220.971H93.4893C93.5523 220.8 93.6664 220.661 93.8315 220.555C93.9966 220.448 94.1826 220.395 94.3897 220.395C94.4288 220.395 94.4775 220.396 94.5361 220.397C94.5946 220.399 94.6389 220.401 94.6689 220.404V220.944C94.6509 220.94 94.6096 220.933 94.5451 220.924C94.482 220.913 94.4153 220.908 94.3447 220.908C94.1766 220.908 94.0266 220.943 93.8945 221.014C93.7639 221.083 93.6604 221.179 93.5839 221.302C93.5088 221.424 93.4713 221.562 93.4713 221.719V223.907H92.94Z" fill="#8F8F8F"/>
</g>
</g>
<defs>
<filter id="filter0_d_1_2596" x="0.0957031" y="0" width="222.096" height="452.943" filterUnits="userSpaceOnUse" color-interpolation-filters="sRGB">
<feFlood flood-opacity="0" result="BackgroundImageFix"/>
<feColorMatrix in="SourceAlpha" type="matrix" values="0 0 0 0 0 0 0 0 0 0 0 0 0 0 0 0 0 0 127 0" result="hardAlpha"/>
<feOffset dy="-1"/>
<feGaussianBlur stdDeviation="6"/>
<feComposite in2="hardAlpha" operator="out"/>
<feColorMatrix type="matrix" values="0 0 0 0 0 0 0 0 0 0 0 0 0 0 0 0 0 0 0.12 0"/>
<feBlend mode="normal" in2="BackgroundImageFix" result="effect1_dropShadow_1_2596"/>
<feBlend mode="normal" in="SourceGraphic" in2="effect1_dropShadow_1_2596" result="shape"/>
</filter>
<filter id="filter1_b_1_2596" x="9.98195" y="10.8869" width="202.322" height="433.17" filterUnits="userSpaceOnUse" color-interpolation-filters="sRGB">
<feFlood flood-opacity="0" result="BackgroundImageFix"/>
<feGaussianBlur in="BackgroundImageFix" stdDeviation="1.05651"/>
<feComposite in2="SourceAlpha" operator="in" result="effect1_backgroundBlur_1_2596"/>
<feBlend mode="normal" in="SourceGraphic" in2="effect1_backgroundBlur_1_2596" result="shape"/>
</filter>
<clipPath id="clip0_1_2596">
<rect x="12.0957" y="13" width="198.096" height="428.943" rx="20" fill="white"/>
</clipPath>
</defs>
</svg>
