<svg width="111" height="122" viewBox="0 0 111 122" fill="none" xmlns="http://www.w3.org/2000/svg">
<path fill-rule="evenodd" clip-rule="evenodd" d="M20.4235 14.4407L22.9276 14.8405L25.506 15.5682L76.9064 34.2546L79.1559 35.1723L81.3153 36.3375L83.3683 37.7243L85.2982 39.3081L87.0882 41.0647L88.7208 42.9708L90.1783 45.0032L91.4422 47.1394L92.4932 49.3569L93.3117 51.6333L93.8766 53.9462L94.1664 56.2732L95.0819 107.027L95.0819 107.028L94.7736 109.494L94.1664 111.774L93.276 113.85L92.1183 115.7L90.7093 117.302L89.0661 118.633L87.2057 119.67L85.1473 120.388L82.9092 120.763L80.513 120.771L77.9796 120.387L21.1882 108.277L18.4134 107.636L15.4945 106.385L12.7042 104.573L10.2066 102.689L7.92566 100.538L5.89127 98.1568L4.13238 95.5821L2.6768 92.8521L1.55108 90.0054L0.7803 87.0808L0.387695 84.1157L0.395327 81.1492L4.90549 26.5006L5.26749 24.1216L5.97162 21.9752L6.98774 20.0732L8.28606 18.4266L9.83736 17.0456L11.6131 15.9395L13.5858 15.1173L15.7286 14.5878L18.016 14.3594L20.4235 14.4407ZM95.0819 107.027L94.1664 56.2732L95.076 104.397L95.0819 107.027Z" fill="url(#paint0_linear_1_1933)" fill-opacity="0.5"/>
<path fill-rule="evenodd" clip-rule="evenodd" d="M16.23 9.76228L15.868 12.1412L11.5882 71.0887L11.5806 74.0552L11.9731 77.02L12.744 79.9449L13.8697 82.7916L15.3253 85.5215L17.0841 88.0963L19.1185 90.4778L21.3995 92.6288L23.8971 94.5128L26.5806 96.0944L29.4187 97.3398L32.3798 98.2167L93.1155 111.973L95.6488 112.357L98.0452 112.349L100.283 111.974L102.341 111.255L100.292 112.47L98.4388 113.503L96.4806 114.665L98.4378 113.504L98.4388 113.503L100.292 112.47L102.341 111.255L104.202 110.219L100.294 112.469L100.293 112.47L100.292 112.47L98.4388 113.503L96.4806 114.665L92.7618 116.806L89.1331 118.896L87.2992 119.919L85.2791 120.638L83.0923 121.029L80.7592 121.068L78.3013 120.732L19.6954 108.347L16.8527 107.548L14.135 106.394L11.572 104.916L9.1931 103.145L7.02703 101.115L5.10185 98.8602L3.44472 96.416L2.08174 93.8181L1.03781 91.1025L0.336512 88.3057L0 85.4638L0.0488803 82.6128L5.01886 25.6366L5.40357 23.3229L6.1164 21.2266L9.73493 16.0731L11.0212 14.442L13.6964 11.0686L16.4377 7.61188L19.2459 4.07068L17.9502 5.7139L16.9341 7.61585L16.23 9.76228Z" fill="url(#paint1_linear_1_1933)"/>
<g filter="url(#filter0_b_1_1933)">
<path fill-rule="evenodd" clip-rule="evenodd" d="M31.3865 0.0813011L33.8906 0.481152L36.469 1.20878L89.5611 19.4218L91.8106 20.3396L93.97 21.5047L96.0229 22.8916L97.9529 24.4753L99.7429 26.232L101.376 28.138L102.833 30.1704L104.097 32.3066L105.148 34.5241L105.966 36.8005L106.531 39.1134L106.821 41.4405L110.218 98.6123L110.218 98.6138L109.91 101.079L109.303 103.36L108.412 105.436L107.255 107.286L105.846 108.888L104.203 110.219L102.342 111.255L100.284 111.973L98.0457 112.349L95.6495 112.357L93.116 111.973L32.3815 98.2169L29.6067 97.5756L26.6878 96.3246L23.8975 94.5127L21.4 92.6288L19.119 90.4778L17.0846 88.0962L15.3257 85.5215L13.8702 82.7916L12.7444 79.9449L11.9737 77.0202L11.5811 74.0552L11.5887 71.0887L15.8685 12.1412L16.2305 9.76225L16.9346 7.61582L17.9507 5.71386L19.249 4.06727L20.8003 2.68621L22.5761 1.58011L24.5487 0.75797L26.6916 0.228412L28.979 0L31.3865 0.0813011ZM110.218 98.6123L106.821 41.4405L110.212 95.9822L110.218 98.6123Z" fill="url(#paint2_linear_1_1933)" fill-opacity="0.3"/>
<path d="M109.829 98.6011L109.528 101.005L108.935 103.233L108.068 105.255L106.942 107.053L105.576 108.607L103.984 109.896L102.183 110.9L100.187 111.596L98.0127 111.961L95.678 111.969L93.188 111.591L32.4689 97.8388L32.4673 97.8384L29.7278 97.2052L26.8713 95.981L24.1203 94.1947L21.6507 92.3318L19.4005 90.2098L17.3933 87.8601L15.6582 85.3202L14.223 82.6284L13.1138 79.8236L12.3552 76.945L11.9692 74.0301L11.9767 71.1032L16.2544 12.1845L16.6093 9.85254L17.2928 7.76889L18.2768 5.92711L19.5326 4.33441L21.0336 2.99811L22.7545 1.9262L24.6707 1.12761L26.7577 0.611825L28.9918 0.388744L31.3492 0.468354L33.807 0.860813L36.3532 1.57936L89.4248 19.7853L91.6447 20.691L93.7687 21.8371L95.7907 23.203L97.6934 24.7644L99.459 26.4972L101.07 28.3778L102.508 30.3828L103.754 32.4889L104.789 34.6732L105.594 36.9125L106.149 39.1837L106.434 41.476L109.829 98.6011Z" stroke="url(#paint3_linear_1_1933)" stroke-width="0.776182"/>
</g>
<g filter="url(#filter1_d_1_1933)">
<path fill-rule="evenodd" clip-rule="evenodd" d="M37.0203 46.8199L39.4063 44.2651L36.5781 47.294L37.0203 46.8199ZM94.5871 48.9129L62.4755 72.7041L62.4727 72.7061L61.9073 73.0557L61.2967 73.3058L60.6495 73.4579L59.9748 73.5139L59.2818 73.4755L58.5795 73.3445L57.8773 73.1231L57.1846 72.8132L56.5109 72.417L55.5101 73.7068L54.5093 74.9967L55.1944 75.3002L55.8894 75.5162L56.5849 75.6426L57.2719 75.6775L57.941 75.6191L58.5833 75.4656L59.1901 75.2154L59.7523 74.8668L91.7623 51.1349L91.764 51.1337L94.5871 48.9129ZM38.9622 44.7414L36.5781 47.294L36.2246 47.8307L35.9605 48.4212L35.7871 49.0565L35.7051 49.7275L35.7155 50.4252L35.8191 51.1402L36.0166 51.8632L36.3086 52.5846L36.6957 53.2948L37.178 53.9843L52.055 72.9516L52.6068 73.5827L53.206 74.1355L53.8434 74.6077L54.5093 74.9967L55.5101 73.7068L56.5109 72.417L55.8656 71.937L55.2583 71.3755L54.6985 70.7352L39.5974 51.5003L39.1074 50.8014L38.7136 50.0821L38.4156 49.352L38.213 48.6209L38.1053 47.8983L38.0918 47.1937L38.1716 46.5166L38.3439 45.8761L38.6077 45.2814L38.9622 44.7414ZM38.9622 44.7414L39.4063 44.2651L36.5781 47.294L38.9622 44.7414Z" fill="url(#paint4_linear_1_1933)"/>
<path fill-rule="evenodd" clip-rule="evenodd" d="M94.3254 42.264L94.7521 42.8749L95.1066 43.5008L95.3886 44.1343L95.5977 44.7678L95.7337 45.3938L95.796 46.0046L95.784 46.5926L95.6972 47.1499L95.5349 47.6687L95.2963 48.1409L94.9807 48.5583L94.5874 48.9129L62.475 72.7046L62.473 72.7062L61.9076 73.0557L61.297 73.3058L60.6498 73.4579L59.9751 73.5139L59.282 73.4755L58.5798 73.3445L57.8776 73.1231L57.1849 72.8132L56.5112 72.417L55.8659 71.937L58.8352 60.0244L87.8066 40.0963L88.2722 39.8374L88.7774 39.6681L89.3144 39.5853L89.8756 39.5861L90.4531 39.6674L91.0394 39.8264L91.6271 40.0604L92.2086 40.3667L92.7765 40.7426L93.3235 41.1857L93.8423 41.6936L94.3254 42.264ZM38.1719 46.5163L38.3442 45.8761L38.6079 45.2816L40.5401 43.5479L43.2644 43.2693L43.9792 43.4277L44.6891 43.6713L45.3853 43.9974L46.0587 44.4033L46.7005 44.8864L47.3018 45.4443L47.8537 46.0748L58.8352 60.0244L55.8659 71.937L55.2586 71.3755L54.6988 70.7352L39.5976 51.5003L39.1076 50.8014L38.7138 50.0821L38.4159 49.352L38.2133 48.6209L38.1056 47.8983L38.092 47.1938L38.1719 46.5163ZM43.2644 43.2693L42.5539 43.199L41.8569 43.22L41.1824 43.3352L40.5401 43.5479L43.2644 43.2693ZM40.5401 43.5479L39.9393 43.8612L39.4067 44.2651L38.9625 44.7414L38.6079 45.2816L40.5401 43.5479Z" fill="url(#paint5_linear_1_1933)"/>
</g>
<defs>
<filter id="filter0_b_1_1933" x="1.49068" y="-10.0904" width="118.818" height="132.538" filterUnits="userSpaceOnUse" color-interpolation-filters="sRGB">
<feFlood flood-opacity="0" result="BackgroundImageFix"/>
<feGaussianBlur in="BackgroundImageFix" stdDeviation="5.04519"/>
<feComposite in2="SourceAlpha" operator="in" result="effect1_backgroundBlur_1_1933"/>
<feBlend mode="normal" in="SourceGraphic" in2="effect1_backgroundBlur_1_1933" result="shape"/>
</filter>
<filter id="filter1_d_1_1933" x="22.7387" y="35.9836" width="80.2609" height="56.2621" filterUnits="userSpaceOnUse" color-interpolation-filters="sRGB">
<feFlood flood-opacity="0" result="BackgroundImageFix"/>
<feColorMatrix in="SourceAlpha" type="matrix" values="0 0 0 0 0 0 0 0 0 0 0 0 0 0 0 0 0 0 127 0" result="hardAlpha"/>
<feOffset dx="-2.88142" dy="6.48319"/>
<feGaussianBlur stdDeviation="5.04248"/>
<feComposite in2="hardAlpha" operator="out"/>
<feColorMatrix type="matrix" values="0 0 0 0 0.103333 0 0 0 0 0.4104 0 0 0 0 0.43 0 0 0 0.25 0"/>
<feBlend mode="normal" in2="BackgroundImageFix" result="effect1_dropShadow_1_1933"/>
<feBlend mode="normal" in="SourceGraphic" in2="effect1_dropShadow_1_1933" result="shape"/>
</filter>
<linearGradient id="paint0_linear_1_1933" x1="3.13426" y1="127.452" x2="89.7232" y2="22.2228" gradientUnits="userSpaceOnUse">
<stop offset="0.320833" stop-color="#C0EEF1"/>
<stop offset="0.58125" stop-color="#8FC3D0"/>
<stop offset="0.89375" stop-color="#2A9FAF" stop-opacity="0.79"/>
</linearGradient>
<linearGradient id="paint1_linear_1_1933" x1="-25.5907" y1="19.9266" x2="95.5027" y2="140.86" gradientUnits="userSpaceOnUse">
<stop stop-color="#CBF3FF"/>
<stop offset="0.35896" stop-color="#39B8C9"/>
<stop offset="0.683604" stop-color="#089EB3"/>
<stop offset="1" stop-color="#68A4B7"/>
</linearGradient>
<linearGradient id="paint2_linear_1_1933" x1="14.7157" y1="116.586" x2="101.305" y2="11.3562" gradientUnits="userSpaceOnUse">
<stop offset="0.320833" stop-color="#A2F4FF"/>
<stop offset="0.685417" stop-color="#68D3E9" stop-opacity="0.9405"/>
<stop offset="0.89375" stop-color="#009BB0" stop-opacity="0.79"/>
</linearGradient>
<linearGradient id="paint3_linear_1_1933" x1="11.4035" y1="101.53" x2="107.223" y2="21.1446" gradientUnits="userSpaceOnUse">
<stop offset="0.180663" stop-color="white" stop-opacity="0.35"/>
<stop offset="0.533255" stop-color="white" stop-opacity="0"/>
</linearGradient>
<linearGradient id="paint4_linear_1_1933" x1="32.9588" y1="21.1458" x2="33.6491" y2="82.8376" gradientUnits="userSpaceOnUse">
<stop offset="0.301696" stop-color="#C5E7EE"/>
<stop offset="0.993284" stop-color="#7FB8C0" stop-opacity="0.63"/>
</linearGradient>
<linearGradient id="paint5_linear_1_1933" x1="62.2995" y1="83.9253" x2="93.3778" y2="28.6001" gradientUnits="userSpaceOnUse">
<stop stop-color="white"/>
<stop offset="0.644664" stop-color="white" stop-opacity="0.57"/>
</linearGradient>
</defs>
</svg>
